<mxfile host="app.diagrams.net" modified="2021-11-05T20:09:55.649Z" agent="5.0 (Windows NT 10.0; Win64; x64) AppleWebKit/537.36 (KHTML, like Gecko) Chrome/94.0.4606.81 Safari/537.36 OPR/80.0.4170.63" etag="yMeRec-D72iH2WTP3jsY" version="15.6.8" type="github">
  <diagram id="C5RBs43oDa-KdzZeNtuy" name="Page-1">
    <mxGraphModel dx="2209" dy="764" grid="1" gridSize="10" guides="1" tooltips="1" connect="1" arrows="1" fold="1" page="1" pageScale="1" pageWidth="827" pageHeight="1169" math="0" shadow="0">
      <root>
        <mxCell id="WIyWlLk6GJQsqaUBKTNV-0" />
        <mxCell id="WIyWlLk6GJQsqaUBKTNV-1" parent="WIyWlLk6GJQsqaUBKTNV-0" />
        <mxCell id="8WQcC468DqVq79VYUEjq-204" value="&lt;font style=&quot;font-size: 19px&quot;&gt;Սկիզբ&lt;/font&gt;" style="ellipse;whiteSpace=wrap;html=1;fontSize=25;fontColor=default;strokeColor=default;fillColor=default;" parent="WIyWlLk6GJQsqaUBKTNV-1" vertex="1">
          <mxGeometry x="111" y="88" width="115" height="40" as="geometry" />
        </mxCell>
        <mxCell id="8WQcC468DqVq79VYUEjq-205" value="row" style="shape=parallelogram;perimeter=parallelogramPerimeter;whiteSpace=wrap;html=1;fixedSize=1;fontSize=19;fontColor=default;strokeColor=default;fillColor=default;" parent="WIyWlLk6GJQsqaUBKTNV-1" vertex="1">
          <mxGeometry x="118.5" y="158" width="100" height="30" as="geometry" />
        </mxCell>
        <mxCell id="8WQcC468DqVq79VYUEjq-206" value="col" style="shape=parallelogram;perimeter=parallelogramPerimeter;whiteSpace=wrap;html=1;fixedSize=1;fontSize=19;fontColor=default;strokeColor=default;fillColor=default;" parent="WIyWlLk6GJQsqaUBKTNV-1" vertex="1">
          <mxGeometry x="118.5" y="308" width="100" height="30" as="geometry" />
        </mxCell>
        <mxCell id="8WQcC468DqVq79VYUEjq-207" value="" style="endArrow=none;html=1;rounded=0;labelBackgroundColor=default;fontSize=19;fontColor=default;strokeColor=default;strokeWidth=2;fillColor=default;" parent="WIyWlLk6GJQsqaUBKTNV-1" edge="1">
          <mxGeometry width="50" height="50" relative="1" as="geometry">
            <mxPoint x="168" y="158" as="sourcePoint" />
            <mxPoint x="168" y="128" as="targetPoint" />
          </mxGeometry>
        </mxCell>
        <mxCell id="8WQcC468DqVq79VYUEjq-208" value="" style="edgeStyle=orthogonalEdgeStyle;rounded=0;orthogonalLoop=1;jettySize=auto;html=1;labelBackgroundColor=default;fontSize=22;fontColor=default;strokeColor=default;strokeWidth=2;fillColor=default;" parent="WIyWlLk6GJQsqaUBKTNV-1" source="8WQcC468DqVq79VYUEjq-209" edge="1">
          <mxGeometry relative="1" as="geometry">
            <mxPoint x="38.09999999999991" y="143" as="targetPoint" />
          </mxGeometry>
        </mxCell>
        <mxCell id="8WQcC468DqVq79VYUEjq-209" value="&lt;font style=&quot;font-size: 14px&quot;&gt;row &amp;lt; 2 || row &amp;gt; K&lt;/font&gt;" style="rhombus;whiteSpace=wrap;html=1;fontSize=19;fontColor=default;strokeColor=default;fillColor=default;" parent="WIyWlLk6GJQsqaUBKTNV-1" vertex="1">
          <mxGeometry x="87.63999999999999" y="208" width="161.72" height="70" as="geometry" />
        </mxCell>
        <mxCell id="8WQcC468DqVq79VYUEjq-210" value="" style="endArrow=none;html=1;rounded=0;labelBackgroundColor=default;fontSize=14;fontColor=default;strokeColor=default;strokeWidth=2;fillColor=default;" parent="WIyWlLk6GJQsqaUBKTNV-1" edge="1">
          <mxGeometry width="50" height="50" relative="1" as="geometry">
            <mxPoint x="168" y="208" as="sourcePoint" />
            <mxPoint x="167.98999999999978" y="188" as="targetPoint" />
          </mxGeometry>
        </mxCell>
        <mxCell id="8WQcC468DqVq79VYUEjq-211" value="" style="endArrow=classic;html=1;rounded=0;labelBackgroundColor=default;fontSize=22;fontColor=default;strokeColor=default;strokeWidth=2;fillColor=default;" parent="WIyWlLk6GJQsqaUBKTNV-1" edge="1">
          <mxGeometry width="50" height="50" relative="1" as="geometry">
            <mxPoint x="41" y="148" as="sourcePoint" />
            <mxPoint x="171" y="148" as="targetPoint" />
          </mxGeometry>
        </mxCell>
        <mxCell id="8WQcC468DqVq79VYUEjq-212" value="" style="edgeStyle=orthogonalEdgeStyle;rounded=0;orthogonalLoop=1;jettySize=auto;html=1;labelBackgroundColor=default;fontSize=22;fontColor=default;strokeColor=default;strokeWidth=2;fillColor=default;" parent="WIyWlLk6GJQsqaUBKTNV-1" source="8WQcC468DqVq79VYUEjq-213" edge="1">
          <mxGeometry relative="1" as="geometry">
            <mxPoint x="38.09999999999991" y="295.5" as="targetPoint" />
          </mxGeometry>
        </mxCell>
        <mxCell id="8WQcC468DqVq79VYUEjq-213" value="&lt;font style=&quot;font-size: 14px&quot;&gt;col &amp;lt; 2 || col &amp;gt; K&lt;/font&gt;" style="rhombus;whiteSpace=wrap;html=1;fontSize=19;fontColor=default;strokeColor=default;fillColor=default;" parent="WIyWlLk6GJQsqaUBKTNV-1" vertex="1">
          <mxGeometry x="87.63999999999999" y="358" width="161.72" height="70" as="geometry" />
        </mxCell>
        <mxCell id="8WQcC468DqVq79VYUEjq-214" value="" style="endArrow=none;html=1;rounded=0;labelBackgroundColor=default;fontSize=22;fontColor=default;strokeColor=default;strokeWidth=2;fillColor=default;" parent="WIyWlLk6GJQsqaUBKTNV-1" edge="1">
          <mxGeometry width="50" height="50" relative="1" as="geometry">
            <mxPoint x="168" y="338" as="sourcePoint" />
            <mxPoint x="168" y="348" as="targetPoint" />
            <Array as="points">
              <mxPoint x="168" y="358" />
            </Array>
          </mxGeometry>
        </mxCell>
        <mxCell id="8WQcC468DqVq79VYUEjq-215" value="" style="endArrow=none;html=1;rounded=0;labelBackgroundColor=default;fontSize=22;fontColor=default;strokeColor=default;strokeWidth=2;fillColor=default;" parent="WIyWlLk6GJQsqaUBKTNV-1" edge="1">
          <mxGeometry width="50" height="50" relative="1" as="geometry">
            <mxPoint x="168" y="278" as="sourcePoint" />
            <mxPoint x="168" y="308" as="targetPoint" />
          </mxGeometry>
        </mxCell>
        <mxCell id="8WQcC468DqVq79VYUEjq-216" value="" style="endArrow=none;html=1;rounded=0;labelBackgroundColor=default;fontSize=22;fontColor=default;strokeColor=default;strokeWidth=2;fillColor=default;" parent="WIyWlLk6GJQsqaUBKTNV-1" edge="1">
          <mxGeometry width="50" height="50" relative="1" as="geometry">
            <mxPoint x="37.63999999999987" y="298" as="sourcePoint" />
            <mxPoint x="87.63999999999987" y="298" as="targetPoint" />
          </mxGeometry>
        </mxCell>
        <mxCell id="8WQcC468DqVq79VYUEjq-217" value="" style="endArrow=classic;html=1;rounded=0;labelBackgroundColor=default;fontSize=22;fontColor=default;strokeColor=default;strokeWidth=2;fillColor=default;" parent="WIyWlLk6GJQsqaUBKTNV-1" edge="1">
          <mxGeometry width="50" height="50" relative="1" as="geometry">
            <mxPoint x="81" y="298" as="sourcePoint" />
            <mxPoint x="171" y="298" as="targetPoint" />
          </mxGeometry>
        </mxCell>
        <mxCell id="8WQcC468DqVq79VYUEjq-218" value="&lt;font style=&quot;font-size: 18px&quot;&gt;i = 0; i &amp;lt; row; i++&lt;/font&gt;" style="shape=hexagon;perimeter=hexagonPerimeter2;whiteSpace=wrap;html=1;fixedSize=1;fontSize=22;fontColor=default;strokeColor=default;fillColor=default;" parent="WIyWlLk6GJQsqaUBKTNV-1" vertex="1">
          <mxGeometry x="67.25" y="457" width="202.5" height="30" as="geometry" />
        </mxCell>
        <mxCell id="8WQcC468DqVq79VYUEjq-219" value="&lt;font style=&quot;font-size: 18px&quot;&gt;j = 0; j &amp;lt; col; j++&lt;/font&gt;" style="shape=hexagon;perimeter=hexagonPerimeter2;whiteSpace=wrap;html=1;fixedSize=1;fontSize=22;fontColor=default;strokeColor=default;fillColor=default;" parent="WIyWlLk6GJQsqaUBKTNV-1" vertex="1">
          <mxGeometry x="67.25" y="507" width="202.5" height="30" as="geometry" />
        </mxCell>
        <mxCell id="8WQcC468DqVq79VYUEjq-220" value="" style="endArrow=none;html=1;rounded=0;labelBackgroundColor=default;fontSize=18;fontColor=default;strokeColor=default;strokeWidth=2;fillColor=default;" parent="WIyWlLk6GJQsqaUBKTNV-1" edge="1">
          <mxGeometry width="50" height="50" relative="1" as="geometry">
            <mxPoint x="168" y="507" as="sourcePoint" />
            <mxPoint x="168" y="487" as="targetPoint" />
          </mxGeometry>
        </mxCell>
        <mxCell id="8WQcC468DqVq79VYUEjq-221" value="X[ i ][ j ]" style="shape=parallelogram;perimeter=parallelogramPerimeter;whiteSpace=wrap;html=1;fixedSize=1;fontSize=19;fontColor=default;strokeColor=default;fillColor=default;" parent="WIyWlLk6GJQsqaUBKTNV-1" vertex="1">
          <mxGeometry x="116" y="557" width="100" height="30" as="geometry" />
        </mxCell>
        <mxCell id="8WQcC468DqVq79VYUEjq-222" value="" style="edgeStyle=orthogonalEdgeStyle;rounded=0;orthogonalLoop=1;jettySize=auto;html=1;labelBackgroundColor=default;fontSize=17;fontColor=default;strokeColor=default;strokeWidth=2;fillColor=default;" parent="WIyWlLk6GJQsqaUBKTNV-1" source="8WQcC468DqVq79VYUEjq-223" edge="1">
          <mxGeometry relative="1" as="geometry">
            <mxPoint x="36" y="542" as="targetPoint" />
          </mxGeometry>
        </mxCell>
        <mxCell id="8WQcC468DqVq79VYUEjq-223" value="&lt;font style=&quot;font-size: 17px&quot;&gt;X[ i ][ j ] &amp;lt;= 0&amp;nbsp;&lt;/font&gt;" style="rhombus;whiteSpace=wrap;html=1;fontSize=19;fontColor=default;strokeColor=default;fillColor=default;" parent="WIyWlLk6GJQsqaUBKTNV-1" vertex="1">
          <mxGeometry x="85.13999999999999" y="607" width="165.86" height="70" as="geometry" />
        </mxCell>
        <mxCell id="8WQcC468DqVq79VYUEjq-224" value="" style="endArrow=none;html=1;rounded=0;labelBackgroundColor=default;fontSize=17;fontColor=default;strokeColor=default;strokeWidth=2;fillColor=default;" parent="WIyWlLk6GJQsqaUBKTNV-1" edge="1">
          <mxGeometry width="50" height="50" relative="1" as="geometry">
            <mxPoint x="168" y="557" as="sourcePoint" />
            <mxPoint x="168" y="537" as="targetPoint" />
          </mxGeometry>
        </mxCell>
        <mxCell id="8WQcC468DqVq79VYUEjq-225" value="" style="endArrow=none;html=1;rounded=0;labelBackgroundColor=default;fontSize=17;fontColor=default;strokeColor=default;strokeWidth=2;fillColor=default;" parent="WIyWlLk6GJQsqaUBKTNV-1" edge="1">
          <mxGeometry width="50" height="50" relative="1" as="geometry">
            <mxPoint x="168" y="607" as="sourcePoint" />
            <mxPoint x="168" y="587" as="targetPoint" />
          </mxGeometry>
        </mxCell>
        <mxCell id="8WQcC468DqVq79VYUEjq-226" value="" style="endArrow=classic;html=1;rounded=0;labelBackgroundColor=default;fontSize=17;fontColor=default;strokeColor=default;strokeWidth=2;fillColor=default;" parent="WIyWlLk6GJQsqaUBKTNV-1" edge="1">
          <mxGeometry width="50" height="50" relative="1" as="geometry">
            <mxPoint x="37.25" y="547" as="sourcePoint" />
            <mxPoint x="171" y="547" as="targetPoint" />
          </mxGeometry>
        </mxCell>
        <mxCell id="8WQcC468DqVq79VYUEjq-227" value="" style="endArrow=none;html=1;rounded=0;labelBackgroundColor=default;fontSize=17;fontColor=default;strokeColor=default;strokeWidth=2;fillColor=default;" parent="WIyWlLk6GJQsqaUBKTNV-1" edge="1">
          <mxGeometry width="50" height="50" relative="1" as="geometry">
            <mxPoint x="168" y="697" as="sourcePoint" />
            <mxPoint x="168" y="677" as="targetPoint" />
          </mxGeometry>
        </mxCell>
        <mxCell id="8WQcC468DqVq79VYUEjq-228" value="" style="endArrow=none;html=1;rounded=0;labelBackgroundColor=default;fontSize=16;fontColor=default;strokeColor=default;strokeWidth=2;fillColor=default;" parent="WIyWlLk6GJQsqaUBKTNV-1" edge="1">
          <mxGeometry width="50" height="50" relative="1" as="geometry">
            <mxPoint x="11" y="697" as="sourcePoint" />
            <mxPoint x="168.30000000000018" y="697" as="targetPoint" />
          </mxGeometry>
        </mxCell>
        <mxCell id="8WQcC468DqVq79VYUEjq-229" value="" style="endArrow=classic;html=1;rounded=0;labelBackgroundColor=default;fontSize=16;fontColor=default;strokeColor=default;strokeWidth=2;fillColor=default;" parent="WIyWlLk6GJQsqaUBKTNV-1" edge="1">
          <mxGeometry width="50" height="50" relative="1" as="geometry">
            <mxPoint x="11" y="522" as="sourcePoint" />
            <mxPoint x="71" y="522" as="targetPoint" />
          </mxGeometry>
        </mxCell>
        <mxCell id="8WQcC468DqVq79VYUEjq-230" value="" style="endArrow=none;html=1;rounded=0;labelBackgroundColor=default;fontSize=16;fontColor=default;strokeColor=default;strokeWidth=2;fillColor=default;startArrow=none;" parent="WIyWlLk6GJQsqaUBKTNV-1" edge="1">
          <mxGeometry width="50" height="50" relative="1" as="geometry">
            <mxPoint x="11" y="522" as="sourcePoint" />
            <mxPoint x="11" y="527" as="targetPoint" />
          </mxGeometry>
        </mxCell>
        <mxCell id="8WQcC468DqVq79VYUEjq-231" value="" style="endArrow=none;html=1;rounded=0;labelBackgroundColor=default;fontSize=16;fontColor=default;strokeColor=default;strokeWidth=2;fillColor=default;" parent="WIyWlLk6GJQsqaUBKTNV-1" edge="1">
          <mxGeometry width="50" height="50" relative="1" as="geometry">
            <mxPoint x="11" y="697" as="sourcePoint" />
            <mxPoint x="11" y="522" as="targetPoint" />
          </mxGeometry>
        </mxCell>
        <mxCell id="8WQcC468DqVq79VYUEjq-232" value="" style="endArrow=none;html=1;rounded=0;labelBackgroundColor=default;fontSize=16;fontColor=default;strokeColor=default;strokeWidth=2;fillColor=default;" parent="WIyWlLk6GJQsqaUBKTNV-1" edge="1">
          <mxGeometry width="50" height="50" relative="1" as="geometry">
            <mxPoint x="269.3199999999997" y="521.5" as="sourcePoint" />
            <mxPoint x="291" y="522" as="targetPoint" />
          </mxGeometry>
        </mxCell>
        <mxCell id="8WQcC468DqVq79VYUEjq-233" value="" style="endArrow=none;html=1;rounded=0;labelBackgroundColor=default;fontSize=16;fontColor=default;strokeColor=default;strokeWidth=2;fillColor=default;" parent="WIyWlLk6GJQsqaUBKTNV-1" edge="1">
          <mxGeometry width="50" height="50" relative="1" as="geometry">
            <mxPoint x="290" y="717" as="sourcePoint" />
            <mxPoint x="289.75" y="522" as="targetPoint" />
          </mxGeometry>
        </mxCell>
        <mxCell id="8WQcC468DqVq79VYUEjq-234" value="" style="endArrow=none;html=1;rounded=0;labelBackgroundColor=default;fontSize=16;fontColor=default;strokeColor=default;strokeWidth=2;fillColor=default;startArrow=none;" parent="WIyWlLk6GJQsqaUBKTNV-1" edge="1">
          <mxGeometry width="50" height="50" relative="1" as="geometry">
            <mxPoint x="289.3199999999997" y="717" as="sourcePoint" />
            <mxPoint x="288.5" y="717" as="targetPoint" />
          </mxGeometry>
        </mxCell>
        <mxCell id="8WQcC468DqVq79VYUEjq-235" value="" style="endArrow=none;html=1;rounded=0;labelBackgroundColor=default;fontSize=16;fontColor=default;strokeColor=default;strokeWidth=2;fillColor=default;" parent="WIyWlLk6GJQsqaUBKTNV-1" edge="1">
          <mxGeometry width="50" height="50" relative="1" as="geometry">
            <mxPoint x="-9" y="717" as="sourcePoint" />
            <mxPoint x="289.3199999999997" y="717" as="targetPoint" />
          </mxGeometry>
        </mxCell>
        <mxCell id="8WQcC468DqVq79VYUEjq-236" value="" style="endArrow=none;html=1;rounded=0;labelBackgroundColor=default;fontSize=16;fontColor=default;strokeColor=default;strokeWidth=2;fillColor=default;entryX=0.475;entryY=0.45;entryDx=0;entryDy=0;entryPerimeter=0;" parent="WIyWlLk6GJQsqaUBKTNV-1" edge="1">
          <mxGeometry width="50" height="50" relative="1" as="geometry">
            <mxPoint x="-9" y="717" as="sourcePoint" />
            <mxPoint x="-9" y="472" as="targetPoint" />
          </mxGeometry>
        </mxCell>
        <mxCell id="8WQcC468DqVq79VYUEjq-237" value="" style="endArrow=classic;html=1;rounded=0;labelBackgroundColor=default;fontSize=16;fontColor=default;strokeColor=default;strokeWidth=2;fillColor=default;startArrow=none;" parent="WIyWlLk6GJQsqaUBKTNV-1" edge="1">
          <mxGeometry width="50" height="50" relative="1" as="geometry">
            <mxPoint x="-9" y="472" as="sourcePoint" />
            <mxPoint x="71" y="471.5" as="targetPoint" />
          </mxGeometry>
        </mxCell>
        <mxCell id="8WQcC468DqVq79VYUEjq-238" value="" style="endArrow=none;html=1;rounded=0;labelBackgroundColor=default;fontSize=16;fontColor=default;strokeColor=default;strokeWidth=2;fillColor=default;" parent="WIyWlLk6GJQsqaUBKTNV-1" edge="1">
          <mxGeometry width="50" height="50" relative="1" as="geometry">
            <mxPoint x="-9" y="471.5" as="sourcePoint" />
            <mxPoint x="-9" y="472" as="targetPoint" />
          </mxGeometry>
        </mxCell>
        <mxCell id="8WQcC468DqVq79VYUEjq-239" value="" style="endArrow=none;html=1;rounded=0;labelBackgroundColor=default;fontSize=16;fontColor=default;strokeColor=default;strokeWidth=2;fillColor=default;startArrow=none;" parent="WIyWlLk6GJQsqaUBKTNV-1" edge="1">
          <mxGeometry width="50" height="50" relative="1" as="geometry">
            <mxPoint x="311" y="463" as="sourcePoint" />
            <mxPoint x="311" y="463" as="targetPoint" />
          </mxGeometry>
        </mxCell>
        <mxCell id="8WQcC468DqVq79VYUEjq-240" value="&lt;font style=&quot;font-size: 16px&quot;&gt;int max = X[0][0]&amp;nbsp;&lt;/font&gt;" style="rounded=0;whiteSpace=wrap;html=1;fontSize=17;fontColor=default;strokeColor=default;fillColor=default;" parent="WIyWlLk6GJQsqaUBKTNV-1" vertex="1">
          <mxGeometry x="536.62" y="158" width="143.75" height="40" as="geometry" />
        </mxCell>
        <mxCell id="8WQcC468DqVq79VYUEjq-241" value="&lt;font style=&quot;font-size: 18px&quot;&gt;i = 0; i &amp;lt; row; i++&lt;/font&gt;" style="shape=hexagon;perimeter=hexagonPerimeter2;whiteSpace=wrap;html=1;fixedSize=1;fontSize=22;fontColor=default;strokeColor=default;fillColor=default;" parent="WIyWlLk6GJQsqaUBKTNV-1" vertex="1">
          <mxGeometry x="506.81999999999994" y="218" width="202.5" height="30" as="geometry" />
        </mxCell>
        <mxCell id="8WQcC468DqVq79VYUEjq-242" value="&lt;font style=&quot;font-size: 18px&quot;&gt;j = 0; j &amp;lt; col; j++&lt;/font&gt;" style="shape=hexagon;perimeter=hexagonPerimeter2;whiteSpace=wrap;html=1;fixedSize=1;fontSize=22;fontColor=default;strokeColor=default;fillColor=default;" parent="WIyWlLk6GJQsqaUBKTNV-1" vertex="1">
          <mxGeometry x="506.81999999999994" y="268" width="202.5" height="30" as="geometry" />
        </mxCell>
        <mxCell id="8WQcC468DqVq79VYUEjq-243" value="" style="endArrow=none;html=1;rounded=0;labelBackgroundColor=default;fontSize=16;fontColor=default;strokeColor=default;strokeWidth=2;fillColor=default;" parent="WIyWlLk6GJQsqaUBKTNV-1" edge="1">
          <mxGeometry width="50" height="50" relative="1" as="geometry">
            <mxPoint x="608" y="218" as="sourcePoint" />
            <mxPoint x="607.5699999999997" y="198" as="targetPoint" />
          </mxGeometry>
        </mxCell>
        <mxCell id="8WQcC468DqVq79VYUEjq-244" value="" style="endArrow=none;html=1;rounded=0;labelBackgroundColor=default;fontSize=16;fontColor=default;strokeColor=default;strokeWidth=2;fillColor=default;startArrow=none;" parent="WIyWlLk6GJQsqaUBKTNV-1" edge="1">
          <mxGeometry width="50" height="50" relative="1" as="geometry">
            <mxPoint x="608.0699999999997" y="128" as="sourcePoint" />
            <mxPoint x="608" y="128" as="targetPoint" />
          </mxGeometry>
        </mxCell>
        <mxCell id="8WQcC468DqVq79VYUEjq-245" value="" style="endArrow=none;html=1;rounded=0;labelBackgroundColor=default;fontSize=16;fontColor=default;strokeColor=default;strokeWidth=2;fillColor=default;" parent="WIyWlLk6GJQsqaUBKTNV-1" edge="1">
          <mxGeometry width="50" height="50" relative="1" as="geometry">
            <mxPoint x="608" y="158" as="sourcePoint" />
            <mxPoint x="608.0699999999997" y="128" as="targetPoint" />
          </mxGeometry>
        </mxCell>
        <mxCell id="8WQcC468DqVq79VYUEjq-246" value="" style="endArrow=none;html=1;rounded=0;labelBackgroundColor=default;fontSize=16;fontColor=default;strokeColor=default;strokeWidth=2;fillColor=default;" parent="WIyWlLk6GJQsqaUBKTNV-1" edge="1">
          <mxGeometry width="50" height="50" relative="1" as="geometry">
            <mxPoint x="608" y="268" as="sourcePoint" />
            <mxPoint x="607.5699999999997" y="248" as="targetPoint" />
          </mxGeometry>
        </mxCell>
        <mxCell id="8WQcC468DqVq79VYUEjq-247" value="&lt;font style=&quot;font-size: 17px&quot;&gt;X[ i ][ j ] &amp;gt; max&amp;nbsp;&lt;/font&gt;" style="rhombus;whiteSpace=wrap;html=1;fontSize=19;fontColor=default;strokeColor=default;fillColor=default;" parent="WIyWlLk6GJQsqaUBKTNV-1" vertex="1">
          <mxGeometry x="525.14" y="318" width="165.86" height="70" as="geometry" />
        </mxCell>
        <mxCell id="8WQcC468DqVq79VYUEjq-248" value="&lt;span style=&quot;font-size: 16px&quot;&gt;X[ i ][ j ] = max&lt;/span&gt;" style="rounded=0;whiteSpace=wrap;html=1;fontSize=17;fontColor=default;strokeColor=default;fillColor=default;" parent="WIyWlLk6GJQsqaUBKTNV-1" vertex="1">
          <mxGeometry x="536.62" y="418" width="143.75" height="40" as="geometry" />
        </mxCell>
        <mxCell id="8WQcC468DqVq79VYUEjq-249" value="" style="endArrow=none;html=1;rounded=0;labelBackgroundColor=default;fontSize=16;fontColor=default;strokeColor=default;strokeWidth=2;fillColor=default;" parent="WIyWlLk6GJQsqaUBKTNV-1" edge="1">
          <mxGeometry width="50" height="50" relative="1" as="geometry">
            <mxPoint x="608" y="418" as="sourcePoint" />
            <mxPoint x="608" y="388" as="targetPoint" />
          </mxGeometry>
        </mxCell>
        <mxCell id="8WQcC468DqVq79VYUEjq-250" value="" style="line;strokeWidth=2;html=1;fontSize=16;fontColor=default;fillColor=default;strokeColor=default;" parent="WIyWlLk6GJQsqaUBKTNV-1" vertex="1">
          <mxGeometry x="689.36" y="348" width="21.64" height="10" as="geometry" />
        </mxCell>
        <mxCell id="8WQcC468DqVq79VYUEjq-251" value="" style="endArrow=none;html=1;rounded=0;labelBackgroundColor=default;fontSize=16;fontColor=default;strokeColor=default;strokeWidth=2;fillColor=default;" parent="WIyWlLk6GJQsqaUBKTNV-1" edge="1">
          <mxGeometry width="50" height="50" relative="1" as="geometry">
            <mxPoint x="451" y="478" as="sourcePoint" />
            <mxPoint x="711" y="478" as="targetPoint" />
          </mxGeometry>
        </mxCell>
        <mxCell id="8WQcC468DqVq79VYUEjq-252" value="" style="endArrow=none;html=1;rounded=0;labelBackgroundColor=default;fontSize=16;fontColor=default;strokeColor=default;strokeWidth=2;fillColor=default;entryX=0.475;entryY=0.425;entryDx=0;entryDy=0;entryPerimeter=0;" parent="WIyWlLk6GJQsqaUBKTNV-1" edge="1">
          <mxGeometry width="50" height="50" relative="1" as="geometry">
            <mxPoint x="451" y="478" as="sourcePoint" />
            <mxPoint x="451" y="283" as="targetPoint" />
          </mxGeometry>
        </mxCell>
        <mxCell id="8WQcC468DqVq79VYUEjq-253" value="" style="endArrow=none;html=1;rounded=0;labelBackgroundColor=default;fontSize=16;fontColor=default;strokeColor=default;strokeWidth=2;fillColor=default;" parent="WIyWlLk6GJQsqaUBKTNV-1" edge="1">
          <mxGeometry width="50" height="50" relative="1" as="geometry">
            <mxPoint x="608" y="318" as="sourcePoint" />
            <mxPoint x="608" y="298" as="targetPoint" />
          </mxGeometry>
        </mxCell>
        <mxCell id="8WQcC468DqVq79VYUEjq-254" value="" style="endArrow=none;html=1;rounded=0;labelBackgroundColor=default;fontSize=16;fontColor=default;strokeColor=default;strokeWidth=2;fillColor=default;" parent="WIyWlLk6GJQsqaUBKTNV-1" edge="1">
          <mxGeometry width="50" height="50" relative="1" as="geometry">
            <mxPoint x="608" y="478" as="sourcePoint" />
            <mxPoint x="607.5699999999997" y="458" as="targetPoint" />
          </mxGeometry>
        </mxCell>
        <mxCell id="8WQcC468DqVq79VYUEjq-255" value="" style="endArrow=classic;html=1;rounded=0;labelBackgroundColor=default;fontSize=16;fontColor=default;strokeColor=default;strokeWidth=2;fillColor=default;startArrow=none;" parent="WIyWlLk6GJQsqaUBKTNV-1" edge="1">
          <mxGeometry width="50" height="50" relative="1" as="geometry">
            <mxPoint x="451" y="283" as="sourcePoint" />
            <mxPoint x="511" y="282.5" as="targetPoint" />
          </mxGeometry>
        </mxCell>
        <mxCell id="8WQcC468DqVq79VYUEjq-256" value="" style="endArrow=none;html=1;rounded=0;labelBackgroundColor=default;fontSize=16;fontColor=default;strokeColor=default;strokeWidth=2;fillColor=default;" parent="WIyWlLk6GJQsqaUBKTNV-1" edge="1">
          <mxGeometry width="50" height="50" relative="1" as="geometry">
            <mxPoint x="451" y="283" as="sourcePoint" />
            <mxPoint x="451" y="283" as="targetPoint" />
          </mxGeometry>
        </mxCell>
        <mxCell id="8WQcC468DqVq79VYUEjq-257" value="" style="line;strokeWidth=2;html=1;fontSize=16;fontColor=default;fillColor=default;strokeColor=default;" parent="WIyWlLk6GJQsqaUBKTNV-1" vertex="1">
          <mxGeometry x="709.3199999999999" y="278" width="21.68" height="10" as="geometry" />
        </mxCell>
        <mxCell id="8WQcC468DqVq79VYUEjq-258" value="" style="endArrow=none;html=1;rounded=0;labelBackgroundColor=default;fontSize=16;fontColor=default;strokeColor=default;strokeWidth=2;fillColor=default;" parent="WIyWlLk6GJQsqaUBKTNV-1" edge="1">
          <mxGeometry width="50" height="50" relative="1" as="geometry">
            <mxPoint x="731" y="398" as="sourcePoint" />
            <mxPoint x="731" y="283" as="targetPoint" />
          </mxGeometry>
        </mxCell>
        <mxCell id="8WQcC468DqVq79VYUEjq-259" value="" style="endArrow=none;html=1;rounded=0;labelBackgroundColor=default;fontSize=16;fontColor=default;strokeColor=default;strokeWidth=2;fillColor=default;" parent="WIyWlLk6GJQsqaUBKTNV-1" edge="1">
          <mxGeometry width="50" height="50" relative="1" as="geometry">
            <mxPoint x="711" y="478" as="sourcePoint" />
            <mxPoint x="711" y="353" as="targetPoint" />
          </mxGeometry>
        </mxCell>
        <mxCell id="8WQcC468DqVq79VYUEjq-260" value="" style="endArrow=none;html=1;rounded=0;labelBackgroundColor=default;fontSize=16;fontColor=default;strokeColor=default;strokeWidth=2;fillColor=default;" parent="WIyWlLk6GJQsqaUBKTNV-1" edge="1">
          <mxGeometry width="50" height="50" relative="1" as="geometry">
            <mxPoint x="731" y="498" as="sourcePoint" />
            <mxPoint x="731" y="393" as="targetPoint" />
          </mxGeometry>
        </mxCell>
        <mxCell id="8WQcC468DqVq79VYUEjq-261" value="" style="endArrow=none;html=1;rounded=0;labelBackgroundColor=default;fontSize=16;fontColor=default;strokeColor=default;strokeWidth=2;fillColor=default;" parent="WIyWlLk6GJQsqaUBKTNV-1" edge="1">
          <mxGeometry width="50" height="50" relative="1" as="geometry">
            <mxPoint x="431" y="498" as="sourcePoint" />
            <mxPoint x="731" y="498" as="targetPoint" />
          </mxGeometry>
        </mxCell>
        <mxCell id="8WQcC468DqVq79VYUEjq-262" value="" style="endArrow=none;html=1;rounded=0;labelBackgroundColor=default;fontSize=16;fontColor=default;strokeColor=default;strokeWidth=2;fillColor=default;entryX=0.475;entryY=0.4;entryDx=0;entryDy=0;entryPerimeter=0;" parent="WIyWlLk6GJQsqaUBKTNV-1" edge="1">
          <mxGeometry width="50" height="50" relative="1" as="geometry">
            <mxPoint x="431" y="498" as="sourcePoint" />
            <mxPoint x="431" y="233" as="targetPoint" />
          </mxGeometry>
        </mxCell>
        <mxCell id="8WQcC468DqVq79VYUEjq-263" value="" style="endArrow=classic;html=1;rounded=0;labelBackgroundColor=default;fontSize=16;fontColor=default;strokeColor=default;strokeWidth=2;fillColor=default;" parent="WIyWlLk6GJQsqaUBKTNV-1" edge="1">
          <mxGeometry width="50" height="50" relative="1" as="geometry">
            <mxPoint x="431" y="233" as="sourcePoint" />
            <mxPoint x="511" y="232.5" as="targetPoint" />
          </mxGeometry>
        </mxCell>
        <mxCell id="8WQcC468DqVq79VYUEjq-264" value="" style="line;strokeWidth=2;html=1;fontSize=16;fontColor=default;fillColor=default;strokeColor=default;" parent="WIyWlLk6GJQsqaUBKTNV-1" vertex="1">
          <mxGeometry x="709.3199999999999" y="228" width="41.68" height="10" as="geometry" />
        </mxCell>
        <mxCell id="8WQcC468DqVq79VYUEjq-265" value="" style="endArrow=none;html=1;rounded=0;labelBackgroundColor=default;fontSize=16;fontColor=default;strokeColor=default;strokeWidth=2;fillColor=default;" parent="WIyWlLk6GJQsqaUBKTNV-1" edge="1">
          <mxGeometry width="50" height="50" relative="1" as="geometry">
            <mxPoint x="751" y="518" as="sourcePoint" />
            <mxPoint x="751" y="233" as="targetPoint" />
          </mxGeometry>
        </mxCell>
        <mxCell id="8WQcC468DqVq79VYUEjq-266" value="" style="endArrow=none;html=1;rounded=0;labelBackgroundColor=default;fontSize=16;fontColor=default;strokeColor=default;strokeWidth=2;fillColor=default;exitX=0.598;exitY=0.55;exitDx=0;exitDy=0;exitPerimeter=0;" parent="WIyWlLk6GJQsqaUBKTNV-1" edge="1">
          <mxGeometry width="50" height="50" relative="1" as="geometry">
            <mxPoint x="608.0699999999997" y="518" as="sourcePoint" />
            <mxPoint x="751" y="518" as="targetPoint" />
          </mxGeometry>
        </mxCell>
        <mxCell id="8WQcC468DqVq79VYUEjq-267" value="" style="endArrow=none;html=1;rounded=0;labelBackgroundColor=default;fontSize=16;fontColor=default;strokeColor=default;strokeWidth=2;fillColor=default;" parent="WIyWlLk6GJQsqaUBKTNV-1" edge="1">
          <mxGeometry width="50" height="50" relative="1" as="geometry">
            <mxPoint x="608" y="538" as="sourcePoint" />
            <mxPoint x="607.5699999999997" y="518" as="targetPoint" />
          </mxGeometry>
        </mxCell>
        <mxCell id="8WQcC468DqVq79VYUEjq-268" value="&lt;font style=&quot;font-size: 15px&quot;&gt;counter = 0&lt;br&gt;rowindex = 0&lt;br&gt;colindex = 0&lt;/font&gt;" style="rounded=0;whiteSpace=wrap;html=1;fontColor=default;strokeColor=default;fillColor=default;" parent="WIyWlLk6GJQsqaUBKTNV-1" vertex="1">
          <mxGeometry x="548.0699999999999" y="528" width="120" height="60" as="geometry" />
        </mxCell>
        <mxCell id="8WQcC468DqVq79VYUEjq-269" value="&lt;font style=&quot;font-size: 18px&quot;&gt;i = 0; i &amp;lt; row; i++&lt;/font&gt;" style="shape=hexagon;perimeter=hexagonPerimeter2;whiteSpace=wrap;html=1;fixedSize=1;fontSize=22;fontColor=default;strokeColor=default;fillColor=default;" parent="WIyWlLk6GJQsqaUBKTNV-1" vertex="1">
          <mxGeometry x="506.81999999999994" y="608" width="202.5" height="30" as="geometry" />
        </mxCell>
        <mxCell id="8WQcC468DqVq79VYUEjq-271" value="&lt;font style=&quot;font-size: 18px&quot;&gt;j = 0; j &amp;lt; col; j++&lt;/font&gt;" style="shape=hexagon;perimeter=hexagonPerimeter2;whiteSpace=wrap;html=1;fixedSize=1;fontSize=22;fontColor=default;strokeColor=default;fillColor=default;" parent="WIyWlLk6GJQsqaUBKTNV-1" vertex="1">
          <mxGeometry x="506.81999999999994" y="658" width="202.5" height="30" as="geometry" />
        </mxCell>
        <mxCell id="8WQcC468DqVq79VYUEjq-272" value="" style="endArrow=none;html=1;rounded=0;fontSize=15;fontColor=default;strokeColor=default;fillColor=default;labelBackgroundColor=default;endSize=6;strokeWidth=2;" parent="WIyWlLk6GJQsqaUBKTNV-1" edge="1">
          <mxGeometry width="50" height="50" relative="1" as="geometry">
            <mxPoint x="608" y="608" as="sourcePoint" />
            <mxPoint x="608" y="588" as="targetPoint" />
          </mxGeometry>
        </mxCell>
        <mxCell id="8WQcC468DqVq79VYUEjq-274" value="&lt;font style=&quot;font-size: 17px&quot;&gt;X[ i ][ j ] == max&amp;nbsp;&lt;/font&gt;" style="rhombus;whiteSpace=wrap;html=1;fontSize=19;fontColor=default;strokeColor=default;fillColor=default;" parent="WIyWlLk6GJQsqaUBKTNV-1" vertex="1">
          <mxGeometry x="525.5699999999999" y="708" width="165.86" height="70" as="geometry" />
        </mxCell>
        <mxCell id="8WQcC468DqVq79VYUEjq-275" value="" style="endArrow=none;html=1;rounded=0;labelBackgroundColor=default;fontSize=15;fontColor=default;endSize=6;strokeColor=default;strokeWidth=2;fillColor=default;" parent="WIyWlLk6GJQsqaUBKTNV-1" edge="1">
          <mxGeometry width="50" height="50" relative="1" as="geometry">
            <mxPoint x="608" y="708" as="sourcePoint" />
            <mxPoint x="608" y="688" as="targetPoint" />
          </mxGeometry>
        </mxCell>
        <mxCell id="8WQcC468DqVq79VYUEjq-276" value="" style="endArrow=none;html=1;rounded=0;labelBackgroundColor=default;fontSize=15;fontColor=default;endSize=6;strokeColor=default;strokeWidth=2;fillColor=default;" parent="WIyWlLk6GJQsqaUBKTNV-1" edge="1">
          <mxGeometry width="50" height="50" relative="1" as="geometry">
            <mxPoint x="608" y="808" as="sourcePoint" />
            <mxPoint x="607.5699999999997" y="778" as="targetPoint" />
          </mxGeometry>
        </mxCell>
        <mxCell id="8WQcC468DqVq79VYUEjq-277" value="&lt;font style=&quot;font-size: 15px&quot;&gt;counter ++&lt;br&gt;rowindex = i&lt;br&gt;colindex = j&lt;/font&gt;" style="rounded=0;whiteSpace=wrap;html=1;fontColor=default;strokeColor=default;fillColor=default;" parent="WIyWlLk6GJQsqaUBKTNV-1" vertex="1">
          <mxGeometry x="548.0699999999999" y="808" width="120" height="60" as="geometry" />
        </mxCell>
        <mxCell id="8WQcC468DqVq79VYUEjq-278" value="" style="line;strokeWidth=2;html=1;fontSize=15;fontColor=default;fillColor=default;strokeColor=default;labelBackgroundColor=default;" parent="WIyWlLk6GJQsqaUBKTNV-1" vertex="1">
          <mxGeometry x="691.4300000000001" y="738" width="19.57" height="10" as="geometry" />
        </mxCell>
        <mxCell id="8WQcC468DqVq79VYUEjq-279" value="" style="endArrow=none;html=1;rounded=0;labelBackgroundColor=default;fontSize=15;fontColor=default;endSize=6;strokeColor=default;strokeWidth=2;fillColor=default;entryX=0.514;entryY=0.625;entryDx=0;entryDy=0;entryPerimeter=0;" parent="WIyWlLk6GJQsqaUBKTNV-1" edge="1">
          <mxGeometry width="50" height="50" relative="1" as="geometry">
            <mxPoint x="711" y="888" as="sourcePoint" />
            <mxPoint x="711.4300000000003" y="743" as="targetPoint" />
          </mxGeometry>
        </mxCell>
        <mxCell id="8WQcC468DqVq79VYUEjq-280" value="" style="endArrow=none;html=1;rounded=0;labelBackgroundColor=default;fontSize=15;fontColor=default;endSize=6;strokeColor=default;strokeWidth=2;fillColor=default;" parent="WIyWlLk6GJQsqaUBKTNV-1" edge="1">
          <mxGeometry width="50" height="50" relative="1" as="geometry">
            <mxPoint x="451" y="888" as="sourcePoint" />
            <mxPoint x="709.75" y="888" as="targetPoint" />
          </mxGeometry>
        </mxCell>
        <mxCell id="8WQcC468DqVq79VYUEjq-281" value="" style="endArrow=none;html=1;rounded=0;labelBackgroundColor=default;fontSize=15;fontColor=default;endSize=6;strokeColor=default;strokeWidth=2;fillColor=default;" parent="WIyWlLk6GJQsqaUBKTNV-1" edge="1">
          <mxGeometry width="50" height="50" relative="1" as="geometry">
            <mxPoint x="608" y="888" as="sourcePoint" />
            <mxPoint x="607.5699999999997" y="868" as="targetPoint" />
          </mxGeometry>
        </mxCell>
        <mxCell id="8WQcC468DqVq79VYUEjq-282" value="" style="endArrow=none;html=1;rounded=0;labelBackgroundColor=default;fontSize=15;fontColor=default;endSize=6;strokeColor=default;strokeWidth=2;fillColor=default;entryX=0.475;entryY=0.4;entryDx=0;entryDy=0;entryPerimeter=0;" parent="WIyWlLk6GJQsqaUBKTNV-1" edge="1">
          <mxGeometry width="50" height="50" relative="1" as="geometry">
            <mxPoint x="451" y="888" as="sourcePoint" />
            <mxPoint x="451" y="673" as="targetPoint" />
          </mxGeometry>
        </mxCell>
        <mxCell id="8WQcC468DqVq79VYUEjq-283" value="" style="endArrow=classic;html=1;rounded=0;labelBackgroundColor=default;fontSize=15;fontColor=default;endSize=6;strokeColor=default;strokeWidth=2;fillColor=default;startArrow=none;" parent="WIyWlLk6GJQsqaUBKTNV-1" edge="1">
          <mxGeometry width="50" height="50" relative="1" as="geometry">
            <mxPoint x="451" y="673" as="sourcePoint" />
            <mxPoint x="511" y="672.5" as="targetPoint" />
          </mxGeometry>
        </mxCell>
        <mxCell id="8WQcC468DqVq79VYUEjq-284" value="" style="endArrow=none;html=1;rounded=0;labelBackgroundColor=default;fontSize=15;fontColor=default;endSize=6;strokeColor=default;strokeWidth=2;fillColor=default;" parent="WIyWlLk6GJQsqaUBKTNV-1" edge="1">
          <mxGeometry width="50" height="50" relative="1" as="geometry">
            <mxPoint x="451" y="673" as="sourcePoint" />
            <mxPoint x="451" y="673" as="targetPoint" />
          </mxGeometry>
        </mxCell>
        <mxCell id="8WQcC468DqVq79VYUEjq-285" value="" style="line;strokeWidth=2;html=1;labelBackgroundColor=default;fontSize=15;fontColor=default;fillColor=default;strokeColor=default;" parent="WIyWlLk6GJQsqaUBKTNV-1" vertex="1">
          <mxGeometry x="709.75" y="668" width="21.25" height="10" as="geometry" />
        </mxCell>
        <mxCell id="8WQcC468DqVq79VYUEjq-286" value="" style="endArrow=none;html=1;rounded=0;labelBackgroundColor=default;fontSize=15;fontColor=default;endSize=6;strokeColor=default;strokeWidth=2;fillColor=default;entryX=0.542;entryY=0.45;entryDx=0;entryDy=0;entryPerimeter=0;" parent="WIyWlLk6GJQsqaUBKTNV-1" edge="1">
          <mxGeometry width="50" height="50" relative="1" as="geometry">
            <mxPoint x="729" y="908" as="sourcePoint" />
            <mxPoint x="729.3199999999997" y="673" as="targetPoint" />
          </mxGeometry>
        </mxCell>
        <mxCell id="8WQcC468DqVq79VYUEjq-287" value="" style="endArrow=none;html=1;rounded=0;labelBackgroundColor=default;fontSize=15;fontColor=default;endSize=6;strokeColor=default;strokeWidth=2;fillColor=default;" parent="WIyWlLk6GJQsqaUBKTNV-1" edge="1">
          <mxGeometry width="50" height="50" relative="1" as="geometry">
            <mxPoint x="431" y="908" as="sourcePoint" />
            <mxPoint x="729.3200000000002" y="908" as="targetPoint" />
          </mxGeometry>
        </mxCell>
        <mxCell id="8WQcC468DqVq79VYUEjq-288" value="" style="endArrow=none;html=1;rounded=0;labelBackgroundColor=default;fontSize=15;fontColor=default;endSize=6;strokeColor=default;strokeWidth=2;fillColor=default;entryX=0.5;entryY=0.375;entryDx=0;entryDy=0;entryPerimeter=0;" parent="WIyWlLk6GJQsqaUBKTNV-1" edge="1">
          <mxGeometry width="50" height="50" relative="1" as="geometry">
            <mxPoint x="431" y="908" as="sourcePoint" />
            <mxPoint x="431" y="623" as="targetPoint" />
          </mxGeometry>
        </mxCell>
        <mxCell id="8WQcC468DqVq79VYUEjq-289" value="" style="endArrow=classic;html=1;rounded=0;labelBackgroundColor=default;fontSize=15;fontColor=default;endSize=6;strokeColor=default;strokeWidth=2;fillColor=default;" parent="WIyWlLk6GJQsqaUBKTNV-1" edge="1">
          <mxGeometry width="50" height="50" relative="1" as="geometry">
            <mxPoint x="431" y="622.5" as="sourcePoint" />
            <mxPoint x="511" y="622.5" as="targetPoint" />
          </mxGeometry>
        </mxCell>
        <mxCell id="8WQcC468DqVq79VYUEjq-290" value="" style="line;strokeWidth=2;html=1;labelBackgroundColor=default;fontSize=15;fontColor=default;fillColor=default;strokeColor=default;" parent="WIyWlLk6GJQsqaUBKTNV-1" vertex="1">
          <mxGeometry x="709.32" y="618" width="41.68" height="10" as="geometry" />
        </mxCell>
        <mxCell id="8WQcC468DqVq79VYUEjq-291" value="" style="endArrow=none;html=1;rounded=0;labelBackgroundColor=default;fontSize=15;fontColor=default;endSize=6;strokeColor=default;strokeWidth=2;fillColor=default;" parent="WIyWlLk6GJQsqaUBKTNV-1" edge="1">
          <mxGeometry width="50" height="50" relative="1" as="geometry">
            <mxPoint x="751" y="928" as="sourcePoint" />
            <mxPoint x="751" y="623" as="targetPoint" />
          </mxGeometry>
        </mxCell>
        <mxCell id="8WQcC468DqVq79VYUEjq-292" value="" style="endArrow=none;html=1;rounded=0;labelBackgroundColor=default;fontSize=15;fontColor=default;endSize=6;strokeColor=default;strokeWidth=2;fillColor=default;" parent="WIyWlLk6GJQsqaUBKTNV-1" edge="1">
          <mxGeometry width="50" height="50" relative="1" as="geometry">
            <mxPoint x="608.0699999999997" y="928" as="sourcePoint" />
            <mxPoint x="751" y="928" as="targetPoint" />
          </mxGeometry>
        </mxCell>
        <mxCell id="8WQcC468DqVq79VYUEjq-293" value="" style="endArrow=none;html=1;rounded=0;labelBackgroundColor=default;fontSize=15;fontColor=default;endSize=6;strokeColor=default;strokeWidth=2;fillColor=default;startArrow=none;" parent="WIyWlLk6GJQsqaUBKTNV-1" edge="1">
          <mxGeometry width="50" height="50" relative="1" as="geometry">
            <mxPoint x="608.0699999999997" y="928" as="sourcePoint" />
            <mxPoint x="608.0699999999997" y="928" as="targetPoint" />
          </mxGeometry>
        </mxCell>
        <mxCell id="8WQcC468DqVq79VYUEjq-294" value="" style="endArrow=none;html=1;rounded=0;labelBackgroundColor=default;fontSize=15;fontColor=default;endSize=6;strokeColor=default;strokeWidth=2;fillColor=default;" parent="WIyWlLk6GJQsqaUBKTNV-1" edge="1">
          <mxGeometry width="50" height="50" relative="1" as="geometry">
            <mxPoint x="608" y="958" as="sourcePoint" />
            <mxPoint x="608.0699999999997" y="928" as="targetPoint" />
          </mxGeometry>
        </mxCell>
        <mxCell id="8WQcC468DqVq79VYUEjq-295" value="&lt;font style=&quot;font-size: 17px&quot;&gt;counter &lt;/font&gt;&lt;font style=&quot;font-size: 20px&quot;&gt;!&lt;/font&gt;&lt;font style=&quot;font-size: 17px&quot;&gt;= 1&lt;/font&gt;" style="rhombus;whiteSpace=wrap;html=1;fontSize=19;fontColor=default;strokeColor=default;fillColor=default;" parent="WIyWlLk6GJQsqaUBKTNV-1" vertex="1">
          <mxGeometry x="525.14" y="948" width="165.86" height="70" as="geometry" />
        </mxCell>
        <mxCell id="8WQcC468DqVq79VYUEjq-296" value="" style="endArrow=none;html=1;rounded=0;labelBackgroundColor=default;fontSize=15;fontColor=default;endSize=6;strokeColor=default;strokeWidth=2;fillColor=default;exitX=0.5;exitY=0.425;exitDx=0;exitDy=0;exitPerimeter=0;" parent="WIyWlLk6GJQsqaUBKTNV-1" edge="1">
          <mxGeometry width="50" height="50" relative="1" as="geometry">
            <mxPoint x="311" y="472" as="sourcePoint" />
            <mxPoint x="311" y="128" as="targetPoint" />
          </mxGeometry>
        </mxCell>
        <mxCell id="8WQcC468DqVq79VYUEjq-297" value="" style="endArrow=none;html=1;rounded=0;labelBackgroundColor=default;fontSize=15;fontColor=default;endSize=6;strokeColor=default;strokeWidth=2;fillColor=default;entryX=0.5;entryY=1;entryDx=0;entryDy=0;startArrow=none;" parent="WIyWlLk6GJQsqaUBKTNV-1" edge="1">
          <mxGeometry width="50" height="50" relative="1" as="geometry">
            <mxPoint x="608.5" y="128" as="sourcePoint" />
            <mxPoint x="606" y="128" as="targetPoint" />
          </mxGeometry>
        </mxCell>
        <mxCell id="8WQcC468DqVq79VYUEjq-298" value="" style="line;strokeWidth=2;html=1;labelBackgroundColor=default;fontSize=15;fontColor=default;fillColor=default;strokeColor=default;" parent="WIyWlLk6GJQsqaUBKTNV-1" vertex="1">
          <mxGeometry x="-29" y="978" width="554.57" height="10" as="geometry" />
        </mxCell>
        <mxCell id="8WQcC468DqVq79VYUEjq-299" value="" style="endArrow=none;html=1;rounded=0;labelBackgroundColor=default;fontSize=15;fontColor=default;endSize=6;strokeColor=default;strokeWidth=2;fillColor=default;exitX=0.425;exitY=0.425;exitDx=0;exitDy=0;exitPerimeter=0;" parent="WIyWlLk6GJQsqaUBKTNV-1" edge="1">
          <mxGeometry width="50" height="50" relative="1" as="geometry">
            <mxPoint x="-29" y="983" as="sourcePoint" />
            <mxPoint x="-29" y="448" as="targetPoint" />
          </mxGeometry>
        </mxCell>
        <mxCell id="8WQcC468DqVq79VYUEjq-300" value="" style="endArrow=classic;html=1;rounded=0;labelBackgroundColor=default;fontSize=15;fontColor=default;endSize=6;strokeColor=default;strokeWidth=2;fillColor=default;startArrow=none;" parent="WIyWlLk6GJQsqaUBKTNV-1" edge="1">
          <mxGeometry width="50" height="50" relative="1" as="geometry">
            <mxPoint x="-29" y="448" as="sourcePoint" />
            <mxPoint x="171" y="447.5" as="targetPoint" />
          </mxGeometry>
        </mxCell>
        <mxCell id="8WQcC468DqVq79VYUEjq-301" value="" style="endArrow=none;html=1;rounded=0;labelBackgroundColor=default;fontSize=16;fontColor=default;strokeColor=default;strokeWidth=2;fillColor=default;" parent="WIyWlLk6GJQsqaUBKTNV-1" edge="1">
          <mxGeometry width="50" height="50" relative="1" as="geometry">
            <mxPoint x="269.75" y="471.5" as="sourcePoint" />
            <mxPoint x="311.42999999999984" y="472" as="targetPoint" />
          </mxGeometry>
        </mxCell>
        <mxCell id="8WQcC468DqVq79VYUEjq-302" value="" style="endArrow=none;html=1;rounded=0;labelBackgroundColor=default;fontSize=20;fontColor=default;endSize=6;strokeColor=default;strokeWidth=2;fillColor=default;" parent="WIyWlLk6GJQsqaUBKTNV-1" edge="1">
          <mxGeometry width="50" height="50" relative="1" as="geometry">
            <mxPoint x="168" y="458" as="sourcePoint" />
            <mxPoint x="168" y="427" as="targetPoint" />
          </mxGeometry>
        </mxCell>
        <mxCell id="8WQcC468DqVq79VYUEjq-303" value="" style="endArrow=none;html=1;rounded=0;labelBackgroundColor=default;fontSize=15;fontColor=default;endSize=6;strokeColor=default;strokeWidth=2;fillColor=default;" parent="WIyWlLk6GJQsqaUBKTNV-1" edge="1">
          <mxGeometry width="50" height="50" relative="1" as="geometry">
            <mxPoint x="-29" y="447" as="sourcePoint" />
            <mxPoint x="-29" y="448" as="targetPoint" />
          </mxGeometry>
        </mxCell>
        <mxCell id="8WQcC468DqVq79VYUEjq-304" value="A" style="ellipse;shape=doubleEllipse;whiteSpace=wrap;html=1;aspect=fixed;labelBackgroundColor=default;fontSize=20;fontColor=default;strokeColor=default;fillColor=default;" parent="WIyWlLk6GJQsqaUBKTNV-1" vertex="1">
          <mxGeometry x="588.5" y="1038" width="40" height="40" as="geometry" />
        </mxCell>
        <mxCell id="8WQcC468DqVq79VYUEjq-305" value="" style="endArrow=none;html=1;rounded=0;labelBackgroundColor=default;fontSize=20;fontColor=default;endSize=6;strokeColor=default;strokeWidth=2;fillColor=default;" parent="WIyWlLk6GJQsqaUBKTNV-1" edge="1">
          <mxGeometry width="50" height="50" relative="1" as="geometry">
            <mxPoint x="608" y="1038" as="sourcePoint" />
            <mxPoint x="608" y="1018" as="targetPoint" />
          </mxGeometry>
        </mxCell>
        <mxCell id="8WQcC468DqVq79VYUEjq-306" value="" style="shape=curlyBracket;whiteSpace=wrap;html=1;rounded=1;labelBackgroundColor=default;fontSize=20;fontColor=default;strokeColor=default;fillColor=default;" parent="WIyWlLk6GJQsqaUBKTNV-1" vertex="1">
          <mxGeometry x="-69" y="128" width="20" height="290" as="geometry" />
        </mxCell>
        <mxCell id="8WQcC468DqVq79VYUEjq-307" value="1" style="ellipse;whiteSpace=wrap;html=1;aspect=fixed;labelBackgroundColor=default;fontSize=20;fontColor=default;strokeColor=default;fillColor=default;" parent="WIyWlLk6GJQsqaUBKTNV-1" vertex="1">
          <mxGeometry x="-109" y="255.5" width="35" height="35" as="geometry" />
        </mxCell>
        <mxCell id="8WQcC468DqVq79VYUEjq-308" value="" style="shape=curlyBracket;whiteSpace=wrap;html=1;rounded=1;labelBackgroundColor=default;fontSize=20;fontColor=default;strokeColor=default;fillColor=default;" parent="WIyWlLk6GJQsqaUBKTNV-1" vertex="1">
          <mxGeometry x="-69" y="438" width="20" height="290" as="geometry" />
        </mxCell>
        <mxCell id="8WQcC468DqVq79VYUEjq-309" value="2" style="ellipse;whiteSpace=wrap;html=1;aspect=fixed;labelBackgroundColor=default;fontSize=20;fontColor=default;strokeColor=default;fillColor=default;" parent="WIyWlLk6GJQsqaUBKTNV-1" vertex="1">
          <mxGeometry x="-109" y="565.5" width="35" height="35" as="geometry" />
        </mxCell>
        <mxCell id="8WQcC468DqVq79VYUEjq-310" value="" style="shape=curlyBracket;whiteSpace=wrap;html=1;rounded=1;flipH=1;labelBackgroundColor=default;fontSize=20;fontColor=default;strokeColor=default;fillColor=default;" parent="WIyWlLk6GJQsqaUBKTNV-1" vertex="1">
          <mxGeometry x="781" y="158" width="20" height="340" as="geometry" />
        </mxCell>
        <mxCell id="8WQcC468DqVq79VYUEjq-311" value="3" style="ellipse;whiteSpace=wrap;html=1;aspect=fixed;labelBackgroundColor=default;fontSize=20;fontColor=default;strokeColor=default;fillColor=default;" parent="WIyWlLk6GJQsqaUBKTNV-1" vertex="1">
          <mxGeometry x="811" y="310.5" width="35" height="35" as="geometry" />
        </mxCell>
        <mxCell id="8WQcC468DqVq79VYUEjq-312" value="" style="shape=curlyBracket;whiteSpace=wrap;html=1;rounded=1;flipH=1;labelBackgroundColor=default;fontSize=20;fontColor=default;strokeColor=default;fillColor=default;" parent="WIyWlLk6GJQsqaUBKTNV-1" vertex="1">
          <mxGeometry x="781" y="518" width="20" height="390" as="geometry" />
        </mxCell>
        <mxCell id="8WQcC468DqVq79VYUEjq-313" value="4" style="ellipse;whiteSpace=wrap;html=1;aspect=fixed;labelBackgroundColor=default;fontSize=20;fontColor=default;strokeColor=default;fillColor=default;" parent="WIyWlLk6GJQsqaUBKTNV-1" vertex="1">
          <mxGeometry x="811" y="695.5" width="35" height="35" as="geometry" />
        </mxCell>
        <mxCell id="8WQcC468DqVq79VYUEjq-314" value="" style="shape=curlyBracket;whiteSpace=wrap;html=1;rounded=1;flipH=1;labelBackgroundColor=default;fontSize=20;fontColor=default;strokeColor=default;fillColor=default;" parent="WIyWlLk6GJQsqaUBKTNV-1" vertex="1">
          <mxGeometry x="781" y="938" width="20" height="90" as="geometry" />
        </mxCell>
        <mxCell id="8WQcC468DqVq79VYUEjq-315" value="5" style="ellipse;whiteSpace=wrap;html=1;aspect=fixed;labelBackgroundColor=default;fontSize=20;fontColor=default;strokeColor=default;fillColor=default;" parent="WIyWlLk6GJQsqaUBKTNV-1" vertex="1">
          <mxGeometry x="811" y="965.5" width="35" height="35" as="geometry" />
        </mxCell>
        <mxCell id="8WQcC468DqVq79VYUEjq-316" value="&lt;font style=&quot;font-size: 19px&quot;&gt;+&lt;/font&gt;" style="text;html=1;align=center;verticalAlign=middle;resizable=0;points=[];autosize=1;strokeColor=none;fillColor=none;" parent="WIyWlLk6GJQsqaUBKTNV-1" vertex="1">
          <mxGeometry x="73" y="221" width="21" height="20" as="geometry" />
        </mxCell>
        <mxCell id="8WQcC468DqVq79VYUEjq-317" value="-" style="text;html=1;align=center;verticalAlign=middle;resizable=0;points=[];autosize=1;strokeColor=none;fillColor=none;fontSize=19;" parent="WIyWlLk6GJQsqaUBKTNV-1" vertex="1">
          <mxGeometry x="171" y="271" width="16" height="27" as="geometry" />
        </mxCell>
        <mxCell id="8WQcC468DqVq79VYUEjq-318" value="&lt;font style=&quot;font-size: 19px&quot;&gt;+&lt;/font&gt;" style="text;html=1;align=center;verticalAlign=middle;resizable=0;points=[];autosize=1;strokeColor=none;fillColor=none;" parent="WIyWlLk6GJQsqaUBKTNV-1" vertex="1">
          <mxGeometry x="73" y="371" width="21" height="20" as="geometry" />
        </mxCell>
        <mxCell id="8WQcC468DqVq79VYUEjq-319" value="-" style="text;html=1;align=center;verticalAlign=middle;resizable=0;points=[];autosize=1;strokeColor=none;fillColor=none;fontSize=19;" parent="WIyWlLk6GJQsqaUBKTNV-1" vertex="1">
          <mxGeometry x="173" y="418" width="16" height="27" as="geometry" />
        </mxCell>
        <mxCell id="8WQcC468DqVq79VYUEjq-320" value="+" style="text;html=1;align=center;verticalAlign=middle;resizable=0;points=[];autosize=1;strokeColor=none;fillColor=none;fontSize=19;" parent="WIyWlLk6GJQsqaUBKTNV-1" vertex="1">
          <mxGeometry x="73" y="616" width="21" height="27" as="geometry" />
        </mxCell>
        <mxCell id="8WQcC468DqVq79VYUEjq-321" value="-" style="text;html=1;align=center;verticalAlign=middle;resizable=0;points=[];autosize=1;strokeColor=none;fillColor=none;fontSize=19;" parent="WIyWlLk6GJQsqaUBKTNV-1" vertex="1">
          <mxGeometry x="171" y="668" width="16" height="27" as="geometry" />
        </mxCell>
        <mxCell id="8WQcC468DqVq79VYUEjq-322" value="-" style="text;html=1;align=center;verticalAlign=middle;resizable=0;points=[];autosize=1;strokeColor=none;fillColor=none;fontSize=19;" parent="WIyWlLk6GJQsqaUBKTNV-1" vertex="1">
          <mxGeometry x="689.32" y="331" width="16" height="27" as="geometry" />
        </mxCell>
        <mxCell id="8WQcC468DqVq79VYUEjq-323" value="+" style="text;html=1;align=center;verticalAlign=middle;resizable=0;points=[];autosize=1;strokeColor=none;fillColor=none;fontSize=19;" parent="WIyWlLk6GJQsqaUBKTNV-1" vertex="1">
          <mxGeometry x="587.5" y="383" width="21" height="27" as="geometry" />
        </mxCell>
        <mxCell id="8WQcC468DqVq79VYUEjq-324" value="-" style="text;html=1;align=center;verticalAlign=middle;resizable=0;points=[];autosize=1;strokeColor=none;fillColor=none;fontSize=19;" parent="WIyWlLk6GJQsqaUBKTNV-1" vertex="1">
          <mxGeometry x="689.32" y="719" width="16" height="27" as="geometry" />
        </mxCell>
        <mxCell id="8WQcC468DqVq79VYUEjq-325" value="+" style="text;html=1;align=center;verticalAlign=middle;resizable=0;points=[];autosize=1;strokeColor=none;fillColor=none;fontSize=19;" parent="WIyWlLk6GJQsqaUBKTNV-1" vertex="1">
          <mxGeometry x="587.5" y="773" width="21" height="27" as="geometry" />
        </mxCell>
        <mxCell id="8WQcC468DqVq79VYUEjq-326" value="+" style="text;html=1;align=center;verticalAlign=middle;resizable=0;points=[];autosize=1;strokeColor=none;fillColor=none;fontSize=19;" parent="WIyWlLk6GJQsqaUBKTNV-1" vertex="1">
          <mxGeometry x="512" y="959" width="21" height="27" as="geometry" />
        </mxCell>
        <mxCell id="8WQcC468DqVq79VYUEjq-327" value="-" style="text;html=1;align=center;verticalAlign=middle;resizable=0;points=[];autosize=1;strokeColor=none;fillColor=none;fontSize=19;" parent="WIyWlLk6GJQsqaUBKTNV-1" vertex="1">
          <mxGeometry x="608.5" y="1009" width="16" height="27" as="geometry" />
        </mxCell>
        <mxCell id="8WQcC468DqVq79VYUEjq-328" value="" style="edgeStyle=orthogonalEdgeStyle;rounded=0;orthogonalLoop=1;jettySize=auto;html=1;fontSize=20;" parent="WIyWlLk6GJQsqaUBKTNV-1" target="8WQcC468DqVq79VYUEjq-240" edge="1">
          <mxGeometry relative="1" as="geometry">
            <mxPoint x="608.5" y="128" as="sourcePoint" />
          </mxGeometry>
        </mxCell>
        <mxCell id="8WQcC468DqVq79VYUEjq-329" value="" style="endArrow=none;html=1;rounded=0;labelBackgroundColor=default;fontSize=15;fontColor=default;endSize=6;strokeColor=default;strokeWidth=2;fillColor=default;entryDx=0;entryDy=0;" parent="WIyWlLk6GJQsqaUBKTNV-1" edge="1">
          <mxGeometry width="50" height="50" relative="1" as="geometry">
            <mxPoint x="311" y="128" as="sourcePoint" />
            <mxPoint x="608.5" y="128" as="targetPoint" />
          </mxGeometry>
        </mxCell>
        <mxCell id="8WQcC468DqVq79VYUEjq-330" value="A" style="ellipse;shape=doubleEllipse;whiteSpace=wrap;html=1;aspect=fixed;labelBackgroundColor=default;fontSize=20;fontColor=default;strokeColor=default;fillColor=default;" parent="WIyWlLk6GJQsqaUBKTNV-1" vertex="1">
          <mxGeometry x="366" y="1137" width="40" height="40" as="geometry" />
        </mxCell>
        <mxCell id="8WQcC468DqVq79VYUEjq-331" value="" style="endArrow=none;html=1;rounded=0;fontSize=20;strokeWidth=2;" parent="WIyWlLk6GJQsqaUBKTNV-1" edge="1">
          <mxGeometry width="50" height="50" relative="1" as="geometry">
            <mxPoint x="386" y="1210" as="sourcePoint" />
            <mxPoint x="385.5" y="1177" as="targetPoint" />
          </mxGeometry>
        </mxCell>
        <mxCell id="8WQcC468DqVq79VYUEjq-332" value="&lt;font style=&quot;font-size: 18px&quot;&gt;i = rowindex; i &amp;lt; row - 1; i++&lt;/font&gt;" style="shape=hexagon;perimeter=hexagonPerimeter2;whiteSpace=wrap;html=1;fixedSize=1;fontSize=22;fontColor=default;strokeColor=default;fillColor=default;" parent="WIyWlLk6GJQsqaUBKTNV-1" vertex="1">
          <mxGeometry x="257.7" y="1210" width="256.62" height="30" as="geometry" />
        </mxCell>
        <mxCell id="8WQcC468DqVq79VYUEjq-333" value="&lt;font style=&quot;font-size: 18px&quot;&gt;j = 0 ; j &amp;lt; col; j++&lt;/font&gt;" style="shape=hexagon;perimeter=hexagonPerimeter2;whiteSpace=wrap;html=1;fixedSize=1;fontSize=22;fontColor=default;strokeColor=default;fillColor=default;" parent="WIyWlLk6GJQsqaUBKTNV-1" vertex="1">
          <mxGeometry x="257.7" y="1260" width="256.62" height="30" as="geometry" />
        </mxCell>
        <mxCell id="8WQcC468DqVq79VYUEjq-334" value="" style="line;strokeWidth=2;direction=south;html=1;fontSize=20;" parent="WIyWlLk6GJQsqaUBKTNV-1" vertex="1">
          <mxGeometry x="381" y="1240" width="10" height="20" as="geometry" />
        </mxCell>
        <mxCell id="8WQcC468DqVq79VYUEjq-335" value="&lt;span style=&quot;font-size: 16px&quot;&gt;&amp;nbsp; X[ i ][ j ] =&amp;nbsp;&lt;/span&gt;&lt;span style=&quot;font-size: 16px&quot;&gt;X[ i + 1][ j ]&amp;nbsp;&lt;/span&gt;" style="rounded=0;whiteSpace=wrap;html=1;fontSize=20;" parent="WIyWlLk6GJQsqaUBKTNV-1" vertex="1">
          <mxGeometry x="304" y="1310" width="164" height="60" as="geometry" />
        </mxCell>
        <mxCell id="8WQcC468DqVq79VYUEjq-336" value="" style="line;strokeWidth=2;direction=south;html=1;fontSize=20;" parent="WIyWlLk6GJQsqaUBKTNV-1" vertex="1">
          <mxGeometry x="381" y="1290" width="10" height="20" as="geometry" />
        </mxCell>
        <mxCell id="8WQcC468DqVq79VYUEjq-337" value="" style="line;strokeWidth=2;direction=south;html=1;fontSize=20;" parent="WIyWlLk6GJQsqaUBKTNV-1" vertex="1">
          <mxGeometry x="381" y="1370" width="10" height="20" as="geometry" />
        </mxCell>
        <mxCell id="8WQcC468DqVq79VYUEjq-338" value="" style="endArrow=none;html=1;rounded=0;fontSize=20;strokeWidth=2;" parent="WIyWlLk6GJQsqaUBKTNV-1" edge="1">
          <mxGeometry width="50" height="50" relative="1" as="geometry">
            <mxPoint x="230" y="1390" as="sourcePoint" />
            <mxPoint x="386" y="1390" as="targetPoint" />
          </mxGeometry>
        </mxCell>
        <mxCell id="8WQcC468DqVq79VYUEjq-339" value="" style="endArrow=none;html=1;rounded=0;fontSize=20;strokeWidth=2;entryX=0.525;entryY=0.65;entryDx=0;entryDy=0;entryPerimeter=0;" parent="WIyWlLk6GJQsqaUBKTNV-1" edge="1">
          <mxGeometry width="50" height="50" relative="1" as="geometry">
            <mxPoint x="230" y="1390" as="sourcePoint" />
            <mxPoint x="231" y="1275" as="targetPoint" />
          </mxGeometry>
        </mxCell>
        <mxCell id="8WQcC468DqVq79VYUEjq-340" value="" style="endArrow=classic;html=1;rounded=0;fontSize=20;strokeWidth=2;startArrow=none;" parent="WIyWlLk6GJQsqaUBKTNV-1" source="8WQcC468DqVq79VYUEjq-342" edge="1">
          <mxGeometry width="50" height="50" relative="1" as="geometry">
            <mxPoint x="231" y="1275" as="sourcePoint" />
            <mxPoint x="263" y="1274.5" as="targetPoint" />
          </mxGeometry>
        </mxCell>
        <mxCell id="8WQcC468DqVq79VYUEjq-341" value="" style="endArrow=none;html=1;rounded=0;fontSize=20;strokeWidth=2;" parent="WIyWlLk6GJQsqaUBKTNV-1" edge="1">
          <mxGeometry width="50" height="50" relative="1" as="geometry">
            <mxPoint x="230" y="1275" as="sourcePoint" />
            <mxPoint x="231" y="1275" as="targetPoint" />
          </mxGeometry>
        </mxCell>
        <mxCell id="8WQcC468DqVq79VYUEjq-342" value="" style="line;strokeWidth=2;html=1;fontSize=20;" parent="WIyWlLk6GJQsqaUBKTNV-1" vertex="1">
          <mxGeometry x="230" y="1270" width="29" height="10" as="geometry" />
        </mxCell>
        <mxCell id="8WQcC468DqVq79VYUEjq-343" value="" style="endArrow=none;html=1;rounded=0;fontSize=20;strokeWidth=2;startArrow=none;" parent="WIyWlLk6GJQsqaUBKTNV-1" target="8WQcC468DqVq79VYUEjq-342" edge="1">
          <mxGeometry width="50" height="50" relative="1" as="geometry">
            <mxPoint x="231" y="1275" as="sourcePoint" />
            <mxPoint x="263" y="1274.5" as="targetPoint" />
          </mxGeometry>
        </mxCell>
        <mxCell id="8WQcC468DqVq79VYUEjq-344" value="" style="line;strokeWidth=2;html=1;fontSize=20;" parent="WIyWlLk6GJQsqaUBKTNV-1" vertex="1">
          <mxGeometry x="514.3199999999999" y="1270" width="35.68" height="10" as="geometry" />
        </mxCell>
        <mxCell id="8WQcC468DqVq79VYUEjq-345" value="" style="endArrow=none;html=1;rounded=0;fontSize=20;strokeWidth=2;entryX=1;entryY=0.5;entryDx=0;entryDy=0;entryPerimeter=0;" parent="WIyWlLk6GJQsqaUBKTNV-1" target="8WQcC468DqVq79VYUEjq-344" edge="1">
          <mxGeometry width="50" height="50" relative="1" as="geometry">
            <mxPoint x="550" y="1410" as="sourcePoint" />
            <mxPoint x="549" y="1290" as="targetPoint" />
          </mxGeometry>
        </mxCell>
        <mxCell id="8WQcC468DqVq79VYUEjq-346" value="" style="endArrow=none;html=1;rounded=0;fontSize=20;strokeWidth=2;" parent="WIyWlLk6GJQsqaUBKTNV-1" edge="1">
          <mxGeometry width="50" height="50" relative="1" as="geometry">
            <mxPoint x="210" y="1410" as="sourcePoint" />
            <mxPoint x="550" y="1410" as="targetPoint" />
          </mxGeometry>
        </mxCell>
        <mxCell id="8WQcC468DqVq79VYUEjq-347" value="" style="endArrow=none;html=1;rounded=0;fontSize=20;strokeWidth=2;entryX=0.55;entryY=0.675;entryDx=0;entryDy=0;entryPerimeter=0;" parent="WIyWlLk6GJQsqaUBKTNV-1" edge="1">
          <mxGeometry width="50" height="50" relative="1" as="geometry">
            <mxPoint x="210" y="1410" as="sourcePoint" />
            <mxPoint x="210" y="1225" as="targetPoint" />
          </mxGeometry>
        </mxCell>
        <mxCell id="8WQcC468DqVq79VYUEjq-348" value="" style="endArrow=classic;html=1;rounded=0;fontSize=20;strokeWidth=2;startArrow=none;" parent="WIyWlLk6GJQsqaUBKTNV-1" edge="1">
          <mxGeometry width="50" height="50" relative="1" as="geometry">
            <mxPoint x="210" y="1225" as="sourcePoint" />
            <mxPoint x="263" y="1224.5" as="targetPoint" />
          </mxGeometry>
        </mxCell>
        <mxCell id="8WQcC468DqVq79VYUEjq-349" value="" style="endArrow=none;html=1;rounded=0;fontSize=20;strokeWidth=2;" parent="WIyWlLk6GJQsqaUBKTNV-1" edge="1">
          <mxGeometry width="50" height="50" relative="1" as="geometry">
            <mxPoint x="210" y="1225" as="sourcePoint" />
            <mxPoint x="210" y="1225" as="targetPoint" />
          </mxGeometry>
        </mxCell>
        <mxCell id="8WQcC468DqVq79VYUEjq-350" value="" style="line;strokeWidth=2;html=1;fontSize=20;" parent="WIyWlLk6GJQsqaUBKTNV-1" vertex="1">
          <mxGeometry x="514.3199999999999" y="1220" width="55.68" height="10" as="geometry" />
        </mxCell>
        <mxCell id="8WQcC468DqVq79VYUEjq-351" value="" style="endArrow=none;html=1;rounded=0;fontSize=20;strokeWidth=2;" parent="WIyWlLk6GJQsqaUBKTNV-1" edge="1">
          <mxGeometry width="50" height="50" relative="1" as="geometry">
            <mxPoint x="570" y="1430" as="sourcePoint" />
            <mxPoint x="570" y="1225" as="targetPoint" />
          </mxGeometry>
        </mxCell>
        <mxCell id="8WQcC468DqVq79VYUEjq-352" value="" style="endArrow=none;html=1;rounded=0;fontSize=20;strokeWidth=2;exitX=0.45;exitY=0.625;exitDx=0;exitDy=0;exitPerimeter=0;" parent="WIyWlLk6GJQsqaUBKTNV-1" edge="1">
          <mxGeometry width="50" height="50" relative="1" as="geometry">
            <mxPoint x="385" y="1430" as="sourcePoint" />
            <mxPoint x="570" y="1430" as="targetPoint" />
          </mxGeometry>
        </mxCell>
        <mxCell id="8WQcC468DqVq79VYUEjq-353" value="" style="endArrow=none;html=1;rounded=0;fontSize=20;strokeWidth=2;startArrow=none;" parent="WIyWlLk6GJQsqaUBKTNV-1" edge="1">
          <mxGeometry width="50" height="50" relative="1" as="geometry">
            <mxPoint x="385" y="1430" as="sourcePoint" />
            <mxPoint x="384.5" y="1430" as="targetPoint" />
          </mxGeometry>
        </mxCell>
        <mxCell id="8WQcC468DqVq79VYUEjq-354" value="&lt;font style=&quot;font-size: 18px&quot;&gt;j = colindex; j &amp;lt; col - 1; j++&lt;/font&gt;" style="shape=hexagon;perimeter=hexagonPerimeter2;whiteSpace=wrap;html=1;fixedSize=1;fontSize=22;fontColor=default;strokeColor=default;fillColor=default;" parent="WIyWlLk6GJQsqaUBKTNV-1" vertex="1">
          <mxGeometry x="256.7" y="1463" width="256.62" height="30" as="geometry" />
        </mxCell>
        <mxCell id="8WQcC468DqVq79VYUEjq-355" value="&lt;font style=&quot;font-size: 18px&quot;&gt;i = 0 ; i &amp;lt; row; i++&lt;/font&gt;" style="shape=hexagon;perimeter=hexagonPerimeter2;whiteSpace=wrap;html=1;fixedSize=1;fontSize=22;fontColor=default;strokeColor=default;fillColor=default;" parent="WIyWlLk6GJQsqaUBKTNV-1" vertex="1">
          <mxGeometry x="256.7" y="1513" width="256.62" height="30" as="geometry" />
        </mxCell>
        <mxCell id="8WQcC468DqVq79VYUEjq-356" value="" style="line;strokeWidth=2;direction=south;html=1;fontSize=20;" parent="WIyWlLk6GJQsqaUBKTNV-1" vertex="1">
          <mxGeometry x="380" y="1493" width="10" height="20" as="geometry" />
        </mxCell>
        <mxCell id="8WQcC468DqVq79VYUEjq-357" value="&lt;span style=&quot;font-size: 16px&quot;&gt;&amp;nbsp;X[ i ][ j ] =&amp;nbsp;&lt;/span&gt;&lt;span style=&quot;font-size: 16px&quot;&gt;X[ i ][ j + 1]&amp;nbsp;&lt;/span&gt;" style="rounded=0;whiteSpace=wrap;html=1;fontSize=20;" parent="WIyWlLk6GJQsqaUBKTNV-1" vertex="1">
          <mxGeometry x="303" y="1563" width="164" height="60" as="geometry" />
        </mxCell>
        <mxCell id="8WQcC468DqVq79VYUEjq-358" value="" style="line;strokeWidth=2;direction=south;html=1;fontSize=20;" parent="WIyWlLk6GJQsqaUBKTNV-1" vertex="1">
          <mxGeometry x="380" y="1543" width="10" height="20" as="geometry" />
        </mxCell>
        <mxCell id="8WQcC468DqVq79VYUEjq-359" value="" style="line;strokeWidth=2;direction=south;html=1;fontSize=20;" parent="WIyWlLk6GJQsqaUBKTNV-1" vertex="1">
          <mxGeometry x="380" y="1623" width="10" height="20" as="geometry" />
        </mxCell>
        <mxCell id="8WQcC468DqVq79VYUEjq-360" value="" style="endArrow=none;html=1;rounded=0;fontSize=20;strokeWidth=2;" parent="WIyWlLk6GJQsqaUBKTNV-1" edge="1">
          <mxGeometry width="50" height="50" relative="1" as="geometry">
            <mxPoint x="229" y="1643" as="sourcePoint" />
            <mxPoint x="385" y="1643" as="targetPoint" />
          </mxGeometry>
        </mxCell>
        <mxCell id="8WQcC468DqVq79VYUEjq-361" value="" style="endArrow=none;html=1;rounded=0;fontSize=20;strokeWidth=2;entryX=0.525;entryY=0.65;entryDx=0;entryDy=0;entryPerimeter=0;" parent="WIyWlLk6GJQsqaUBKTNV-1" edge="1">
          <mxGeometry width="50" height="50" relative="1" as="geometry">
            <mxPoint x="229" y="1643" as="sourcePoint" />
            <mxPoint x="230" y="1528" as="targetPoint" />
          </mxGeometry>
        </mxCell>
        <mxCell id="8WQcC468DqVq79VYUEjq-362" value="" style="endArrow=classic;html=1;rounded=0;fontSize=20;strokeWidth=2;startArrow=none;" parent="WIyWlLk6GJQsqaUBKTNV-1" source="8WQcC468DqVq79VYUEjq-364" edge="1">
          <mxGeometry width="50" height="50" relative="1" as="geometry">
            <mxPoint x="230" y="1528" as="sourcePoint" />
            <mxPoint x="262" y="1527.5" as="targetPoint" />
          </mxGeometry>
        </mxCell>
        <mxCell id="8WQcC468DqVq79VYUEjq-363" value="" style="endArrow=none;html=1;rounded=0;fontSize=20;strokeWidth=2;" parent="WIyWlLk6GJQsqaUBKTNV-1" edge="1">
          <mxGeometry width="50" height="50" relative="1" as="geometry">
            <mxPoint x="229" y="1528" as="sourcePoint" />
            <mxPoint x="230" y="1528" as="targetPoint" />
          </mxGeometry>
        </mxCell>
        <mxCell id="8WQcC468DqVq79VYUEjq-364" value="" style="line;strokeWidth=2;html=1;fontSize=20;" parent="WIyWlLk6GJQsqaUBKTNV-1" vertex="1">
          <mxGeometry x="229" y="1523" width="29" height="10" as="geometry" />
        </mxCell>
        <mxCell id="8WQcC468DqVq79VYUEjq-365" value="" style="endArrow=none;html=1;rounded=0;fontSize=20;strokeWidth=2;startArrow=none;" parent="WIyWlLk6GJQsqaUBKTNV-1" target="8WQcC468DqVq79VYUEjq-364" edge="1">
          <mxGeometry width="50" height="50" relative="1" as="geometry">
            <mxPoint x="230" y="1528" as="sourcePoint" />
            <mxPoint x="262" y="1527.5" as="targetPoint" />
          </mxGeometry>
        </mxCell>
        <mxCell id="8WQcC468DqVq79VYUEjq-366" value="" style="line;strokeWidth=2;html=1;fontSize=20;" parent="WIyWlLk6GJQsqaUBKTNV-1" vertex="1">
          <mxGeometry x="513.3199999999999" y="1523" width="35.68" height="10" as="geometry" />
        </mxCell>
        <mxCell id="8WQcC468DqVq79VYUEjq-367" value="" style="endArrow=none;html=1;rounded=0;fontSize=20;strokeWidth=2;entryX=1;entryY=0.5;entryDx=0;entryDy=0;entryPerimeter=0;" parent="WIyWlLk6GJQsqaUBKTNV-1" target="8WQcC468DqVq79VYUEjq-366" edge="1">
          <mxGeometry width="50" height="50" relative="1" as="geometry">
            <mxPoint x="549" y="1663" as="sourcePoint" />
            <mxPoint x="548" y="1543" as="targetPoint" />
          </mxGeometry>
        </mxCell>
        <mxCell id="8WQcC468DqVq79VYUEjq-368" value="" style="endArrow=none;html=1;rounded=0;fontSize=20;strokeWidth=2;" parent="WIyWlLk6GJQsqaUBKTNV-1" edge="1">
          <mxGeometry width="50" height="50" relative="1" as="geometry">
            <mxPoint x="209" y="1663" as="sourcePoint" />
            <mxPoint x="549" y="1663" as="targetPoint" />
          </mxGeometry>
        </mxCell>
        <mxCell id="8WQcC468DqVq79VYUEjq-369" value="" style="endArrow=none;html=1;rounded=0;fontSize=20;strokeWidth=2;entryX=0.55;entryY=0.675;entryDx=0;entryDy=0;entryPerimeter=0;" parent="WIyWlLk6GJQsqaUBKTNV-1" edge="1">
          <mxGeometry width="50" height="50" relative="1" as="geometry">
            <mxPoint x="209" y="1663" as="sourcePoint" />
            <mxPoint x="209" y="1478" as="targetPoint" />
          </mxGeometry>
        </mxCell>
        <mxCell id="8WQcC468DqVq79VYUEjq-370" value="" style="endArrow=classic;html=1;rounded=0;fontSize=20;strokeWidth=2;startArrow=none;" parent="WIyWlLk6GJQsqaUBKTNV-1" edge="1">
          <mxGeometry width="50" height="50" relative="1" as="geometry">
            <mxPoint x="209" y="1478" as="sourcePoint" />
            <mxPoint x="262" y="1477.5" as="targetPoint" />
          </mxGeometry>
        </mxCell>
        <mxCell id="8WQcC468DqVq79VYUEjq-371" value="" style="endArrow=none;html=1;rounded=0;fontSize=20;strokeWidth=2;" parent="WIyWlLk6GJQsqaUBKTNV-1" edge="1">
          <mxGeometry width="50" height="50" relative="1" as="geometry">
            <mxPoint x="209" y="1478" as="sourcePoint" />
            <mxPoint x="209" y="1478" as="targetPoint" />
          </mxGeometry>
        </mxCell>
        <mxCell id="8WQcC468DqVq79VYUEjq-372" value="" style="line;strokeWidth=2;html=1;fontSize=20;" parent="WIyWlLk6GJQsqaUBKTNV-1" vertex="1">
          <mxGeometry x="513.3199999999999" y="1473" width="55.68" height="10" as="geometry" />
        </mxCell>
        <mxCell id="8WQcC468DqVq79VYUEjq-373" value="" style="endArrow=none;html=1;rounded=0;fontSize=20;strokeWidth=2;" parent="WIyWlLk6GJQsqaUBKTNV-1" edge="1">
          <mxGeometry width="50" height="50" relative="1" as="geometry">
            <mxPoint x="569" y="1690" as="sourcePoint" />
            <mxPoint x="569" y="1478" as="targetPoint" />
          </mxGeometry>
        </mxCell>
        <mxCell id="8WQcC468DqVq79VYUEjq-374" value="" style="endArrow=none;html=1;rounded=0;fontSize=20;strokeWidth=2;" parent="WIyWlLk6GJQsqaUBKTNV-1" edge="1">
          <mxGeometry width="50" height="50" relative="1" as="geometry">
            <mxPoint x="385" y="1463" as="sourcePoint" />
            <mxPoint x="385" y="1430" as="targetPoint" />
          </mxGeometry>
        </mxCell>
        <mxCell id="8WQcC468DqVq79VYUEjq-375" value="" style="endArrow=none;html=1;rounded=0;fontSize=20;strokeWidth=2;exitX=0.575;exitY=0.525;exitDx=0;exitDy=0;exitPerimeter=0;" parent="WIyWlLk6GJQsqaUBKTNV-1" edge="1">
          <mxGeometry width="50" height="50" relative="1" as="geometry">
            <mxPoint x="385" y="1690" as="sourcePoint" />
            <mxPoint x="570" y="1690" as="targetPoint" />
          </mxGeometry>
        </mxCell>
        <mxCell id="8WQcC468DqVq79VYUEjq-376" value="" style="endArrow=none;html=1;rounded=0;fontSize=20;strokeWidth=2;startArrow=none;" parent="WIyWlLk6GJQsqaUBKTNV-1" edge="1">
          <mxGeometry width="50" height="50" relative="1" as="geometry">
            <mxPoint x="385" y="1690" as="sourcePoint" />
            <mxPoint x="384.5" y="1690" as="targetPoint" />
          </mxGeometry>
        </mxCell>
        <mxCell id="8WQcC468DqVq79VYUEjq-377" value="" style="endArrow=none;html=1;rounded=0;fontSize=20;strokeWidth=2;" parent="WIyWlLk6GJQsqaUBKTNV-1" edge="1">
          <mxGeometry width="50" height="50" relative="1" as="geometry">
            <mxPoint x="385" y="1730" as="sourcePoint" />
            <mxPoint x="385" y="1690" as="targetPoint" />
          </mxGeometry>
        </mxCell>
        <mxCell id="8WQcC468DqVq79VYUEjq-378" value="&lt;font style=&quot;font-size: 18px&quot;&gt;i = 0 ; i &amp;lt; row - 1; j++&lt;/font&gt;" style="shape=hexagon;perimeter=hexagonPerimeter2;whiteSpace=wrap;html=1;fixedSize=1;fontSize=22;fontColor=default;strokeColor=default;fillColor=default;" parent="WIyWlLk6GJQsqaUBKTNV-1" vertex="1">
          <mxGeometry x="257.7" y="1730" width="256.62" height="30" as="geometry" />
        </mxCell>
        <mxCell id="8WQcC468DqVq79VYUEjq-379" value="&lt;font style=&quot;font-size: 18px&quot;&gt;j = 0 ; j &amp;lt; col - 1 ; j++&lt;/font&gt;" style="shape=hexagon;perimeter=hexagonPerimeter2;whiteSpace=wrap;html=1;fixedSize=1;fontSize=22;fontColor=default;strokeColor=default;fillColor=default;" parent="WIyWlLk6GJQsqaUBKTNV-1" vertex="1">
          <mxGeometry x="257.7" y="1780" width="256.62" height="30" as="geometry" />
        </mxCell>
        <mxCell id="8WQcC468DqVq79VYUEjq-380" value="" style="line;strokeWidth=2;direction=south;html=1;fontSize=20;" parent="WIyWlLk6GJQsqaUBKTNV-1" vertex="1">
          <mxGeometry x="381" y="1760" width="10" height="20" as="geometry" />
        </mxCell>
        <mxCell id="8WQcC468DqVq79VYUEjq-381" value="" style="line;strokeWidth=2;direction=south;html=1;fontSize=20;" parent="WIyWlLk6GJQsqaUBKTNV-1" vertex="1">
          <mxGeometry x="381" y="1810" width="10" height="20" as="geometry" />
        </mxCell>
        <mxCell id="8WQcC468DqVq79VYUEjq-382" value="" style="line;strokeWidth=2;direction=south;html=1;fontSize=20;" parent="WIyWlLk6GJQsqaUBKTNV-1" vertex="1">
          <mxGeometry x="381" y="1860" width="10" height="50" as="geometry" />
        </mxCell>
        <mxCell id="8WQcC468DqVq79VYUEjq-383" value="" style="endArrow=none;html=1;rounded=0;fontSize=20;strokeWidth=2;" parent="WIyWlLk6GJQsqaUBKTNV-1" edge="1">
          <mxGeometry width="50" height="50" relative="1" as="geometry">
            <mxPoint x="230" y="1910" as="sourcePoint" />
            <mxPoint x="386" y="1910" as="targetPoint" />
          </mxGeometry>
        </mxCell>
        <mxCell id="8WQcC468DqVq79VYUEjq-384" value="" style="endArrow=none;html=1;rounded=0;fontSize=20;strokeWidth=2;entryX=0.525;entryY=0.65;entryDx=0;entryDy=0;entryPerimeter=0;" parent="WIyWlLk6GJQsqaUBKTNV-1" edge="1">
          <mxGeometry width="50" height="50" relative="1" as="geometry">
            <mxPoint x="230" y="1910" as="sourcePoint" />
            <mxPoint x="231" y="1795" as="targetPoint" />
          </mxGeometry>
        </mxCell>
        <mxCell id="8WQcC468DqVq79VYUEjq-385" value="" style="endArrow=classic;html=1;rounded=0;fontSize=20;strokeWidth=2;startArrow=none;" parent="WIyWlLk6GJQsqaUBKTNV-1" source="8WQcC468DqVq79VYUEjq-387" edge="1">
          <mxGeometry width="50" height="50" relative="1" as="geometry">
            <mxPoint x="231" y="1795" as="sourcePoint" />
            <mxPoint x="263" y="1794.5" as="targetPoint" />
          </mxGeometry>
        </mxCell>
        <mxCell id="8WQcC468DqVq79VYUEjq-386" value="" style="endArrow=none;html=1;rounded=0;fontSize=20;strokeWidth=2;" parent="WIyWlLk6GJQsqaUBKTNV-1" edge="1">
          <mxGeometry width="50" height="50" relative="1" as="geometry">
            <mxPoint x="230" y="1795" as="sourcePoint" />
            <mxPoint x="231" y="1795" as="targetPoint" />
          </mxGeometry>
        </mxCell>
        <mxCell id="8WQcC468DqVq79VYUEjq-387" value="" style="line;strokeWidth=2;html=1;fontSize=20;" parent="WIyWlLk6GJQsqaUBKTNV-1" vertex="1">
          <mxGeometry x="230" y="1790" width="29" height="10" as="geometry" />
        </mxCell>
        <mxCell id="8WQcC468DqVq79VYUEjq-388" value="" style="endArrow=none;html=1;rounded=0;fontSize=20;strokeWidth=2;startArrow=none;" parent="WIyWlLk6GJQsqaUBKTNV-1" target="8WQcC468DqVq79VYUEjq-387" edge="1">
          <mxGeometry width="50" height="50" relative="1" as="geometry">
            <mxPoint x="231" y="1795" as="sourcePoint" />
            <mxPoint x="263" y="1794.5" as="targetPoint" />
          </mxGeometry>
        </mxCell>
        <mxCell id="8WQcC468DqVq79VYUEjq-389" value="" style="line;strokeWidth=2;html=1;fontSize=20;" parent="WIyWlLk6GJQsqaUBKTNV-1" vertex="1">
          <mxGeometry x="514.3199999999999" y="1790" width="35.68" height="10" as="geometry" />
        </mxCell>
        <mxCell id="8WQcC468DqVq79VYUEjq-390" value="" style="endArrow=none;html=1;rounded=0;fontSize=20;strokeWidth=2;entryX=1;entryY=0.5;entryDx=0;entryDy=0;entryPerimeter=0;" parent="WIyWlLk6GJQsqaUBKTNV-1" target="8WQcC468DqVq79VYUEjq-389" edge="1">
          <mxGeometry width="50" height="50" relative="1" as="geometry">
            <mxPoint x="550" y="1930" as="sourcePoint" />
            <mxPoint x="549" y="1810" as="targetPoint" />
          </mxGeometry>
        </mxCell>
        <mxCell id="8WQcC468DqVq79VYUEjq-391" value="" style="endArrow=none;html=1;rounded=0;fontSize=20;strokeWidth=2;" parent="WIyWlLk6GJQsqaUBKTNV-1" edge="1">
          <mxGeometry width="50" height="50" relative="1" as="geometry">
            <mxPoint x="210" y="1930" as="sourcePoint" />
            <mxPoint x="550" y="1930" as="targetPoint" />
          </mxGeometry>
        </mxCell>
        <mxCell id="8WQcC468DqVq79VYUEjq-392" value="" style="endArrow=none;html=1;rounded=0;fontSize=20;strokeWidth=2;entryX=0.55;entryY=0.675;entryDx=0;entryDy=0;entryPerimeter=0;" parent="WIyWlLk6GJQsqaUBKTNV-1" edge="1">
          <mxGeometry width="50" height="50" relative="1" as="geometry">
            <mxPoint x="210" y="1930" as="sourcePoint" />
            <mxPoint x="210" y="1745" as="targetPoint" />
          </mxGeometry>
        </mxCell>
        <mxCell id="8WQcC468DqVq79VYUEjq-393" value="" style="endArrow=classic;html=1;rounded=0;fontSize=20;strokeWidth=2;startArrow=none;" parent="WIyWlLk6GJQsqaUBKTNV-1" edge="1">
          <mxGeometry width="50" height="50" relative="1" as="geometry">
            <mxPoint x="210" y="1745" as="sourcePoint" />
            <mxPoint x="263" y="1744.5" as="targetPoint" />
          </mxGeometry>
        </mxCell>
        <mxCell id="8WQcC468DqVq79VYUEjq-394" value="" style="endArrow=none;html=1;rounded=0;fontSize=20;strokeWidth=2;" parent="WIyWlLk6GJQsqaUBKTNV-1" edge="1">
          <mxGeometry width="50" height="50" relative="1" as="geometry">
            <mxPoint x="210" y="1745" as="sourcePoint" />
            <mxPoint x="210" y="1745" as="targetPoint" />
          </mxGeometry>
        </mxCell>
        <mxCell id="8WQcC468DqVq79VYUEjq-395" value="" style="line;strokeWidth=2;html=1;fontSize=20;" parent="WIyWlLk6GJQsqaUBKTNV-1" vertex="1">
          <mxGeometry x="514.3199999999999" y="1740" width="55.68" height="10" as="geometry" />
        </mxCell>
        <mxCell id="8WQcC468DqVq79VYUEjq-396" value="X[ i ][ j ]" style="shape=parallelogram;perimeter=parallelogramPerimeter;whiteSpace=wrap;html=1;fixedSize=1;fontSize=19;fontColor=default;strokeColor=default;fillColor=default;" parent="WIyWlLk6GJQsqaUBKTNV-1" vertex="1">
          <mxGeometry x="336.01" y="1830" width="100" height="30" as="geometry" />
        </mxCell>
        <mxCell id="8WQcC468DqVq79VYUEjq-397" value="" style="endArrow=none;html=1;rounded=0;fontSize=20;strokeWidth=2;" parent="WIyWlLk6GJQsqaUBKTNV-1" edge="1">
          <mxGeometry width="50" height="50" relative="1" as="geometry">
            <mxPoint x="570" y="1950" as="sourcePoint" />
            <mxPoint x="569.5" y="1745" as="targetPoint" />
          </mxGeometry>
        </mxCell>
        <mxCell id="8WQcC468DqVq79VYUEjq-398" value="" style="endArrow=none;html=1;rounded=0;fontSize=20;strokeWidth=2;exitX=0.575;exitY=0.5;exitDx=0;exitDy=0;exitPerimeter=0;" parent="WIyWlLk6GJQsqaUBKTNV-1" edge="1">
          <mxGeometry width="50" height="50" relative="1" as="geometry">
            <mxPoint x="385" y="1950" as="sourcePoint" />
            <mxPoint x="570" y="1950" as="targetPoint" />
          </mxGeometry>
        </mxCell>
        <mxCell id="8WQcC468DqVq79VYUEjq-399" value="" style="endArrow=none;html=1;rounded=0;fontSize=20;strokeWidth=2;startArrow=none;" parent="WIyWlLk6GJQsqaUBKTNV-1" edge="1">
          <mxGeometry width="50" height="50" relative="1" as="geometry">
            <mxPoint x="385" y="1950" as="sourcePoint" />
            <mxPoint x="384.5" y="1950" as="targetPoint" />
          </mxGeometry>
        </mxCell>
        <mxCell id="8WQcC468DqVq79VYUEjq-400" value="" style="endArrow=none;html=1;rounded=0;fontSize=20;strokeWidth=2;" parent="WIyWlLk6GJQsqaUBKTNV-1" edge="1">
          <mxGeometry width="50" height="50" relative="1" as="geometry">
            <mxPoint x="385" y="1980" as="sourcePoint" />
            <mxPoint x="385" y="1950" as="targetPoint" />
          </mxGeometry>
        </mxCell>
        <mxCell id="8WQcC468DqVq79VYUEjq-401" value="&lt;font style=&quot;font-size: 19px&quot;&gt;Ավարտ&lt;/font&gt;" style="ellipse;whiteSpace=wrap;html=1;fontSize=25;fontColor=default;strokeColor=default;fillColor=default;" parent="WIyWlLk6GJQsqaUBKTNV-1" vertex="1">
          <mxGeometry x="327.51" y="1980" width="115" height="40" as="geometry" />
        </mxCell>
        <mxCell id="8WQcC468DqVq79VYUEjq-402" value="" style="shape=curlyBracket;whiteSpace=wrap;html=1;rounded=1;fontSize=20;" parent="WIyWlLk6GJQsqaUBKTNV-1" vertex="1">
          <mxGeometry x="158.5" y="1190" width="20" height="230" as="geometry" />
        </mxCell>
        <mxCell id="8WQcC468DqVq79VYUEjq-403" value="" style="shape=curlyBracket;whiteSpace=wrap;html=1;rounded=1;fontSize=20;" parent="WIyWlLk6GJQsqaUBKTNV-1" vertex="1">
          <mxGeometry x="158.5" y="1450" width="20" height="230" as="geometry" />
        </mxCell>
        <mxCell id="8WQcC468DqVq79VYUEjq-404" value="" style="shape=curlyBracket;whiteSpace=wrap;html=1;rounded=1;fontSize=20;" parent="WIyWlLk6GJQsqaUBKTNV-1" vertex="1">
          <mxGeometry x="158.5" y="1720" width="20" height="230" as="geometry" />
        </mxCell>
        <mxCell id="8WQcC468DqVq79VYUEjq-405" value="6" style="ellipse;whiteSpace=wrap;html=1;aspect=fixed;labelBackgroundColor=default;fontSize=20;fontColor=default;strokeColor=default;fillColor=default;" parent="WIyWlLk6GJQsqaUBKTNV-1" vertex="1">
          <mxGeometry x="116" y="1287.5" width="35" height="35" as="geometry" />
        </mxCell>
        <mxCell id="8WQcC468DqVq79VYUEjq-406" value="7" style="ellipse;whiteSpace=wrap;html=1;aspect=fixed;labelBackgroundColor=default;fontSize=20;fontColor=default;strokeColor=default;fillColor=default;" parent="WIyWlLk6GJQsqaUBKTNV-1" vertex="1">
          <mxGeometry x="116" y="1547.5" width="35" height="35" as="geometry" />
        </mxCell>
        <mxCell id="8WQcC468DqVq79VYUEjq-407" value="8" style="ellipse;whiteSpace=wrap;html=1;aspect=fixed;labelBackgroundColor=default;fontSize=20;fontColor=default;strokeColor=default;fillColor=default;" parent="WIyWlLk6GJQsqaUBKTNV-1" vertex="1">
          <mxGeometry x="118.5" y="1817.5" width="35" height="35" as="geometry" />
        </mxCell>
        <mxCell id="v0H0A3k1D_jODbU12yOE-0" value="&lt;font style=&quot;font-size: 16px&quot;&gt;int max = X[0][0]&amp;nbsp;&lt;/font&gt;" style="rounded=0;whiteSpace=wrap;html=1;fontSize=17;fontColor=default;strokeColor=default;fillColor=default;" parent="WIyWlLk6GJQsqaUBKTNV-1" vertex="1">
          <mxGeometry x="383.62" y="2490" width="143.75" height="40" as="geometry" />
        </mxCell>
        <mxCell id="v0H0A3k1D_jODbU12yOE-1" value="&lt;font style=&quot;font-size: 18px&quot;&gt;i = 0; i &amp;lt; row; i++&lt;/font&gt;" style="shape=hexagon;perimeter=hexagonPerimeter2;whiteSpace=wrap;html=1;fixedSize=1;fontSize=22;fontColor=default;strokeColor=default;fillColor=default;" parent="WIyWlLk6GJQsqaUBKTNV-1" vertex="1">
          <mxGeometry x="353.81999999999994" y="2550" width="202.5" height="30" as="geometry" />
        </mxCell>
        <mxCell id="v0H0A3k1D_jODbU12yOE-2" value="&lt;font style=&quot;font-size: 18px&quot;&gt;j = 0; j &amp;lt; col; j++&lt;/font&gt;" style="shape=hexagon;perimeter=hexagonPerimeter2;whiteSpace=wrap;html=1;fixedSize=1;fontSize=22;fontColor=default;strokeColor=default;fillColor=default;" parent="WIyWlLk6GJQsqaUBKTNV-1" vertex="1">
          <mxGeometry x="353.81999999999994" y="2600" width="202.5" height="30" as="geometry" />
        </mxCell>
        <mxCell id="v0H0A3k1D_jODbU12yOE-3" value="&lt;font style=&quot;font-size: 17px&quot;&gt;X[ i ][ j ] &amp;gt; max&amp;nbsp;&lt;/font&gt;" style="rhombus;whiteSpace=wrap;html=1;fontSize=19;fontColor=default;strokeColor=default;fillColor=default;" parent="WIyWlLk6GJQsqaUBKTNV-1" vertex="1">
          <mxGeometry x="372.14" y="2650" width="165.86" height="70" as="geometry" />
        </mxCell>
        <mxCell id="v0H0A3k1D_jODbU12yOE-4" value="&lt;span style=&quot;font-size: 16px&quot;&gt;X[ i ][ j ] = max&lt;/span&gt;" style="rounded=0;whiteSpace=wrap;html=1;fontSize=17;fontColor=default;strokeColor=default;fillColor=default;" parent="WIyWlLk6GJQsqaUBKTNV-1" vertex="1">
          <mxGeometry x="383.62" y="2750" width="143.75" height="40" as="geometry" />
        </mxCell>
        <mxCell id="v0H0A3k1D_jODbU12yOE-5" value="" style="endArrow=none;html=1;rounded=0;labelBackgroundColor=default;fontSize=16;fontColor=default;strokeColor=default;strokeWidth=2;fillColor=default;" parent="WIyWlLk6GJQsqaUBKTNV-1" edge="1">
          <mxGeometry width="50" height="50" relative="1" as="geometry">
            <mxPoint x="455" y="2750" as="sourcePoint" />
            <mxPoint x="455" y="2720" as="targetPoint" />
          </mxGeometry>
        </mxCell>
        <mxCell id="v0H0A3k1D_jODbU12yOE-6" value="" style="line;strokeWidth=2;html=1;fontSize=16;fontColor=default;fillColor=default;strokeColor=default;" parent="WIyWlLk6GJQsqaUBKTNV-1" vertex="1">
          <mxGeometry x="536.36" y="2680" width="21.64" height="10" as="geometry" />
        </mxCell>
        <mxCell id="v0H0A3k1D_jODbU12yOE-7" value="" style="endArrow=none;html=1;rounded=0;labelBackgroundColor=default;fontSize=16;fontColor=default;strokeColor=default;strokeWidth=2;fillColor=default;" parent="WIyWlLk6GJQsqaUBKTNV-1" edge="1">
          <mxGeometry width="50" height="50" relative="1" as="geometry">
            <mxPoint x="298" y="2810" as="sourcePoint" />
            <mxPoint x="558" y="2810" as="targetPoint" />
          </mxGeometry>
        </mxCell>
        <mxCell id="v0H0A3k1D_jODbU12yOE-8" value="" style="endArrow=none;html=1;rounded=0;labelBackgroundColor=default;fontSize=16;fontColor=default;strokeColor=default;strokeWidth=2;fillColor=default;entryX=0.475;entryY=0.425;entryDx=0;entryDy=0;entryPerimeter=0;" parent="WIyWlLk6GJQsqaUBKTNV-1" edge="1">
          <mxGeometry width="50" height="50" relative="1" as="geometry">
            <mxPoint x="298" y="2810" as="sourcePoint" />
            <mxPoint x="298" y="2615" as="targetPoint" />
          </mxGeometry>
        </mxCell>
        <mxCell id="v0H0A3k1D_jODbU12yOE-9" value="" style="endArrow=none;html=1;rounded=0;labelBackgroundColor=default;fontSize=16;fontColor=default;strokeColor=default;strokeWidth=2;fillColor=default;" parent="WIyWlLk6GJQsqaUBKTNV-1" edge="1">
          <mxGeometry width="50" height="50" relative="1" as="geometry">
            <mxPoint x="455" y="2650" as="sourcePoint" />
            <mxPoint x="455" y="2630" as="targetPoint" />
          </mxGeometry>
        </mxCell>
        <mxCell id="v0H0A3k1D_jODbU12yOE-10" value="" style="endArrow=classic;html=1;rounded=0;labelBackgroundColor=default;fontSize=16;fontColor=default;strokeColor=default;strokeWidth=2;fillColor=default;startArrow=none;" parent="WIyWlLk6GJQsqaUBKTNV-1" edge="1">
          <mxGeometry width="50" height="50" relative="1" as="geometry">
            <mxPoint x="298" y="2615" as="sourcePoint" />
            <mxPoint x="358" y="2614.5" as="targetPoint" />
          </mxGeometry>
        </mxCell>
        <mxCell id="v0H0A3k1D_jODbU12yOE-11" value="" style="endArrow=none;html=1;rounded=0;labelBackgroundColor=default;fontSize=16;fontColor=default;strokeColor=default;strokeWidth=2;fillColor=default;" parent="WIyWlLk6GJQsqaUBKTNV-1" edge="1">
          <mxGeometry width="50" height="50" relative="1" as="geometry">
            <mxPoint x="298" y="2615" as="sourcePoint" />
            <mxPoint x="298" y="2615" as="targetPoint" />
          </mxGeometry>
        </mxCell>
        <mxCell id="v0H0A3k1D_jODbU12yOE-12" value="" style="line;strokeWidth=2;html=1;fontSize=16;fontColor=default;fillColor=default;strokeColor=default;" parent="WIyWlLk6GJQsqaUBKTNV-1" vertex="1">
          <mxGeometry x="556.3199999999999" y="2610" width="21.68" height="10" as="geometry" />
        </mxCell>
        <mxCell id="v0H0A3k1D_jODbU12yOE-13" value="" style="endArrow=none;html=1;rounded=0;labelBackgroundColor=default;fontSize=16;fontColor=default;strokeColor=default;strokeWidth=2;fillColor=default;" parent="WIyWlLk6GJQsqaUBKTNV-1" edge="1">
          <mxGeometry width="50" height="50" relative="1" as="geometry">
            <mxPoint x="578" y="2730" as="sourcePoint" />
            <mxPoint x="578" y="2615" as="targetPoint" />
          </mxGeometry>
        </mxCell>
        <mxCell id="v0H0A3k1D_jODbU12yOE-14" value="" style="endArrow=none;html=1;rounded=0;labelBackgroundColor=default;fontSize=16;fontColor=default;strokeColor=default;strokeWidth=2;fillColor=default;" parent="WIyWlLk6GJQsqaUBKTNV-1" edge="1">
          <mxGeometry width="50" height="50" relative="1" as="geometry">
            <mxPoint x="558" y="2810" as="sourcePoint" />
            <mxPoint x="558" y="2685" as="targetPoint" />
          </mxGeometry>
        </mxCell>
        <mxCell id="v0H0A3k1D_jODbU12yOE-15" value="" style="endArrow=none;html=1;rounded=0;labelBackgroundColor=default;fontSize=16;fontColor=default;strokeColor=default;strokeWidth=2;fillColor=default;" parent="WIyWlLk6GJQsqaUBKTNV-1" edge="1">
          <mxGeometry width="50" height="50" relative="1" as="geometry">
            <mxPoint x="578" y="2830" as="sourcePoint" />
            <mxPoint x="578" y="2725" as="targetPoint" />
          </mxGeometry>
        </mxCell>
        <mxCell id="v0H0A3k1D_jODbU12yOE-16" value="" style="endArrow=none;html=1;rounded=0;labelBackgroundColor=default;fontSize=16;fontColor=default;strokeColor=default;strokeWidth=2;fillColor=default;" parent="WIyWlLk6GJQsqaUBKTNV-1" edge="1">
          <mxGeometry width="50" height="50" relative="1" as="geometry">
            <mxPoint x="278" y="2830" as="sourcePoint" />
            <mxPoint x="578" y="2830" as="targetPoint" />
          </mxGeometry>
        </mxCell>
        <mxCell id="v0H0A3k1D_jODbU12yOE-17" value="" style="endArrow=none;html=1;rounded=0;labelBackgroundColor=default;fontSize=16;fontColor=default;strokeColor=default;strokeWidth=2;fillColor=default;entryX=0.475;entryY=0.4;entryDx=0;entryDy=0;entryPerimeter=0;" parent="WIyWlLk6GJQsqaUBKTNV-1" edge="1">
          <mxGeometry width="50" height="50" relative="1" as="geometry">
            <mxPoint x="278" y="2830" as="sourcePoint" />
            <mxPoint x="278" y="2565" as="targetPoint" />
          </mxGeometry>
        </mxCell>
        <mxCell id="v0H0A3k1D_jODbU12yOE-18" value="" style="endArrow=classic;html=1;rounded=0;labelBackgroundColor=default;fontSize=16;fontColor=default;strokeColor=default;strokeWidth=2;fillColor=default;" parent="WIyWlLk6GJQsqaUBKTNV-1" edge="1">
          <mxGeometry width="50" height="50" relative="1" as="geometry">
            <mxPoint x="278" y="2565" as="sourcePoint" />
            <mxPoint x="358" y="2564.5" as="targetPoint" />
          </mxGeometry>
        </mxCell>
        <mxCell id="v0H0A3k1D_jODbU12yOE-19" value="" style="line;strokeWidth=2;html=1;fontSize=16;fontColor=default;fillColor=default;strokeColor=default;" parent="WIyWlLk6GJQsqaUBKTNV-1" vertex="1">
          <mxGeometry x="556.3199999999999" y="2560" width="41.68" height="10" as="geometry" />
        </mxCell>
        <mxCell id="v0H0A3k1D_jODbU12yOE-20" value="-" style="text;html=1;align=center;verticalAlign=middle;resizable=0;points=[];autosize=1;strokeColor=none;fillColor=none;fontSize=19;" parent="WIyWlLk6GJQsqaUBKTNV-1" vertex="1">
          <mxGeometry x="536.32" y="2663" width="16" height="27" as="geometry" />
        </mxCell>
        <mxCell id="v0H0A3k1D_jODbU12yOE-21" value="+" style="text;html=1;align=center;verticalAlign=middle;resizable=0;points=[];autosize=1;strokeColor=none;fillColor=none;fontSize=19;" parent="WIyWlLk6GJQsqaUBKTNV-1" vertex="1">
          <mxGeometry x="434.5" y="2715" width="21" height="27" as="geometry" />
        </mxCell>
        <mxCell id="v0H0A3k1D_jODbU12yOE-22" value="" style="endArrow=none;html=1;rounded=0;strokeWidth=2;" parent="WIyWlLk6GJQsqaUBKTNV-1" edge="1">
          <mxGeometry width="50" height="50" relative="1" as="geometry">
            <mxPoint x="455" y="2550" as="sourcePoint" />
            <mxPoint x="454.99" y="2530" as="targetPoint" />
          </mxGeometry>
        </mxCell>
        <mxCell id="v0H0A3k1D_jODbU12yOE-23" value="" style="endArrow=none;html=1;rounded=0;strokeWidth=2;" parent="WIyWlLk6GJQsqaUBKTNV-1" edge="1">
          <mxGeometry width="50" height="50" relative="1" as="geometry">
            <mxPoint x="455" y="2600" as="sourcePoint" />
            <mxPoint x="454.99" y="2580" as="targetPoint" />
          </mxGeometry>
        </mxCell>
        <mxCell id="v0H0A3k1D_jODbU12yOE-24" value="&lt;font style=&quot;font-size: 20px&quot;&gt;SearchMax(X)&lt;/font&gt;" style="ellipse;whiteSpace=wrap;html=1;strokeWidth=2;" parent="WIyWlLk6GJQsqaUBKTNV-1" vertex="1">
          <mxGeometry x="360.82" y="2380" width="188.51" height="70" as="geometry" />
        </mxCell>
        <mxCell id="v0H0A3k1D_jODbU12yOE-25" value="" style="endArrow=none;html=1;rounded=0;fontSize=20;strokeWidth=2;" parent="WIyWlLk6GJQsqaUBKTNV-1" edge="1">
          <mxGeometry width="50" height="50" relative="1" as="geometry">
            <mxPoint x="456" y="2490" as="sourcePoint" />
            <mxPoint x="455.5" y="2450" as="targetPoint" />
          </mxGeometry>
        </mxCell>
        <mxCell id="v0H0A3k1D_jODbU12yOE-26" value="" style="endArrow=none;html=1;rounded=0;fontSize=20;strokeWidth=2;" parent="WIyWlLk6GJQsqaUBKTNV-1" edge="1">
          <mxGeometry width="50" height="50" relative="1" as="geometry">
            <mxPoint x="598" y="2870" as="sourcePoint" />
            <mxPoint x="598" y="2565" as="targetPoint" />
          </mxGeometry>
        </mxCell>
        <mxCell id="v0H0A3k1D_jODbU12yOE-27" value="" style="endArrow=none;html=1;rounded=0;fontSize=20;strokeWidth=2;" parent="WIyWlLk6GJQsqaUBKTNV-1" edge="1">
          <mxGeometry width="50" height="50" relative="1" as="geometry">
            <mxPoint x="454" y="2870" as="sourcePoint" />
            <mxPoint x="599.3299999999999" y="2870" as="targetPoint" />
          </mxGeometry>
        </mxCell>
        <mxCell id="v0H0A3k1D_jODbU12yOE-28" value="" style="endArrow=none;html=1;rounded=0;fontSize=20;strokeWidth=2;" parent="WIyWlLk6GJQsqaUBKTNV-1" edge="1">
          <mxGeometry width="50" height="50" relative="1" as="geometry">
            <mxPoint x="455" y="2810" as="sourcePoint" />
            <mxPoint x="455.1700000000001" y="2790" as="targetPoint" />
          </mxGeometry>
        </mxCell>
        <mxCell id="v0H0A3k1D_jODbU12yOE-29" value="" style="endArrow=none;html=1;rounded=0;fontSize=20;strokeWidth=2;" parent="WIyWlLk6GJQsqaUBKTNV-1" edge="1">
          <mxGeometry width="50" height="50" relative="1" as="geometry">
            <mxPoint x="456" y="2900" as="sourcePoint" />
            <mxPoint x="455.5" y="2870" as="targetPoint" />
          </mxGeometry>
        </mxCell>
        <mxCell id="v0H0A3k1D_jODbU12yOE-30" value="&lt;font style=&quot;font-size: 16px&quot;&gt;return&amp;nbsp; max&lt;/font&gt;" style="rounded=0;whiteSpace=wrap;html=1;fontSize=20;strokeWidth=2;" parent="WIyWlLk6GJQsqaUBKTNV-1" vertex="1">
          <mxGeometry x="395.07" y="2900" width="120" height="60" as="geometry" />
        </mxCell>
        <mxCell id="v0H0A3k1D_jODbU12yOE-31" value="" style="endArrow=none;html=1;rounded=0;fontSize=16;strokeWidth=2;" parent="WIyWlLk6GJQsqaUBKTNV-1" edge="1">
          <mxGeometry width="50" height="50" relative="1" as="geometry">
            <mxPoint x="456" y="2990" as="sourcePoint" />
            <mxPoint x="455.5" y="2960" as="targetPoint" />
          </mxGeometry>
        </mxCell>
        <mxCell id="v0H0A3k1D_jODbU12yOE-32" value="Ավարտ" style="ellipse;whiteSpace=wrap;html=1;fontSize=16;strokeWidth=2;" parent="WIyWlLk6GJQsqaUBKTNV-1" vertex="1">
          <mxGeometry x="391.03" y="2980" width="128.93" height="50" as="geometry" />
        </mxCell>
        <mxCell id="v0H0A3k1D_jODbU12yOE-33" value="&lt;font&gt;&lt;font style=&quot;font-size: 18px&quot;&gt;counter = 0&lt;/font&gt;&lt;br&gt;&lt;/font&gt;" style="rounded=0;whiteSpace=wrap;html=1;fontColor=default;strokeColor=default;fillColor=default;" parent="WIyWlLk6GJQsqaUBKTNV-1" vertex="1">
          <mxGeometry x="386.82" y="3819" width="120" height="40" as="geometry" />
        </mxCell>
        <mxCell id="v0H0A3k1D_jODbU12yOE-34" value="&lt;font style=&quot;font-size: 18px&quot;&gt;i = 0; i &amp;lt; row; i++&lt;/font&gt;" style="shape=hexagon;perimeter=hexagonPerimeter2;whiteSpace=wrap;html=1;fixedSize=1;fontSize=22;fontColor=default;strokeColor=default;fillColor=default;" parent="WIyWlLk6GJQsqaUBKTNV-1" vertex="1">
          <mxGeometry x="345.56999999999994" y="3879" width="202.5" height="30" as="geometry" />
        </mxCell>
        <mxCell id="v0H0A3k1D_jODbU12yOE-35" value="&lt;font style=&quot;font-size: 18px&quot;&gt;j = 0; j &amp;lt; col; j++&lt;/font&gt;" style="shape=hexagon;perimeter=hexagonPerimeter2;whiteSpace=wrap;html=1;fixedSize=1;fontSize=22;fontColor=default;strokeColor=default;fillColor=default;" parent="WIyWlLk6GJQsqaUBKTNV-1" vertex="1">
          <mxGeometry x="345.56999999999994" y="3929" width="202.5" height="30" as="geometry" />
        </mxCell>
        <mxCell id="v0H0A3k1D_jODbU12yOE-36" value="" style="endArrow=none;html=1;rounded=0;fontSize=15;fontColor=default;strokeColor=default;fillColor=default;labelBackgroundColor=default;endSize=6;strokeWidth=2;" parent="WIyWlLk6GJQsqaUBKTNV-1" edge="1">
          <mxGeometry width="50" height="50" relative="1" as="geometry">
            <mxPoint x="446.75" y="3879" as="sourcePoint" />
            <mxPoint x="446.75" y="3859" as="targetPoint" />
          </mxGeometry>
        </mxCell>
        <mxCell id="v0H0A3k1D_jODbU12yOE-37" value="&lt;font style=&quot;font-size: 17px&quot;&gt;X[ i ][ j ] == max&amp;nbsp;&lt;/font&gt;" style="rhombus;whiteSpace=wrap;html=1;fontSize=19;fontColor=default;strokeColor=default;fillColor=default;" parent="WIyWlLk6GJQsqaUBKTNV-1" vertex="1">
          <mxGeometry x="364.31999999999994" y="3979" width="165.86" height="70" as="geometry" />
        </mxCell>
        <mxCell id="v0H0A3k1D_jODbU12yOE-38" value="" style="endArrow=none;html=1;rounded=0;labelBackgroundColor=default;fontSize=15;fontColor=default;endSize=6;strokeColor=default;strokeWidth=2;fillColor=default;" parent="WIyWlLk6GJQsqaUBKTNV-1" edge="1">
          <mxGeometry width="50" height="50" relative="1" as="geometry">
            <mxPoint x="446.75" y="4079" as="sourcePoint" />
            <mxPoint x="446.3199999999997" y="4049" as="targetPoint" />
          </mxGeometry>
        </mxCell>
        <mxCell id="v0H0A3k1D_jODbU12yOE-39" value="" style="line;strokeWidth=2;html=1;fontSize=15;fontColor=default;fillColor=default;strokeColor=default;labelBackgroundColor=default;" parent="WIyWlLk6GJQsqaUBKTNV-1" vertex="1">
          <mxGeometry x="530.1800000000001" y="4009" width="19.57" height="10" as="geometry" />
        </mxCell>
        <mxCell id="v0H0A3k1D_jODbU12yOE-40" value="" style="endArrow=none;html=1;rounded=0;labelBackgroundColor=default;fontSize=15;fontColor=default;endSize=6;strokeColor=default;strokeWidth=2;fillColor=default;entryX=0.514;entryY=0.625;entryDx=0;entryDy=0;entryPerimeter=0;" parent="WIyWlLk6GJQsqaUBKTNV-1" edge="1">
          <mxGeometry width="50" height="50" relative="1" as="geometry">
            <mxPoint x="549.75" y="4159" as="sourcePoint" />
            <mxPoint x="550.1800000000003" y="4014" as="targetPoint" />
          </mxGeometry>
        </mxCell>
        <mxCell id="v0H0A3k1D_jODbU12yOE-41" value="" style="endArrow=none;html=1;rounded=0;labelBackgroundColor=default;fontSize=15;fontColor=default;endSize=6;strokeColor=default;strokeWidth=2;fillColor=default;" parent="WIyWlLk6GJQsqaUBKTNV-1" edge="1">
          <mxGeometry width="50" height="50" relative="1" as="geometry">
            <mxPoint x="289.75" y="4159" as="sourcePoint" />
            <mxPoint x="548.5" y="4159" as="targetPoint" />
          </mxGeometry>
        </mxCell>
        <mxCell id="v0H0A3k1D_jODbU12yOE-42" value="" style="endArrow=none;html=1;rounded=0;labelBackgroundColor=default;fontSize=15;fontColor=default;endSize=6;strokeColor=default;strokeWidth=2;fillColor=default;entryX=0.475;entryY=0.4;entryDx=0;entryDy=0;entryPerimeter=0;" parent="WIyWlLk6GJQsqaUBKTNV-1" edge="1">
          <mxGeometry width="50" height="50" relative="1" as="geometry">
            <mxPoint x="289.75" y="4159" as="sourcePoint" />
            <mxPoint x="289.75" y="3944" as="targetPoint" />
          </mxGeometry>
        </mxCell>
        <mxCell id="v0H0A3k1D_jODbU12yOE-43" value="" style="endArrow=classic;html=1;rounded=0;labelBackgroundColor=default;fontSize=15;fontColor=default;endSize=6;strokeColor=default;strokeWidth=2;fillColor=default;startArrow=none;" parent="WIyWlLk6GJQsqaUBKTNV-1" edge="1">
          <mxGeometry width="50" height="50" relative="1" as="geometry">
            <mxPoint x="289.75" y="3944" as="sourcePoint" />
            <mxPoint x="349.75" y="3943.5" as="targetPoint" />
          </mxGeometry>
        </mxCell>
        <mxCell id="v0H0A3k1D_jODbU12yOE-44" value="" style="endArrow=none;html=1;rounded=0;labelBackgroundColor=default;fontSize=15;fontColor=default;endSize=6;strokeColor=default;strokeWidth=2;fillColor=default;" parent="WIyWlLk6GJQsqaUBKTNV-1" edge="1">
          <mxGeometry width="50" height="50" relative="1" as="geometry">
            <mxPoint x="289.75" y="3944" as="sourcePoint" />
            <mxPoint x="289.75" y="3944" as="targetPoint" />
          </mxGeometry>
        </mxCell>
        <mxCell id="v0H0A3k1D_jODbU12yOE-45" value="" style="line;strokeWidth=2;html=1;labelBackgroundColor=default;fontSize=15;fontColor=default;fillColor=default;strokeColor=default;" parent="WIyWlLk6GJQsqaUBKTNV-1" vertex="1">
          <mxGeometry x="548.5" y="3939" width="21.25" height="10" as="geometry" />
        </mxCell>
        <mxCell id="v0H0A3k1D_jODbU12yOE-46" value="" style="endArrow=none;html=1;rounded=0;labelBackgroundColor=default;fontSize=15;fontColor=default;endSize=6;strokeColor=default;strokeWidth=2;fillColor=default;entryX=0.542;entryY=0.45;entryDx=0;entryDy=0;entryPerimeter=0;" parent="WIyWlLk6GJQsqaUBKTNV-1" edge="1">
          <mxGeometry width="50" height="50" relative="1" as="geometry">
            <mxPoint x="567.75" y="4179" as="sourcePoint" />
            <mxPoint x="568.0699999999997" y="3944" as="targetPoint" />
          </mxGeometry>
        </mxCell>
        <mxCell id="v0H0A3k1D_jODbU12yOE-47" value="" style="endArrow=none;html=1;rounded=0;labelBackgroundColor=default;fontSize=15;fontColor=default;endSize=6;strokeColor=default;strokeWidth=2;fillColor=default;" parent="WIyWlLk6GJQsqaUBKTNV-1" edge="1">
          <mxGeometry width="50" height="50" relative="1" as="geometry">
            <mxPoint x="269.75" y="4179" as="sourcePoint" />
            <mxPoint x="568.0700000000002" y="4179" as="targetPoint" />
          </mxGeometry>
        </mxCell>
        <mxCell id="v0H0A3k1D_jODbU12yOE-48" value="" style="endArrow=none;html=1;rounded=0;labelBackgroundColor=default;fontSize=15;fontColor=default;endSize=6;strokeColor=default;strokeWidth=2;fillColor=default;entryX=0.5;entryY=0.375;entryDx=0;entryDy=0;entryPerimeter=0;" parent="WIyWlLk6GJQsqaUBKTNV-1" edge="1">
          <mxGeometry width="50" height="50" relative="1" as="geometry">
            <mxPoint x="269.75" y="4179" as="sourcePoint" />
            <mxPoint x="269.75" y="3894" as="targetPoint" />
          </mxGeometry>
        </mxCell>
        <mxCell id="v0H0A3k1D_jODbU12yOE-49" value="" style="endArrow=classic;html=1;rounded=0;labelBackgroundColor=default;fontSize=15;fontColor=default;endSize=6;strokeColor=default;strokeWidth=2;fillColor=default;" parent="WIyWlLk6GJQsqaUBKTNV-1" edge="1">
          <mxGeometry width="50" height="50" relative="1" as="geometry">
            <mxPoint x="269.75" y="3893.5" as="sourcePoint" />
            <mxPoint x="349.75" y="3893.5" as="targetPoint" />
          </mxGeometry>
        </mxCell>
        <mxCell id="v0H0A3k1D_jODbU12yOE-50" value="" style="line;strokeWidth=2;html=1;labelBackgroundColor=default;fontSize=15;fontColor=default;fillColor=default;strokeColor=default;" parent="WIyWlLk6GJQsqaUBKTNV-1" vertex="1">
          <mxGeometry x="548.07" y="3889" width="41.68" height="10" as="geometry" />
        </mxCell>
        <mxCell id="v0H0A3k1D_jODbU12yOE-51" value="-" style="text;html=1;align=center;verticalAlign=middle;resizable=0;points=[];autosize=1;strokeColor=none;fillColor=none;fontSize=19;" parent="WIyWlLk6GJQsqaUBKTNV-1" vertex="1">
          <mxGeometry x="528.07" y="3990" width="16" height="27" as="geometry" />
        </mxCell>
        <mxCell id="v0H0A3k1D_jODbU12yOE-52" value="+" style="text;html=1;align=center;verticalAlign=middle;resizable=0;points=[];autosize=1;strokeColor=none;fillColor=none;fontSize=19;" parent="WIyWlLk6GJQsqaUBKTNV-1" vertex="1">
          <mxGeometry x="426.25" y="4044" width="21" height="27" as="geometry" />
        </mxCell>
        <mxCell id="v0H0A3k1D_jODbU12yOE-53" value="&lt;font&gt;&lt;font style=&quot;font-size: 18px&quot;&gt;counter ++&lt;/font&gt;&lt;br&gt;&lt;/font&gt;" style="rounded=0;whiteSpace=wrap;html=1;fontColor=default;strokeColor=default;fillColor=default;" parent="WIyWlLk6GJQsqaUBKTNV-1" vertex="1">
          <mxGeometry x="386.82" y="4071" width="120" height="40" as="geometry" />
        </mxCell>
        <mxCell id="v0H0A3k1D_jODbU12yOE-54" value="" style="endArrow=none;html=1;rounded=0;fontSize=18;strokeWidth=2;" parent="WIyWlLk6GJQsqaUBKTNV-1" edge="1">
          <mxGeometry width="50" height="50" relative="1" as="geometry">
            <mxPoint x="447.75" y="4159" as="sourcePoint" />
            <mxPoint x="447.25" y="4111" as="targetPoint" />
          </mxGeometry>
        </mxCell>
        <mxCell id="v0H0A3k1D_jODbU12yOE-55" value="CountMax(X,max)" style="ellipse;whiteSpace=wrap;html=1;fontSize=18;strokeWidth=2;" parent="WIyWlLk6GJQsqaUBKTNV-1" vertex="1">
          <mxGeometry x="371.35" y="3659" width="150.95" height="70" as="geometry" />
        </mxCell>
        <mxCell id="v0H0A3k1D_jODbU12yOE-56" value="&lt;font&gt;&lt;font style=&quot;font-size: 18px&quot;&gt;bool b = false&lt;/font&gt;&lt;br&gt;&lt;/font&gt;" style="rounded=0;whiteSpace=wrap;html=1;fontColor=default;strokeColor=default;fillColor=default;" parent="WIyWlLk6GJQsqaUBKTNV-1" vertex="1">
          <mxGeometry x="386.82" y="3759" width="120" height="40" as="geometry" />
        </mxCell>
        <mxCell id="v0H0A3k1D_jODbU12yOE-57" value="" style="endArrow=none;html=1;rounded=0;fontSize=18;strokeWidth=2;" parent="WIyWlLk6GJQsqaUBKTNV-1" edge="1">
          <mxGeometry width="50" height="50" relative="1" as="geometry">
            <mxPoint x="446.75" y="3819" as="sourcePoint" />
            <mxPoint x="446.25" y="3799" as="targetPoint" />
          </mxGeometry>
        </mxCell>
        <mxCell id="v0H0A3k1D_jODbU12yOE-58" value="" style="line;strokeWidth=2;direction=south;html=1;fontSize=18;" parent="WIyWlLk6GJQsqaUBKTNV-1" vertex="1">
          <mxGeometry x="441.82" y="3909" width="10" height="20" as="geometry" />
        </mxCell>
        <mxCell id="v0H0A3k1D_jODbU12yOE-59" value="" style="line;strokeWidth=2;direction=south;html=1;fontSize=18;" parent="WIyWlLk6GJQsqaUBKTNV-1" vertex="1">
          <mxGeometry x="442.25" y="3959" width="10" height="20" as="geometry" />
        </mxCell>
        <mxCell id="v0H0A3k1D_jODbU12yOE-60" value="" style="endArrow=none;html=1;rounded=0;fontSize=18;strokeWidth=2;" parent="WIyWlLk6GJQsqaUBKTNV-1" edge="1">
          <mxGeometry width="50" height="50" relative="1" as="geometry">
            <mxPoint x="446.75" y="3759" as="sourcePoint" />
            <mxPoint x="446.25" y="3729" as="targetPoint" />
          </mxGeometry>
        </mxCell>
        <mxCell id="v0H0A3k1D_jODbU12yOE-61" value="" style="endArrow=none;html=1;rounded=0;fontSize=18;strokeWidth=2;" parent="WIyWlLk6GJQsqaUBKTNV-1" edge="1">
          <mxGeometry width="50" height="50" relative="1" as="geometry">
            <mxPoint x="589.75" y="4199" as="sourcePoint" />
            <mxPoint x="589.75" y="3894" as="targetPoint" />
          </mxGeometry>
        </mxCell>
        <mxCell id="v0H0A3k1D_jODbU12yOE-62" value="" style="endArrow=none;html=1;rounded=0;fontSize=18;strokeWidth=2;" parent="WIyWlLk6GJQsqaUBKTNV-1" edge="1">
          <mxGeometry width="50" height="50" relative="1" as="geometry">
            <mxPoint x="445.75" y="4199" as="sourcePoint" />
            <mxPoint x="589.75" y="4199" as="targetPoint" />
          </mxGeometry>
        </mxCell>
        <mxCell id="v0H0A3k1D_jODbU12yOE-63" value="" style="line;strokeWidth=2;direction=south;html=1;fontSize=18;" parent="WIyWlLk6GJQsqaUBKTNV-1" vertex="1">
          <mxGeometry x="441.82" y="4199" width="10" height="40" as="geometry" />
        </mxCell>
        <mxCell id="v0H0A3k1D_jODbU12yOE-64" value="&lt;font style=&quot;font-size: 17px&quot;&gt;counter == 1&lt;/font&gt;" style="rhombus;whiteSpace=wrap;html=1;fontSize=19;fontColor=default;strokeColor=default;fillColor=default;" parent="WIyWlLk6GJQsqaUBKTNV-1" vertex="1">
          <mxGeometry x="362.24999999999994" y="4233" width="165.86" height="70" as="geometry" />
        </mxCell>
        <mxCell id="v0H0A3k1D_jODbU12yOE-65" value="+" style="text;html=1;align=center;verticalAlign=middle;resizable=0;points=[];autosize=1;strokeColor=none;fillColor=none;fontSize=19;" parent="WIyWlLk6GJQsqaUBKTNV-1" vertex="1">
          <mxGeometry x="421.25" y="4303" width="21" height="27" as="geometry" />
        </mxCell>
        <mxCell id="v0H0A3k1D_jODbU12yOE-66" value="b = true" style="rounded=0;whiteSpace=wrap;html=1;fontSize=18;strokeWidth=2;" parent="WIyWlLk6GJQsqaUBKTNV-1" vertex="1">
          <mxGeometry x="385.18" y="4330" width="120" height="36" as="geometry" />
        </mxCell>
        <mxCell id="v0H0A3k1D_jODbU12yOE-67" value="" style="line;strokeWidth=2;direction=south;html=1;fontSize=18;" parent="WIyWlLk6GJQsqaUBKTNV-1" vertex="1">
          <mxGeometry x="441.82" y="4303" width="10" height="26" as="geometry" />
        </mxCell>
        <mxCell id="v0H0A3k1D_jODbU12yOE-68" value="-" style="text;html=1;align=center;verticalAlign=middle;resizable=0;points=[];autosize=1;strokeColor=none;fillColor=none;fontSize=19;" parent="WIyWlLk6GJQsqaUBKTNV-1" vertex="1">
          <mxGeometry x="528.07" y="4246" width="16" height="27" as="geometry" />
        </mxCell>
        <mxCell id="v0H0A3k1D_jODbU12yOE-69" value="" style="line;strokeWidth=2;html=1;fontSize=18;" parent="WIyWlLk6GJQsqaUBKTNV-1" vertex="1">
          <mxGeometry x="528.07" y="4263" width="37.68" height="10" as="geometry" />
        </mxCell>
        <mxCell id="v0H0A3k1D_jODbU12yOE-70" value="" style="line;strokeWidth=2;direction=south;html=1;fontSize=18;" parent="WIyWlLk6GJQsqaUBKTNV-1" vertex="1">
          <mxGeometry x="559.75" y="4268" width="10" height="131" as="geometry" />
        </mxCell>
        <mxCell id="v0H0A3k1D_jODbU12yOE-71" value="" style="line;strokeWidth=2;direction=south;html=1;fontSize=18;" parent="WIyWlLk6GJQsqaUBKTNV-1" vertex="1">
          <mxGeometry x="441.82" y="4366" width="10" height="53" as="geometry" />
        </mxCell>
        <mxCell id="v0H0A3k1D_jODbU12yOE-72" value="" style="endArrow=none;html=1;rounded=0;fontSize=18;strokeWidth=2;entryX=1;entryY=0.5;entryDx=0;entryDy=0;entryPerimeter=0;" parent="WIyWlLk6GJQsqaUBKTNV-1" target="v0H0A3k1D_jODbU12yOE-70" edge="1">
          <mxGeometry width="50" height="50" relative="1" as="geometry">
            <mxPoint x="447.25" y="4399" as="sourcePoint" />
            <mxPoint x="547.25" y="4399" as="targetPoint" />
          </mxGeometry>
        </mxCell>
        <mxCell id="v0H0A3k1D_jODbU12yOE-73" value="return b" style="rounded=0;whiteSpace=wrap;html=1;fontSize=18;strokeWidth=2;" parent="WIyWlLk6GJQsqaUBKTNV-1" vertex="1">
          <mxGeometry x="387.24" y="4419" width="120" height="36" as="geometry" />
        </mxCell>
        <mxCell id="v0H0A3k1D_jODbU12yOE-74" value="" style="endArrow=none;html=1;rounded=0;fontSize=16;strokeWidth=2;" parent="WIyWlLk6GJQsqaUBKTNV-1" edge="1">
          <mxGeometry width="50" height="50" relative="1" as="geometry">
            <mxPoint x="447.75" y="4485" as="sourcePoint" />
            <mxPoint x="447.25" y="4455" as="targetPoint" />
          </mxGeometry>
        </mxCell>
        <mxCell id="v0H0A3k1D_jODbU12yOE-75" value="Ավարտ" style="ellipse;whiteSpace=wrap;html=1;fontSize=16;strokeWidth=2;" parent="WIyWlLk6GJQsqaUBKTNV-1" vertex="1">
          <mxGeometry x="382.78" y="4475" width="128.93" height="50" as="geometry" />
        </mxCell>
        <mxCell id="v0H0A3k1D_jODbU12yOE-76" value="&lt;font style=&quot;font-size: 18px&quot;&gt;i = rowindex; i &amp;lt; row - 1; i++&lt;/font&gt;" style="shape=hexagon;perimeter=hexagonPerimeter2;whiteSpace=wrap;html=1;fixedSize=1;fontSize=22;fontColor=default;strokeColor=default;fillColor=default;" parent="WIyWlLk6GJQsqaUBKTNV-1" vertex="1">
          <mxGeometry x="307.7" y="4930" width="256.62" height="30" as="geometry" />
        </mxCell>
        <mxCell id="v0H0A3k1D_jODbU12yOE-77" value="&lt;font style=&quot;font-size: 18px&quot;&gt;j = 0 ; j &amp;lt; col; j++&lt;/font&gt;" style="shape=hexagon;perimeter=hexagonPerimeter2;whiteSpace=wrap;html=1;fixedSize=1;fontSize=22;fontColor=default;strokeColor=default;fillColor=default;" parent="WIyWlLk6GJQsqaUBKTNV-1" vertex="1">
          <mxGeometry x="307.7" y="4980" width="256.62" height="30" as="geometry" />
        </mxCell>
        <mxCell id="v0H0A3k1D_jODbU12yOE-78" value="" style="line;strokeWidth=2;direction=south;html=1;fontSize=20;" parent="WIyWlLk6GJQsqaUBKTNV-1" vertex="1">
          <mxGeometry x="431" y="4960" width="10" height="20" as="geometry" />
        </mxCell>
        <mxCell id="v0H0A3k1D_jODbU12yOE-79" value="&lt;span style=&quot;font-size: 16px&quot;&gt;&amp;nbsp; X[ i ][ j ] =&amp;nbsp;&lt;/span&gt;&lt;span style=&quot;font-size: 16px&quot;&gt;X[ i + 1][ j ]&amp;nbsp;&lt;/span&gt;" style="rounded=0;whiteSpace=wrap;html=1;fontSize=20;" parent="WIyWlLk6GJQsqaUBKTNV-1" vertex="1">
          <mxGeometry x="354" y="5030" width="164" height="60" as="geometry" />
        </mxCell>
        <mxCell id="v0H0A3k1D_jODbU12yOE-80" value="" style="line;strokeWidth=2;direction=south;html=1;fontSize=20;" parent="WIyWlLk6GJQsqaUBKTNV-1" vertex="1">
          <mxGeometry x="431" y="5010" width="10" height="20" as="geometry" />
        </mxCell>
        <mxCell id="v0H0A3k1D_jODbU12yOE-81" value="" style="line;strokeWidth=2;direction=south;html=1;fontSize=20;" parent="WIyWlLk6GJQsqaUBKTNV-1" vertex="1">
          <mxGeometry x="431" y="5090" width="10" height="20" as="geometry" />
        </mxCell>
        <mxCell id="v0H0A3k1D_jODbU12yOE-82" value="" style="endArrow=none;html=1;rounded=0;fontSize=20;strokeWidth=2;" parent="WIyWlLk6GJQsqaUBKTNV-1" edge="1">
          <mxGeometry width="50" height="50" relative="1" as="geometry">
            <mxPoint x="280" y="5110" as="sourcePoint" />
            <mxPoint x="436" y="5110" as="targetPoint" />
          </mxGeometry>
        </mxCell>
        <mxCell id="v0H0A3k1D_jODbU12yOE-83" value="" style="endArrow=none;html=1;rounded=0;fontSize=20;strokeWidth=2;entryX=0.525;entryY=0.65;entryDx=0;entryDy=0;entryPerimeter=0;" parent="WIyWlLk6GJQsqaUBKTNV-1" edge="1">
          <mxGeometry width="50" height="50" relative="1" as="geometry">
            <mxPoint x="280" y="5110" as="sourcePoint" />
            <mxPoint x="281" y="4995" as="targetPoint" />
          </mxGeometry>
        </mxCell>
        <mxCell id="v0H0A3k1D_jODbU12yOE-84" value="" style="endArrow=classic;html=1;rounded=0;fontSize=20;strokeWidth=2;startArrow=none;" parent="WIyWlLk6GJQsqaUBKTNV-1" source="v0H0A3k1D_jODbU12yOE-86" edge="1">
          <mxGeometry width="50" height="50" relative="1" as="geometry">
            <mxPoint x="281" y="4995" as="sourcePoint" />
            <mxPoint x="313" y="4994.5" as="targetPoint" />
          </mxGeometry>
        </mxCell>
        <mxCell id="v0H0A3k1D_jODbU12yOE-85" value="" style="endArrow=none;html=1;rounded=0;fontSize=20;strokeWidth=2;" parent="WIyWlLk6GJQsqaUBKTNV-1" edge="1">
          <mxGeometry width="50" height="50" relative="1" as="geometry">
            <mxPoint x="280" y="4995" as="sourcePoint" />
            <mxPoint x="281" y="4995" as="targetPoint" />
          </mxGeometry>
        </mxCell>
        <mxCell id="v0H0A3k1D_jODbU12yOE-86" value="" style="line;strokeWidth=2;html=1;fontSize=20;" parent="WIyWlLk6GJQsqaUBKTNV-1" vertex="1">
          <mxGeometry x="280" y="4990" width="29" height="10" as="geometry" />
        </mxCell>
        <mxCell id="v0H0A3k1D_jODbU12yOE-87" value="" style="endArrow=none;html=1;rounded=0;fontSize=20;strokeWidth=2;startArrow=none;" parent="WIyWlLk6GJQsqaUBKTNV-1" target="v0H0A3k1D_jODbU12yOE-86" edge="1">
          <mxGeometry width="50" height="50" relative="1" as="geometry">
            <mxPoint x="281" y="4995" as="sourcePoint" />
            <mxPoint x="313" y="4994.5" as="targetPoint" />
          </mxGeometry>
        </mxCell>
        <mxCell id="v0H0A3k1D_jODbU12yOE-88" value="" style="line;strokeWidth=2;html=1;fontSize=20;" parent="WIyWlLk6GJQsqaUBKTNV-1" vertex="1">
          <mxGeometry x="564.3199999999999" y="4990" width="35.68" height="10" as="geometry" />
        </mxCell>
        <mxCell id="v0H0A3k1D_jODbU12yOE-89" value="" style="endArrow=none;html=1;rounded=0;fontSize=20;strokeWidth=2;entryX=1;entryY=0.5;entryDx=0;entryDy=0;entryPerimeter=0;" parent="WIyWlLk6GJQsqaUBKTNV-1" target="v0H0A3k1D_jODbU12yOE-88" edge="1">
          <mxGeometry width="50" height="50" relative="1" as="geometry">
            <mxPoint x="600" y="5130" as="sourcePoint" />
            <mxPoint x="599" y="5010" as="targetPoint" />
          </mxGeometry>
        </mxCell>
        <mxCell id="v0H0A3k1D_jODbU12yOE-90" value="" style="endArrow=none;html=1;rounded=0;fontSize=20;strokeWidth=2;" parent="WIyWlLk6GJQsqaUBKTNV-1" edge="1">
          <mxGeometry width="50" height="50" relative="1" as="geometry">
            <mxPoint x="260" y="5130" as="sourcePoint" />
            <mxPoint x="600" y="5130" as="targetPoint" />
          </mxGeometry>
        </mxCell>
        <mxCell id="v0H0A3k1D_jODbU12yOE-91" value="" style="endArrow=none;html=1;rounded=0;fontSize=20;strokeWidth=2;entryX=0.55;entryY=0.675;entryDx=0;entryDy=0;entryPerimeter=0;" parent="WIyWlLk6GJQsqaUBKTNV-1" edge="1">
          <mxGeometry width="50" height="50" relative="1" as="geometry">
            <mxPoint x="260" y="5130" as="sourcePoint" />
            <mxPoint x="260" y="4945" as="targetPoint" />
          </mxGeometry>
        </mxCell>
        <mxCell id="v0H0A3k1D_jODbU12yOE-92" value="" style="endArrow=classic;html=1;rounded=0;fontSize=20;strokeWidth=2;startArrow=none;" parent="WIyWlLk6GJQsqaUBKTNV-1" edge="1">
          <mxGeometry width="50" height="50" relative="1" as="geometry">
            <mxPoint x="260" y="4945" as="sourcePoint" />
            <mxPoint x="313" y="4944.5" as="targetPoint" />
          </mxGeometry>
        </mxCell>
        <mxCell id="v0H0A3k1D_jODbU12yOE-93" value="" style="endArrow=none;html=1;rounded=0;fontSize=20;strokeWidth=2;" parent="WIyWlLk6GJQsqaUBKTNV-1" edge="1">
          <mxGeometry width="50" height="50" relative="1" as="geometry">
            <mxPoint x="260" y="4945" as="sourcePoint" />
            <mxPoint x="260" y="4945" as="targetPoint" />
          </mxGeometry>
        </mxCell>
        <mxCell id="v0H0A3k1D_jODbU12yOE-94" value="" style="line;strokeWidth=2;html=1;fontSize=20;" parent="WIyWlLk6GJQsqaUBKTNV-1" vertex="1">
          <mxGeometry x="564.3199999999999" y="4940" width="55.68" height="10" as="geometry" />
        </mxCell>
        <mxCell id="v0H0A3k1D_jODbU12yOE-95" value="" style="endArrow=none;html=1;rounded=0;fontSize=20;strokeWidth=2;" parent="WIyWlLk6GJQsqaUBKTNV-1" edge="1">
          <mxGeometry width="50" height="50" relative="1" as="geometry">
            <mxPoint x="620" y="5150" as="sourcePoint" />
            <mxPoint x="620" y="4945" as="targetPoint" />
          </mxGeometry>
        </mxCell>
        <mxCell id="v0H0A3k1D_jODbU12yOE-96" value="" style="endArrow=none;html=1;rounded=0;fontSize=20;strokeWidth=2;exitX=0.45;exitY=0.625;exitDx=0;exitDy=0;exitPerimeter=0;" parent="WIyWlLk6GJQsqaUBKTNV-1" edge="1">
          <mxGeometry width="50" height="50" relative="1" as="geometry">
            <mxPoint x="435" y="5150" as="sourcePoint" />
            <mxPoint x="620" y="5150" as="targetPoint" />
          </mxGeometry>
        </mxCell>
        <mxCell id="v0H0A3k1D_jODbU12yOE-97" value="" style="endArrow=none;html=1;rounded=0;fontSize=20;strokeWidth=2;startArrow=none;" parent="WIyWlLk6GJQsqaUBKTNV-1" edge="1">
          <mxGeometry width="50" height="50" relative="1" as="geometry">
            <mxPoint x="435" y="5150" as="sourcePoint" />
            <mxPoint x="434.5" y="5150" as="targetPoint" />
          </mxGeometry>
        </mxCell>
        <mxCell id="v0H0A3k1D_jODbU12yOE-98" value="&lt;font style=&quot;font-size: 18px&quot;&gt;j = colindex; j &amp;lt; col - 1; j++&lt;/font&gt;" style="shape=hexagon;perimeter=hexagonPerimeter2;whiteSpace=wrap;html=1;fixedSize=1;fontSize=22;fontColor=default;strokeColor=default;fillColor=default;" parent="WIyWlLk6GJQsqaUBKTNV-1" vertex="1">
          <mxGeometry x="306.7" y="5183" width="256.62" height="30" as="geometry" />
        </mxCell>
        <mxCell id="v0H0A3k1D_jODbU12yOE-99" value="&lt;font style=&quot;font-size: 18px&quot;&gt;i = 0 ; i &amp;lt; row; i++&lt;/font&gt;" style="shape=hexagon;perimeter=hexagonPerimeter2;whiteSpace=wrap;html=1;fixedSize=1;fontSize=22;fontColor=default;strokeColor=default;fillColor=default;" parent="WIyWlLk6GJQsqaUBKTNV-1" vertex="1">
          <mxGeometry x="306.7" y="5233" width="256.62" height="30" as="geometry" />
        </mxCell>
        <mxCell id="v0H0A3k1D_jODbU12yOE-100" value="" style="line;strokeWidth=2;direction=south;html=1;fontSize=20;" parent="WIyWlLk6GJQsqaUBKTNV-1" vertex="1">
          <mxGeometry x="430" y="5213" width="10" height="20" as="geometry" />
        </mxCell>
        <mxCell id="v0H0A3k1D_jODbU12yOE-101" value="&lt;span style=&quot;font-size: 16px&quot;&gt;&amp;nbsp;X[ i ][ j ] =&amp;nbsp;&lt;/span&gt;&lt;span style=&quot;font-size: 16px&quot;&gt;X[ i ][ j + 1]&amp;nbsp;&lt;/span&gt;" style="rounded=0;whiteSpace=wrap;html=1;fontSize=20;" parent="WIyWlLk6GJQsqaUBKTNV-1" vertex="1">
          <mxGeometry x="353" y="5283" width="164" height="60" as="geometry" />
        </mxCell>
        <mxCell id="v0H0A3k1D_jODbU12yOE-102" value="" style="line;strokeWidth=2;direction=south;html=1;fontSize=20;" parent="WIyWlLk6GJQsqaUBKTNV-1" vertex="1">
          <mxGeometry x="430" y="5263" width="10" height="20" as="geometry" />
        </mxCell>
        <mxCell id="v0H0A3k1D_jODbU12yOE-103" value="" style="line;strokeWidth=2;direction=south;html=1;fontSize=20;" parent="WIyWlLk6GJQsqaUBKTNV-1" vertex="1">
          <mxGeometry x="430" y="5343" width="10" height="20" as="geometry" />
        </mxCell>
        <mxCell id="v0H0A3k1D_jODbU12yOE-104" value="" style="endArrow=none;html=1;rounded=0;fontSize=20;strokeWidth=2;" parent="WIyWlLk6GJQsqaUBKTNV-1" edge="1">
          <mxGeometry width="50" height="50" relative="1" as="geometry">
            <mxPoint x="279" y="5363" as="sourcePoint" />
            <mxPoint x="435" y="5363" as="targetPoint" />
          </mxGeometry>
        </mxCell>
        <mxCell id="v0H0A3k1D_jODbU12yOE-105" value="" style="endArrow=none;html=1;rounded=0;fontSize=20;strokeWidth=2;entryX=0.525;entryY=0.65;entryDx=0;entryDy=0;entryPerimeter=0;" parent="WIyWlLk6GJQsqaUBKTNV-1" edge="1">
          <mxGeometry width="50" height="50" relative="1" as="geometry">
            <mxPoint x="279" y="5363" as="sourcePoint" />
            <mxPoint x="280" y="5248" as="targetPoint" />
          </mxGeometry>
        </mxCell>
        <mxCell id="v0H0A3k1D_jODbU12yOE-106" value="" style="endArrow=classic;html=1;rounded=0;fontSize=20;strokeWidth=2;startArrow=none;" parent="WIyWlLk6GJQsqaUBKTNV-1" source="v0H0A3k1D_jODbU12yOE-108" edge="1">
          <mxGeometry width="50" height="50" relative="1" as="geometry">
            <mxPoint x="280" y="5248" as="sourcePoint" />
            <mxPoint x="312" y="5247.5" as="targetPoint" />
          </mxGeometry>
        </mxCell>
        <mxCell id="v0H0A3k1D_jODbU12yOE-107" value="" style="endArrow=none;html=1;rounded=0;fontSize=20;strokeWidth=2;" parent="WIyWlLk6GJQsqaUBKTNV-1" edge="1">
          <mxGeometry width="50" height="50" relative="1" as="geometry">
            <mxPoint x="279" y="5248" as="sourcePoint" />
            <mxPoint x="280" y="5248" as="targetPoint" />
          </mxGeometry>
        </mxCell>
        <mxCell id="v0H0A3k1D_jODbU12yOE-108" value="" style="line;strokeWidth=2;html=1;fontSize=20;" parent="WIyWlLk6GJQsqaUBKTNV-1" vertex="1">
          <mxGeometry x="279" y="5243" width="29" height="10" as="geometry" />
        </mxCell>
        <mxCell id="v0H0A3k1D_jODbU12yOE-109" value="" style="endArrow=none;html=1;rounded=0;fontSize=20;strokeWidth=2;startArrow=none;" parent="WIyWlLk6GJQsqaUBKTNV-1" target="v0H0A3k1D_jODbU12yOE-108" edge="1">
          <mxGeometry width="50" height="50" relative="1" as="geometry">
            <mxPoint x="280" y="5248" as="sourcePoint" />
            <mxPoint x="312" y="5247.5" as="targetPoint" />
          </mxGeometry>
        </mxCell>
        <mxCell id="v0H0A3k1D_jODbU12yOE-110" value="" style="line;strokeWidth=2;html=1;fontSize=20;" parent="WIyWlLk6GJQsqaUBKTNV-1" vertex="1">
          <mxGeometry x="563.3199999999999" y="5243" width="35.68" height="10" as="geometry" />
        </mxCell>
        <mxCell id="v0H0A3k1D_jODbU12yOE-111" value="" style="endArrow=none;html=1;rounded=0;fontSize=20;strokeWidth=2;entryX=1;entryY=0.5;entryDx=0;entryDy=0;entryPerimeter=0;" parent="WIyWlLk6GJQsqaUBKTNV-1" target="v0H0A3k1D_jODbU12yOE-110" edge="1">
          <mxGeometry width="50" height="50" relative="1" as="geometry">
            <mxPoint x="599" y="5383" as="sourcePoint" />
            <mxPoint x="598" y="5263" as="targetPoint" />
          </mxGeometry>
        </mxCell>
        <mxCell id="v0H0A3k1D_jODbU12yOE-112" value="" style="endArrow=none;html=1;rounded=0;fontSize=20;strokeWidth=2;" parent="WIyWlLk6GJQsqaUBKTNV-1" edge="1">
          <mxGeometry width="50" height="50" relative="1" as="geometry">
            <mxPoint x="259" y="5383" as="sourcePoint" />
            <mxPoint x="599" y="5383" as="targetPoint" />
          </mxGeometry>
        </mxCell>
        <mxCell id="v0H0A3k1D_jODbU12yOE-113" value="" style="endArrow=none;html=1;rounded=0;fontSize=20;strokeWidth=2;entryX=0.55;entryY=0.675;entryDx=0;entryDy=0;entryPerimeter=0;" parent="WIyWlLk6GJQsqaUBKTNV-1" edge="1">
          <mxGeometry width="50" height="50" relative="1" as="geometry">
            <mxPoint x="259" y="5383" as="sourcePoint" />
            <mxPoint x="259" y="5198" as="targetPoint" />
          </mxGeometry>
        </mxCell>
        <mxCell id="v0H0A3k1D_jODbU12yOE-114" value="" style="endArrow=classic;html=1;rounded=0;fontSize=20;strokeWidth=2;startArrow=none;" parent="WIyWlLk6GJQsqaUBKTNV-1" edge="1">
          <mxGeometry width="50" height="50" relative="1" as="geometry">
            <mxPoint x="259" y="5198" as="sourcePoint" />
            <mxPoint x="312" y="5197.5" as="targetPoint" />
          </mxGeometry>
        </mxCell>
        <mxCell id="v0H0A3k1D_jODbU12yOE-115" value="" style="endArrow=none;html=1;rounded=0;fontSize=20;strokeWidth=2;" parent="WIyWlLk6GJQsqaUBKTNV-1" edge="1">
          <mxGeometry width="50" height="50" relative="1" as="geometry">
            <mxPoint x="259" y="5198" as="sourcePoint" />
            <mxPoint x="259" y="5198" as="targetPoint" />
          </mxGeometry>
        </mxCell>
        <mxCell id="v0H0A3k1D_jODbU12yOE-116" value="" style="line;strokeWidth=2;html=1;fontSize=20;" parent="WIyWlLk6GJQsqaUBKTNV-1" vertex="1">
          <mxGeometry x="563.3199999999999" y="5193" width="55.68" height="10" as="geometry" />
        </mxCell>
        <mxCell id="v0H0A3k1D_jODbU12yOE-117" value="" style="endArrow=none;html=1;rounded=0;fontSize=20;strokeWidth=2;" parent="WIyWlLk6GJQsqaUBKTNV-1" edge="1">
          <mxGeometry width="50" height="50" relative="1" as="geometry">
            <mxPoint x="619" y="5410" as="sourcePoint" />
            <mxPoint x="619" y="5198" as="targetPoint" />
          </mxGeometry>
        </mxCell>
        <mxCell id="v0H0A3k1D_jODbU12yOE-118" value="" style="endArrow=none;html=1;rounded=0;fontSize=20;strokeWidth=2;" parent="WIyWlLk6GJQsqaUBKTNV-1" edge="1">
          <mxGeometry width="50" height="50" relative="1" as="geometry">
            <mxPoint x="435" y="5183" as="sourcePoint" />
            <mxPoint x="435" y="5150" as="targetPoint" />
          </mxGeometry>
        </mxCell>
        <mxCell id="v0H0A3k1D_jODbU12yOE-119" value="" style="endArrow=none;html=1;rounded=0;fontSize=20;strokeWidth=2;exitX=0.575;exitY=0.525;exitDx=0;exitDy=0;exitPerimeter=0;" parent="WIyWlLk6GJQsqaUBKTNV-1" edge="1">
          <mxGeometry width="50" height="50" relative="1" as="geometry">
            <mxPoint x="435" y="5410" as="sourcePoint" />
            <mxPoint x="620" y="5410" as="targetPoint" />
          </mxGeometry>
        </mxCell>
        <mxCell id="v0H0A3k1D_jODbU12yOE-120" value="" style="endArrow=none;html=1;rounded=0;fontSize=20;strokeWidth=2;startArrow=none;" parent="WIyWlLk6GJQsqaUBKTNV-1" edge="1">
          <mxGeometry width="50" height="50" relative="1" as="geometry">
            <mxPoint x="435" y="5410" as="sourcePoint" />
            <mxPoint x="434.5" y="5410" as="targetPoint" />
          </mxGeometry>
        </mxCell>
        <mxCell id="v0H0A3k1D_jODbU12yOE-121" value="&lt;font style=&quot;font-size: 17px&quot;&gt;ChangeMatrix(X,rowindex,colindex)&lt;/font&gt;" style="ellipse;whiteSpace=wrap;html=1;fontSize=18;strokeWidth=2;" parent="WIyWlLk6GJQsqaUBKTNV-1" vertex="1">
          <mxGeometry x="295" y="4820" width="280" height="80" as="geometry" />
        </mxCell>
        <mxCell id="v0H0A3k1D_jODbU12yOE-122" value="" style="line;strokeWidth=2;direction=south;html=1;fontSize=17;" parent="WIyWlLk6GJQsqaUBKTNV-1" vertex="1">
          <mxGeometry x="431.01" y="4900" width="10" height="30" as="geometry" />
        </mxCell>
        <mxCell id="v0H0A3k1D_jODbU12yOE-123" value="" style="endArrow=none;html=1;rounded=0;fontSize=16;strokeWidth=2;" parent="WIyWlLk6GJQsqaUBKTNV-1" edge="1">
          <mxGeometry width="50" height="50" relative="1" as="geometry">
            <mxPoint x="437.1100000000001" y="5440" as="sourcePoint" />
            <mxPoint x="436.6100000000001" y="5410" as="targetPoint" />
          </mxGeometry>
        </mxCell>
        <mxCell id="v0H0A3k1D_jODbU12yOE-124" value="Ավարտ" style="ellipse;whiteSpace=wrap;html=1;fontSize=16;strokeWidth=2;" parent="WIyWlLk6GJQsqaUBKTNV-1" vertex="1">
          <mxGeometry x="360.08" y="5430" width="153.92" height="60" as="geometry" />
        </mxCell>
        <mxCell id="v0H0A3k1D_jODbU12yOE-254" value="&lt;font style=&quot;font-size: 19px&quot;&gt;Սկիզբ&lt;/font&gt;" style="ellipse;whiteSpace=wrap;html=1;fontSize=25;fontColor=default;strokeColor=default;fillColor=default;" parent="WIyWlLk6GJQsqaUBKTNV-1" vertex="1">
          <mxGeometry x="359.38" y="6210" width="115" height="40" as="geometry" />
        </mxCell>
        <mxCell id="v0H0A3k1D_jODbU12yOE-255" value="row" style="shape=parallelogram;perimeter=parallelogramPerimeter;whiteSpace=wrap;html=1;fixedSize=1;fontSize=19;fontColor=default;strokeColor=default;fillColor=default;" parent="WIyWlLk6GJQsqaUBKTNV-1" vertex="1">
          <mxGeometry x="366.88" y="6280" width="100" height="30" as="geometry" />
        </mxCell>
        <mxCell id="v0H0A3k1D_jODbU12yOE-256" value="col" style="shape=parallelogram;perimeter=parallelogramPerimeter;whiteSpace=wrap;html=1;fixedSize=1;fontSize=19;fontColor=default;strokeColor=default;fillColor=default;" parent="WIyWlLk6GJQsqaUBKTNV-1" vertex="1">
          <mxGeometry x="366.88" y="6430" width="100" height="30" as="geometry" />
        </mxCell>
        <mxCell id="v0H0A3k1D_jODbU12yOE-257" value="" style="endArrow=none;html=1;rounded=0;labelBackgroundColor=default;fontSize=19;fontColor=default;strokeColor=default;strokeWidth=2;fillColor=default;" parent="WIyWlLk6GJQsqaUBKTNV-1" edge="1">
          <mxGeometry width="50" height="50" relative="1" as="geometry">
            <mxPoint x="416.38" y="6280" as="sourcePoint" />
            <mxPoint x="416.38" y="6250" as="targetPoint" />
          </mxGeometry>
        </mxCell>
        <mxCell id="v0H0A3k1D_jODbU12yOE-258" value="" style="edgeStyle=orthogonalEdgeStyle;rounded=0;orthogonalLoop=1;jettySize=auto;html=1;labelBackgroundColor=default;fontSize=22;fontColor=default;strokeColor=default;strokeWidth=2;fillColor=default;" parent="WIyWlLk6GJQsqaUBKTNV-1" source="v0H0A3k1D_jODbU12yOE-259" edge="1">
          <mxGeometry relative="1" as="geometry">
            <mxPoint x="286.4799999999999" y="6265" as="targetPoint" />
          </mxGeometry>
        </mxCell>
        <mxCell id="v0H0A3k1D_jODbU12yOE-259" value="&lt;font style=&quot;font-size: 14px&quot;&gt;row &amp;lt; 2 || row &amp;gt; K&lt;/font&gt;" style="rhombus;whiteSpace=wrap;html=1;fontSize=19;fontColor=default;strokeColor=default;fillColor=default;" parent="WIyWlLk6GJQsqaUBKTNV-1" vertex="1">
          <mxGeometry x="336.02" y="6330" width="161.72" height="70" as="geometry" />
        </mxCell>
        <mxCell id="v0H0A3k1D_jODbU12yOE-260" value="" style="endArrow=none;html=1;rounded=0;labelBackgroundColor=default;fontSize=14;fontColor=default;strokeColor=default;strokeWidth=2;fillColor=default;" parent="WIyWlLk6GJQsqaUBKTNV-1" edge="1">
          <mxGeometry width="50" height="50" relative="1" as="geometry">
            <mxPoint x="416.38" y="6330" as="sourcePoint" />
            <mxPoint x="416.3699999999998" y="6310" as="targetPoint" />
          </mxGeometry>
        </mxCell>
        <mxCell id="v0H0A3k1D_jODbU12yOE-261" value="" style="endArrow=classic;html=1;rounded=0;labelBackgroundColor=default;fontSize=22;fontColor=default;strokeColor=default;strokeWidth=2;fillColor=default;" parent="WIyWlLk6GJQsqaUBKTNV-1" edge="1">
          <mxGeometry width="50" height="50" relative="1" as="geometry">
            <mxPoint x="289.38" y="6270" as="sourcePoint" />
            <mxPoint x="419.38" y="6270" as="targetPoint" />
          </mxGeometry>
        </mxCell>
        <mxCell id="v0H0A3k1D_jODbU12yOE-262" value="" style="edgeStyle=orthogonalEdgeStyle;rounded=0;orthogonalLoop=1;jettySize=auto;html=1;labelBackgroundColor=default;fontSize=22;fontColor=default;strokeColor=default;strokeWidth=2;fillColor=default;" parent="WIyWlLk6GJQsqaUBKTNV-1" source="v0H0A3k1D_jODbU12yOE-263" edge="1">
          <mxGeometry relative="1" as="geometry">
            <mxPoint x="286.4799999999999" y="6417.5" as="targetPoint" />
          </mxGeometry>
        </mxCell>
        <mxCell id="v0H0A3k1D_jODbU12yOE-263" value="&lt;font style=&quot;font-size: 14px&quot;&gt;col &amp;lt; 2 || col &amp;gt; K&lt;/font&gt;" style="rhombus;whiteSpace=wrap;html=1;fontSize=19;fontColor=default;strokeColor=default;fillColor=default;" parent="WIyWlLk6GJQsqaUBKTNV-1" vertex="1">
          <mxGeometry x="336.02" y="6480" width="161.72" height="70" as="geometry" />
        </mxCell>
        <mxCell id="v0H0A3k1D_jODbU12yOE-264" value="" style="endArrow=none;html=1;rounded=0;labelBackgroundColor=default;fontSize=22;fontColor=default;strokeColor=default;strokeWidth=2;fillColor=default;" parent="WIyWlLk6GJQsqaUBKTNV-1" edge="1">
          <mxGeometry width="50" height="50" relative="1" as="geometry">
            <mxPoint x="416.38" y="6460" as="sourcePoint" />
            <mxPoint x="416.38" y="6470" as="targetPoint" />
            <Array as="points">
              <mxPoint x="416.38" y="6480" />
            </Array>
          </mxGeometry>
        </mxCell>
        <mxCell id="v0H0A3k1D_jODbU12yOE-265" value="" style="endArrow=none;html=1;rounded=0;labelBackgroundColor=default;fontSize=22;fontColor=default;strokeColor=default;strokeWidth=2;fillColor=default;" parent="WIyWlLk6GJQsqaUBKTNV-1" edge="1">
          <mxGeometry width="50" height="50" relative="1" as="geometry">
            <mxPoint x="416.38" y="6400" as="sourcePoint" />
            <mxPoint x="416.38" y="6430" as="targetPoint" />
          </mxGeometry>
        </mxCell>
        <mxCell id="v0H0A3k1D_jODbU12yOE-266" value="" style="endArrow=none;html=1;rounded=0;labelBackgroundColor=default;fontSize=22;fontColor=default;strokeColor=default;strokeWidth=2;fillColor=default;" parent="WIyWlLk6GJQsqaUBKTNV-1" edge="1">
          <mxGeometry width="50" height="50" relative="1" as="geometry">
            <mxPoint x="286.01999999999987" y="6420" as="sourcePoint" />
            <mxPoint x="336.01999999999987" y="6420" as="targetPoint" />
          </mxGeometry>
        </mxCell>
        <mxCell id="v0H0A3k1D_jODbU12yOE-267" value="" style="endArrow=classic;html=1;rounded=0;labelBackgroundColor=default;fontSize=22;fontColor=default;strokeColor=default;strokeWidth=2;fillColor=default;" parent="WIyWlLk6GJQsqaUBKTNV-1" edge="1">
          <mxGeometry width="50" height="50" relative="1" as="geometry">
            <mxPoint x="329.38" y="6420" as="sourcePoint" />
            <mxPoint x="419.38" y="6420" as="targetPoint" />
          </mxGeometry>
        </mxCell>
        <mxCell id="v0H0A3k1D_jODbU12yOE-268" value="&lt;font style=&quot;font-size: 18px&quot;&gt;i = 0; i &amp;lt; row; i++&lt;/font&gt;" style="shape=hexagon;perimeter=hexagonPerimeter2;whiteSpace=wrap;html=1;fixedSize=1;fontSize=22;fontColor=default;strokeColor=default;fillColor=default;" parent="WIyWlLk6GJQsqaUBKTNV-1" vertex="1">
          <mxGeometry x="315.63" y="6579" width="202.5" height="30" as="geometry" />
        </mxCell>
        <mxCell id="v0H0A3k1D_jODbU12yOE-269" value="&lt;font style=&quot;font-size: 18px&quot;&gt;j = 0; j &amp;lt; col; j++&lt;/font&gt;" style="shape=hexagon;perimeter=hexagonPerimeter2;whiteSpace=wrap;html=1;fixedSize=1;fontSize=22;fontColor=default;strokeColor=default;fillColor=default;" parent="WIyWlLk6GJQsqaUBKTNV-1" vertex="1">
          <mxGeometry x="315.63" y="6629" width="202.5" height="30" as="geometry" />
        </mxCell>
        <mxCell id="v0H0A3k1D_jODbU12yOE-270" value="" style="endArrow=none;html=1;rounded=0;labelBackgroundColor=default;fontSize=18;fontColor=default;strokeColor=default;strokeWidth=2;fillColor=default;" parent="WIyWlLk6GJQsqaUBKTNV-1" edge="1">
          <mxGeometry width="50" height="50" relative="1" as="geometry">
            <mxPoint x="416.38" y="6629" as="sourcePoint" />
            <mxPoint x="416.38" y="6609" as="targetPoint" />
          </mxGeometry>
        </mxCell>
        <mxCell id="v0H0A3k1D_jODbU12yOE-271" value="X[ i ][ j ]" style="shape=parallelogram;perimeter=parallelogramPerimeter;whiteSpace=wrap;html=1;fixedSize=1;fontSize=19;fontColor=default;strokeColor=default;fillColor=default;" parent="WIyWlLk6GJQsqaUBKTNV-1" vertex="1">
          <mxGeometry x="364.38" y="6679" width="100" height="30" as="geometry" />
        </mxCell>
        <mxCell id="v0H0A3k1D_jODbU12yOE-272" value="" style="edgeStyle=orthogonalEdgeStyle;rounded=0;orthogonalLoop=1;jettySize=auto;html=1;labelBackgroundColor=default;fontSize=17;fontColor=default;strokeColor=default;strokeWidth=2;fillColor=default;" parent="WIyWlLk6GJQsqaUBKTNV-1" source="v0H0A3k1D_jODbU12yOE-273" edge="1">
          <mxGeometry relative="1" as="geometry">
            <mxPoint x="284.38" y="6664" as="targetPoint" />
          </mxGeometry>
        </mxCell>
        <mxCell id="v0H0A3k1D_jODbU12yOE-273" value="&lt;font style=&quot;font-size: 17px&quot;&gt;X[ i ][ j ] &amp;lt;= 0&amp;nbsp;&lt;/font&gt;" style="rhombus;whiteSpace=wrap;html=1;fontSize=19;fontColor=default;strokeColor=default;fillColor=default;" parent="WIyWlLk6GJQsqaUBKTNV-1" vertex="1">
          <mxGeometry x="333.52" y="6729" width="165.86" height="70" as="geometry" />
        </mxCell>
        <mxCell id="v0H0A3k1D_jODbU12yOE-274" value="" style="endArrow=none;html=1;rounded=0;labelBackgroundColor=default;fontSize=17;fontColor=default;strokeColor=default;strokeWidth=2;fillColor=default;" parent="WIyWlLk6GJQsqaUBKTNV-1" edge="1">
          <mxGeometry width="50" height="50" relative="1" as="geometry">
            <mxPoint x="416.38" y="6679" as="sourcePoint" />
            <mxPoint x="416.38" y="6659" as="targetPoint" />
          </mxGeometry>
        </mxCell>
        <mxCell id="v0H0A3k1D_jODbU12yOE-275" value="" style="endArrow=none;html=1;rounded=0;labelBackgroundColor=default;fontSize=17;fontColor=default;strokeColor=default;strokeWidth=2;fillColor=default;" parent="WIyWlLk6GJQsqaUBKTNV-1" edge="1">
          <mxGeometry width="50" height="50" relative="1" as="geometry">
            <mxPoint x="416.38" y="6729" as="sourcePoint" />
            <mxPoint x="416.38" y="6709" as="targetPoint" />
          </mxGeometry>
        </mxCell>
        <mxCell id="v0H0A3k1D_jODbU12yOE-276" value="" style="endArrow=classic;html=1;rounded=0;labelBackgroundColor=default;fontSize=17;fontColor=default;strokeColor=default;strokeWidth=2;fillColor=default;" parent="WIyWlLk6GJQsqaUBKTNV-1" edge="1">
          <mxGeometry width="50" height="50" relative="1" as="geometry">
            <mxPoint x="285.63" y="6669" as="sourcePoint" />
            <mxPoint x="419.38" y="6669" as="targetPoint" />
          </mxGeometry>
        </mxCell>
        <mxCell id="v0H0A3k1D_jODbU12yOE-277" value="" style="endArrow=none;html=1;rounded=0;labelBackgroundColor=default;fontSize=17;fontColor=default;strokeColor=default;strokeWidth=2;fillColor=default;" parent="WIyWlLk6GJQsqaUBKTNV-1" edge="1">
          <mxGeometry width="50" height="50" relative="1" as="geometry">
            <mxPoint x="416.38" y="6819" as="sourcePoint" />
            <mxPoint x="416.38" y="6799" as="targetPoint" />
          </mxGeometry>
        </mxCell>
        <mxCell id="v0H0A3k1D_jODbU12yOE-278" value="" style="endArrow=none;html=1;rounded=0;labelBackgroundColor=default;fontSize=16;fontColor=default;strokeColor=default;strokeWidth=2;fillColor=default;" parent="WIyWlLk6GJQsqaUBKTNV-1" edge="1">
          <mxGeometry width="50" height="50" relative="1" as="geometry">
            <mxPoint x="259.38" y="6819" as="sourcePoint" />
            <mxPoint x="416.6800000000002" y="6819" as="targetPoint" />
          </mxGeometry>
        </mxCell>
        <mxCell id="v0H0A3k1D_jODbU12yOE-279" value="" style="endArrow=classic;html=1;rounded=0;labelBackgroundColor=default;fontSize=16;fontColor=default;strokeColor=default;strokeWidth=2;fillColor=default;" parent="WIyWlLk6GJQsqaUBKTNV-1" edge="1">
          <mxGeometry width="50" height="50" relative="1" as="geometry">
            <mxPoint x="259.38" y="6644" as="sourcePoint" />
            <mxPoint x="319.38" y="6644" as="targetPoint" />
          </mxGeometry>
        </mxCell>
        <mxCell id="v0H0A3k1D_jODbU12yOE-280" value="" style="endArrow=none;html=1;rounded=0;labelBackgroundColor=default;fontSize=16;fontColor=default;strokeColor=default;strokeWidth=2;fillColor=default;startArrow=none;" parent="WIyWlLk6GJQsqaUBKTNV-1" edge="1">
          <mxGeometry width="50" height="50" relative="1" as="geometry">
            <mxPoint x="259.38" y="6644" as="sourcePoint" />
            <mxPoint x="259.38" y="6649" as="targetPoint" />
          </mxGeometry>
        </mxCell>
        <mxCell id="v0H0A3k1D_jODbU12yOE-281" value="" style="endArrow=none;html=1;rounded=0;labelBackgroundColor=default;fontSize=16;fontColor=default;strokeColor=default;strokeWidth=2;fillColor=default;" parent="WIyWlLk6GJQsqaUBKTNV-1" edge="1">
          <mxGeometry width="50" height="50" relative="1" as="geometry">
            <mxPoint x="259.38" y="6819" as="sourcePoint" />
            <mxPoint x="259.38" y="6644" as="targetPoint" />
          </mxGeometry>
        </mxCell>
        <mxCell id="v0H0A3k1D_jODbU12yOE-282" value="" style="endArrow=none;html=1;rounded=0;labelBackgroundColor=default;fontSize=16;fontColor=default;strokeColor=default;strokeWidth=2;fillColor=default;" parent="WIyWlLk6GJQsqaUBKTNV-1" edge="1">
          <mxGeometry width="50" height="50" relative="1" as="geometry">
            <mxPoint x="517.6999999999997" y="6643.5" as="sourcePoint" />
            <mxPoint x="539.38" y="6644" as="targetPoint" />
          </mxGeometry>
        </mxCell>
        <mxCell id="v0H0A3k1D_jODbU12yOE-283" value="" style="endArrow=none;html=1;rounded=0;labelBackgroundColor=default;fontSize=16;fontColor=default;strokeColor=default;strokeWidth=2;fillColor=default;" parent="WIyWlLk6GJQsqaUBKTNV-1" edge="1">
          <mxGeometry width="50" height="50" relative="1" as="geometry">
            <mxPoint x="538.38" y="6839" as="sourcePoint" />
            <mxPoint x="538.13" y="6644" as="targetPoint" />
          </mxGeometry>
        </mxCell>
        <mxCell id="v0H0A3k1D_jODbU12yOE-284" value="" style="endArrow=none;html=1;rounded=0;labelBackgroundColor=default;fontSize=16;fontColor=default;strokeColor=default;strokeWidth=2;fillColor=default;startArrow=none;" parent="WIyWlLk6GJQsqaUBKTNV-1" edge="1">
          <mxGeometry width="50" height="50" relative="1" as="geometry">
            <mxPoint x="537.6999999999997" y="6839" as="sourcePoint" />
            <mxPoint x="536.88" y="6839" as="targetPoint" />
          </mxGeometry>
        </mxCell>
        <mxCell id="v0H0A3k1D_jODbU12yOE-285" value="" style="endArrow=none;html=1;rounded=0;labelBackgroundColor=default;fontSize=16;fontColor=default;strokeColor=default;strokeWidth=2;fillColor=default;" parent="WIyWlLk6GJQsqaUBKTNV-1" edge="1">
          <mxGeometry width="50" height="50" relative="1" as="geometry">
            <mxPoint x="239.38" y="6839" as="sourcePoint" />
            <mxPoint x="537.6999999999997" y="6839" as="targetPoint" />
          </mxGeometry>
        </mxCell>
        <mxCell id="v0H0A3k1D_jODbU12yOE-286" value="" style="endArrow=none;html=1;rounded=0;labelBackgroundColor=default;fontSize=16;fontColor=default;strokeColor=default;strokeWidth=2;fillColor=default;entryX=0.475;entryY=0.45;entryDx=0;entryDy=0;entryPerimeter=0;" parent="WIyWlLk6GJQsqaUBKTNV-1" edge="1">
          <mxGeometry width="50" height="50" relative="1" as="geometry">
            <mxPoint x="239.38" y="6839" as="sourcePoint" />
            <mxPoint x="239.38" y="6594" as="targetPoint" />
          </mxGeometry>
        </mxCell>
        <mxCell id="v0H0A3k1D_jODbU12yOE-287" value="" style="endArrow=classic;html=1;rounded=0;labelBackgroundColor=default;fontSize=16;fontColor=default;strokeColor=default;strokeWidth=2;fillColor=default;startArrow=none;" parent="WIyWlLk6GJQsqaUBKTNV-1" edge="1">
          <mxGeometry width="50" height="50" relative="1" as="geometry">
            <mxPoint x="239.38" y="6594" as="sourcePoint" />
            <mxPoint x="319.38" y="6593.5" as="targetPoint" />
          </mxGeometry>
        </mxCell>
        <mxCell id="v0H0A3k1D_jODbU12yOE-288" value="" style="endArrow=none;html=1;rounded=0;labelBackgroundColor=default;fontSize=16;fontColor=default;strokeColor=default;strokeWidth=2;fillColor=default;" parent="WIyWlLk6GJQsqaUBKTNV-1" edge="1">
          <mxGeometry width="50" height="50" relative="1" as="geometry">
            <mxPoint x="239.38" y="6593.5" as="sourcePoint" />
            <mxPoint x="239.38" y="6594" as="targetPoint" />
          </mxGeometry>
        </mxCell>
        <mxCell id="v0H0A3k1D_jODbU12yOE-289" value="" style="endArrow=none;html=1;rounded=0;labelBackgroundColor=default;fontSize=16;fontColor=default;strokeColor=default;strokeWidth=2;fillColor=default;startArrow=none;" parent="WIyWlLk6GJQsqaUBKTNV-1" edge="1">
          <mxGeometry width="50" height="50" relative="1" as="geometry">
            <mxPoint x="559.38" y="6585" as="sourcePoint" />
            <mxPoint x="559.38" y="6585" as="targetPoint" />
          </mxGeometry>
        </mxCell>
        <mxCell id="v0H0A3k1D_jODbU12yOE-290" value="" style="endArrow=classic;html=1;rounded=0;labelBackgroundColor=default;fontSize=15;fontColor=default;endSize=6;strokeColor=default;strokeWidth=2;fillColor=default;startArrow=none;" parent="WIyWlLk6GJQsqaUBKTNV-1" edge="1">
          <mxGeometry width="50" height="50" relative="1" as="geometry">
            <mxPoint x="219.38" y="6570" as="sourcePoint" />
            <mxPoint x="419.38" y="6569.5" as="targetPoint" />
          </mxGeometry>
        </mxCell>
        <mxCell id="v0H0A3k1D_jODbU12yOE-291" value="" style="endArrow=none;html=1;rounded=0;labelBackgroundColor=default;fontSize=16;fontColor=default;strokeColor=default;strokeWidth=2;fillColor=default;startArrow=none;" parent="WIyWlLk6GJQsqaUBKTNV-1" edge="1">
          <mxGeometry width="50" height="50" relative="1" as="geometry">
            <mxPoint x="557.88" y="6594" as="sourcePoint" />
            <mxPoint x="559.38" y="6594" as="targetPoint" />
          </mxGeometry>
        </mxCell>
        <mxCell id="v0H0A3k1D_jODbU12yOE-292" value="" style="endArrow=none;html=1;rounded=0;labelBackgroundColor=default;fontSize=20;fontColor=default;endSize=6;strokeColor=default;strokeWidth=2;fillColor=default;" parent="WIyWlLk6GJQsqaUBKTNV-1" edge="1">
          <mxGeometry width="50" height="50" relative="1" as="geometry">
            <mxPoint x="416.38" y="6580" as="sourcePoint" />
            <mxPoint x="416.38" y="6549" as="targetPoint" />
          </mxGeometry>
        </mxCell>
        <mxCell id="v0H0A3k1D_jODbU12yOE-293" value="" style="endArrow=none;html=1;rounded=0;labelBackgroundColor=default;fontSize=15;fontColor=default;endSize=6;strokeColor=default;strokeWidth=2;fillColor=default;" parent="WIyWlLk6GJQsqaUBKTNV-1" edge="1">
          <mxGeometry width="50" height="50" relative="1" as="geometry">
            <mxPoint x="219.38" y="6569" as="sourcePoint" />
            <mxPoint x="219.38" y="6570" as="targetPoint" />
          </mxGeometry>
        </mxCell>
        <mxCell id="v0H0A3k1D_jODbU12yOE-294" value="1" style="ellipse;whiteSpace=wrap;html=1;aspect=fixed;labelBackgroundColor=default;fontSize=20;fontColor=default;strokeColor=default;fillColor=default;" parent="WIyWlLk6GJQsqaUBKTNV-1" vertex="1">
          <mxGeometry x="619.6999999999999" y="6389" width="35" height="35" as="geometry" />
        </mxCell>
        <mxCell id="v0H0A3k1D_jODbU12yOE-295" value="2" style="ellipse;whiteSpace=wrap;html=1;aspect=fixed;labelBackgroundColor=default;fontSize=20;fontColor=default;strokeColor=default;fillColor=default;" parent="WIyWlLk6GJQsqaUBKTNV-1" vertex="1">
          <mxGeometry x="619.6999999999999" y="6692.5" width="35" height="35" as="geometry" />
        </mxCell>
        <mxCell id="v0H0A3k1D_jODbU12yOE-296" value="&lt;font style=&quot;font-size: 19px&quot;&gt;+&lt;/font&gt;" style="text;html=1;align=center;verticalAlign=middle;resizable=0;points=[];autosize=1;strokeColor=none;fillColor=none;" parent="WIyWlLk6GJQsqaUBKTNV-1" vertex="1">
          <mxGeometry x="321.38" y="6343" width="21" height="20" as="geometry" />
        </mxCell>
        <mxCell id="v0H0A3k1D_jODbU12yOE-297" value="-" style="text;html=1;align=center;verticalAlign=middle;resizable=0;points=[];autosize=1;strokeColor=none;fillColor=none;fontSize=19;" parent="WIyWlLk6GJQsqaUBKTNV-1" vertex="1">
          <mxGeometry x="419.38" y="6393" width="16" height="27" as="geometry" />
        </mxCell>
        <mxCell id="v0H0A3k1D_jODbU12yOE-298" value="&lt;font style=&quot;font-size: 19px&quot;&gt;+&lt;/font&gt;" style="text;html=1;align=center;verticalAlign=middle;resizable=0;points=[];autosize=1;strokeColor=none;fillColor=none;" parent="WIyWlLk6GJQsqaUBKTNV-1" vertex="1">
          <mxGeometry x="321.38" y="6493" width="21" height="20" as="geometry" />
        </mxCell>
        <mxCell id="v0H0A3k1D_jODbU12yOE-299" value="-" style="text;html=1;align=center;verticalAlign=middle;resizable=0;points=[];autosize=1;strokeColor=none;fillColor=none;fontSize=19;" parent="WIyWlLk6GJQsqaUBKTNV-1" vertex="1">
          <mxGeometry x="421.38" y="6540" width="16" height="27" as="geometry" />
        </mxCell>
        <mxCell id="v0H0A3k1D_jODbU12yOE-300" value="+" style="text;html=1;align=center;verticalAlign=middle;resizable=0;points=[];autosize=1;strokeColor=none;fillColor=none;fontSize=19;" parent="WIyWlLk6GJQsqaUBKTNV-1" vertex="1">
          <mxGeometry x="321.38" y="6738" width="21" height="27" as="geometry" />
        </mxCell>
        <mxCell id="v0H0A3k1D_jODbU12yOE-301" value="-" style="text;html=1;align=center;verticalAlign=middle;resizable=0;points=[];autosize=1;strokeColor=none;fillColor=none;fontSize=19;" parent="WIyWlLk6GJQsqaUBKTNV-1" vertex="1">
          <mxGeometry x="419.38" y="6790" width="16" height="27" as="geometry" />
        </mxCell>
        <mxCell id="v0H0A3k1D_jODbU12yOE-302" value="" style="endArrow=none;html=1;rounded=0;strokeWidth=2;entryX=0.5;entryY=0.4;entryDx=0;entryDy=0;entryPerimeter=0;" parent="WIyWlLk6GJQsqaUBKTNV-1" edge="1">
          <mxGeometry width="50" height="50" relative="1" as="geometry">
            <mxPoint x="558.38" y="6870" as="sourcePoint" />
            <mxPoint x="557.88" y="6594" as="targetPoint" />
          </mxGeometry>
        </mxCell>
        <mxCell id="v0H0A3k1D_jODbU12yOE-303" value="" style="endArrow=none;html=1;rounded=0;labelBackgroundColor=default;fontSize=16;fontColor=default;strokeColor=default;strokeWidth=2;fillColor=default;" parent="WIyWlLk6GJQsqaUBKTNV-1" edge="1">
          <mxGeometry width="50" height="50" relative="1" as="geometry">
            <mxPoint x="518.13" y="6593.5" as="sourcePoint" />
            <mxPoint x="557.88" y="6594" as="targetPoint" />
          </mxGeometry>
        </mxCell>
        <mxCell id="v0H0A3k1D_jODbU12yOE-304" value="" style="endArrow=none;html=1;rounded=0;strokeWidth=2;" parent="WIyWlLk6GJQsqaUBKTNV-1" edge="1">
          <mxGeometry width="50" height="50" relative="1" as="geometry">
            <mxPoint x="419.38" y="6870" as="sourcePoint" />
            <mxPoint x="557.88" y="6870" as="targetPoint" />
          </mxGeometry>
        </mxCell>
        <mxCell id="v0H0A3k1D_jODbU12yOE-305" value="" style="endArrow=none;html=1;rounded=0;strokeWidth=2;" parent="WIyWlLk6GJQsqaUBKTNV-1" edge="1">
          <mxGeometry width="50" height="50" relative="1" as="geometry">
            <mxPoint x="419.38" y="6900" as="sourcePoint" />
            <mxPoint x="419.38" y="6870" as="targetPoint" />
          </mxGeometry>
        </mxCell>
        <mxCell id="v0H0A3k1D_jODbU12yOE-306" value="&lt;font style=&quot;font-size: 17px&quot;&gt;int max = SearchMax(X)&lt;/font&gt;" style="shape=process;whiteSpace=wrap;html=1;backgroundOutline=1;strokeWidth=2;" parent="WIyWlLk6GJQsqaUBKTNV-1" vertex="1">
          <mxGeometry x="282.51" y="6900" width="273" height="50" as="geometry" />
        </mxCell>
        <mxCell id="v0H0A3k1D_jODbU12yOE-307" value="" style="endArrow=none;html=1;rounded=0;fontSize=17;strokeWidth=2;" parent="WIyWlLk6GJQsqaUBKTNV-1" edge="1">
          <mxGeometry width="50" height="50" relative="1" as="geometry">
            <mxPoint x="419.38" y="6980" as="sourcePoint" />
            <mxPoint x="419.38" y="6950" as="targetPoint" />
          </mxGeometry>
        </mxCell>
        <mxCell id="v0H0A3k1D_jODbU12yOE-308" value="&lt;font style=&quot;font-size: 17px&quot;&gt;bool b = CountMax(x, max)&lt;/font&gt;" style="shape=process;whiteSpace=wrap;html=1;backgroundOutline=1;strokeWidth=2;" parent="WIyWlLk6GJQsqaUBKTNV-1" vertex="1">
          <mxGeometry x="282.51" y="6980" width="268.75" height="50" as="geometry" />
        </mxCell>
        <mxCell id="v0H0A3k1D_jODbU12yOE-309" value="&lt;span style=&quot;font-size: 19px&quot;&gt;b == false&lt;/span&gt;" style="html=1;whiteSpace=wrap;aspect=fixed;shape=isoRectangle;fontSize=17;strokeWidth=2;" parent="WIyWlLk6GJQsqaUBKTNV-1" vertex="1">
          <mxGeometry x="344.01" y="7070" width="150.01" height="90" as="geometry" />
        </mxCell>
        <mxCell id="v0H0A3k1D_jODbU12yOE-310" value="" style="endArrow=none;html=1;rounded=0;fontSize=19;strokeWidth=2;" parent="WIyWlLk6GJQsqaUBKTNV-1" edge="1">
          <mxGeometry width="50" height="50" relative="1" as="geometry">
            <mxPoint x="418.38" y="7060" as="sourcePoint" />
            <mxPoint x="419.0100000000001" y="7060" as="targetPoint" />
          </mxGeometry>
        </mxCell>
        <mxCell id="v0H0A3k1D_jODbU12yOE-311" value="" style="line;strokeWidth=2;direction=south;html=1;fontSize=19;" parent="WIyWlLk6GJQsqaUBKTNV-1" vertex="1">
          <mxGeometry x="414.02" y="7030" width="10" height="40" as="geometry" />
        </mxCell>
        <mxCell id="v0H0A3k1D_jODbU12yOE-312" value="" style="shape=waypoint;sketch=0;fillStyle=solid;size=6;pointerEvents=1;points=[];fillColor=none;resizable=0;rotatable=0;perimeter=centerPerimeter;snapToPoint=1;fontSize=19;strokeWidth=0;" parent="WIyWlLk6GJQsqaUBKTNV-1" vertex="1">
          <mxGeometry x="399.02" y="7050" width="40" height="40" as="geometry" />
        </mxCell>
        <mxCell id="v0H0A3k1D_jODbU12yOE-313" value="+" style="text;html=1;align=center;verticalAlign=middle;resizable=0;points=[];autosize=1;strokeColor=none;fillColor=none;fontSize=19;" parent="WIyWlLk6GJQsqaUBKTNV-1" vertex="1">
          <mxGeometry x="321.38" y="7090" width="30" height="30" as="geometry" />
        </mxCell>
        <mxCell id="v0H0A3k1D_jODbU12yOE-314" value="" style="line;strokeWidth=2;html=1;fontSize=19;" parent="WIyWlLk6GJQsqaUBKTNV-1" vertex="1">
          <mxGeometry x="219.38" y="7110" width="124.63" height="10" as="geometry" />
        </mxCell>
        <mxCell id="v0H0A3k1D_jODbU12yOE-315" value="" style="endArrow=none;html=1;rounded=0;fontSize=19;strokeWidth=2;exitX=0;exitY=0.5;exitDx=0;exitDy=0;exitPerimeter=0;" parent="WIyWlLk6GJQsqaUBKTNV-1" source="v0H0A3k1D_jODbU12yOE-314" edge="1">
          <mxGeometry width="50" height="50" relative="1" as="geometry">
            <mxPoint x="219.38" y="7100" as="sourcePoint" />
            <mxPoint x="219.38" y="6570" as="targetPoint" />
          </mxGeometry>
        </mxCell>
        <mxCell id="v0H0A3k1D_jODbU12yOE-316" value="-" style="text;html=1;align=center;verticalAlign=middle;resizable=0;points=[];autosize=1;strokeColor=none;fillColor=none;fontSize=19;" parent="WIyWlLk6GJQsqaUBKTNV-1" vertex="1">
          <mxGeometry x="424.02" y="7150" width="16" height="27" as="geometry" />
        </mxCell>
        <mxCell id="v0H0A3k1D_jODbU12yOE-317" value="A" style="ellipse;shape=doubleEllipse;whiteSpace=wrap;html=1;aspect=fixed;labelBackgroundColor=default;fontSize=20;fontColor=default;strokeColor=default;fillColor=default;" parent="WIyWlLk6GJQsqaUBKTNV-1" vertex="1">
          <mxGeometry x="399.02" y="7190" width="40" height="40" as="geometry" />
        </mxCell>
        <mxCell id="v0H0A3k1D_jODbU12yOE-318" value="" style="endArrow=none;html=1;rounded=0;fontSize=19;strokeWidth=2;entryX=0.559;entryY=0.4;entryDx=0;entryDy=0;entryPerimeter=0;" parent="WIyWlLk6GJQsqaUBKTNV-1" edge="1">
          <mxGeometry width="50" height="50" relative="1" as="geometry">
            <mxPoint x="419.38" y="7190" as="sourcePoint" />
            <mxPoint x="419.0100000000001" y="7157" as="targetPoint" />
          </mxGeometry>
        </mxCell>
        <mxCell id="v0H0A3k1D_jODbU12yOE-319" value="" style="shape=curlyBracket;whiteSpace=wrap;html=1;rounded=1;flipH=1;fontSize=19;strokeWidth=1;" parent="WIyWlLk6GJQsqaUBKTNV-1" vertex="1">
          <mxGeometry x="589.38" y="6580" width="20" height="260" as="geometry" />
        </mxCell>
        <mxCell id="v0H0A3k1D_jODbU12yOE-320" value="" style="shape=curlyBracket;whiteSpace=wrap;html=1;rounded=1;flipH=1;fontSize=19;strokeWidth=1;" parent="WIyWlLk6GJQsqaUBKTNV-1" vertex="1">
          <mxGeometry x="589.38" y="6259" width="20" height="295" as="geometry" />
        </mxCell>
        <mxCell id="v0H0A3k1D_jODbU12yOE-321" value="" style="shape=curlyBracket;whiteSpace=wrap;html=1;rounded=1;flipH=1;fontSize=19;strokeWidth=1;" parent="WIyWlLk6GJQsqaUBKTNV-1" vertex="1">
          <mxGeometry x="589.38" y="6890" width="20" height="150" as="geometry" />
        </mxCell>
        <mxCell id="v0H0A3k1D_jODbU12yOE-322" value="3" style="ellipse;whiteSpace=wrap;html=1;aspect=fixed;labelBackgroundColor=default;fontSize=20;fontColor=default;strokeColor=default;fillColor=default;" parent="WIyWlLk6GJQsqaUBKTNV-1" vertex="1">
          <mxGeometry x="617.4499999999999" y="6947.5" width="35" height="35" as="geometry" />
        </mxCell>
        <mxCell id="v0H0A3k1D_jODbU12yOE-323" value="" style="shape=curlyBracket;whiteSpace=wrap;html=1;rounded=1;flipH=1;fontSize=19;strokeWidth=1;" parent="WIyWlLk6GJQsqaUBKTNV-1" vertex="1">
          <mxGeometry x="589.38" y="7070" width="20" height="90" as="geometry" />
        </mxCell>
        <mxCell id="v0H0A3k1D_jODbU12yOE-324" value="4" style="ellipse;whiteSpace=wrap;html=1;aspect=fixed;labelBackgroundColor=default;fontSize=20;fontColor=default;strokeColor=default;fillColor=default;" parent="WIyWlLk6GJQsqaUBKTNV-1" vertex="1">
          <mxGeometry x="617.4499999999999" y="7097.5" width="35" height="35" as="geometry" />
        </mxCell>
        <mxCell id="v0H0A3k1D_jODbU12yOE-325" value="A" style="ellipse;shape=doubleEllipse;whiteSpace=wrap;html=1;aspect=fixed;labelBackgroundColor=default;fontSize=20;fontColor=default;strokeColor=default;fillColor=default;" parent="WIyWlLk6GJQsqaUBKTNV-1" vertex="1">
          <mxGeometry x="411.38" y="7290" width="40" height="40" as="geometry" />
        </mxCell>
        <mxCell id="v0H0A3k1D_jODbU12yOE-326" value="&lt;font style=&quot;font-size: 18px&quot;&gt;i = 0; i &amp;lt; row; i++&lt;/font&gt;" style="shape=hexagon;perimeter=hexagonPerimeter2;whiteSpace=wrap;html=1;fixedSize=1;fontSize=22;fontColor=default;strokeColor=default;fillColor=default;" parent="WIyWlLk6GJQsqaUBKTNV-1" vertex="1">
          <mxGeometry x="329.69999999999993" y="7440" width="202.5" height="30" as="geometry" />
        </mxCell>
        <mxCell id="v0H0A3k1D_jODbU12yOE-327" value="" style="edgeStyle=orthogonalEdgeStyle;rounded=0;orthogonalLoop=1;jettySize=auto;html=1;fontSize=20;strokeWidth=2;" parent="WIyWlLk6GJQsqaUBKTNV-1" source="v0H0A3k1D_jODbU12yOE-328" target="v0H0A3k1D_jODbU12yOE-326" edge="1">
          <mxGeometry relative="1" as="geometry" />
        </mxCell>
        <mxCell id="v0H0A3k1D_jODbU12yOE-328" value="&lt;font style=&quot;font-size: 18px&quot;&gt;j = 0; j &amp;lt; col; j++&lt;/font&gt;" style="shape=hexagon;perimeter=hexagonPerimeter2;whiteSpace=wrap;html=1;fixedSize=1;fontSize=22;fontColor=default;strokeColor=default;fillColor=default;" parent="WIyWlLk6GJQsqaUBKTNV-1" vertex="1">
          <mxGeometry x="329.69999999999993" y="7490" width="202.5" height="30" as="geometry" />
        </mxCell>
        <mxCell id="v0H0A3k1D_jODbU12yOE-329" value="" style="endArrow=none;html=1;rounded=0;fontSize=15;fontColor=default;strokeColor=default;fillColor=default;labelBackgroundColor=default;endSize=6;strokeWidth=2;" parent="WIyWlLk6GJQsqaUBKTNV-1" edge="1">
          <mxGeometry width="50" height="50" relative="1" as="geometry">
            <mxPoint x="430.88" y="7440" as="sourcePoint" />
            <mxPoint x="431.38" y="7410" as="targetPoint" />
          </mxGeometry>
        </mxCell>
        <mxCell id="v0H0A3k1D_jODbU12yOE-330" value="" style="endArrow=none;html=1;rounded=0;labelBackgroundColor=default;fontSize=15;fontColor=default;endSize=6;strokeColor=default;strokeWidth=2;fillColor=default;" parent="WIyWlLk6GJQsqaUBKTNV-1" edge="1">
          <mxGeometry width="50" height="50" relative="1" as="geometry">
            <mxPoint x="430.88" y="7490" as="sourcePoint" />
            <mxPoint x="430.88" y="7470" as="targetPoint" />
          </mxGeometry>
        </mxCell>
        <mxCell id="v0H0A3k1D_jODbU12yOE-331" value="&lt;font style=&quot;font-size: 17px&quot;&gt;X[ i ][ j ] = max&amp;nbsp;&lt;/font&gt;" style="rhombus;whiteSpace=wrap;html=1;fontSize=19;fontColor=default;strokeColor=default;fillColor=default;" parent="WIyWlLk6GJQsqaUBKTNV-1" vertex="1">
          <mxGeometry x="348.44999999999993" y="7540" width="165.86" height="70" as="geometry" />
        </mxCell>
        <mxCell id="v0H0A3k1D_jODbU12yOE-332" value="" style="endArrow=none;html=1;rounded=0;labelBackgroundColor=default;fontSize=15;fontColor=default;endSize=6;strokeColor=default;strokeWidth=2;fillColor=default;" parent="WIyWlLk6GJQsqaUBKTNV-1" edge="1">
          <mxGeometry width="50" height="50" relative="1" as="geometry">
            <mxPoint x="430.88" y="7540" as="sourcePoint" />
            <mxPoint x="430.88" y="7520" as="targetPoint" />
          </mxGeometry>
        </mxCell>
        <mxCell id="v0H0A3k1D_jODbU12yOE-333" value="" style="endArrow=none;html=1;rounded=0;labelBackgroundColor=default;fontSize=15;fontColor=default;endSize=6;strokeColor=default;strokeWidth=2;fillColor=default;" parent="WIyWlLk6GJQsqaUBKTNV-1" edge="1">
          <mxGeometry width="50" height="50" relative="1" as="geometry">
            <mxPoint x="430.88" y="7640" as="sourcePoint" />
            <mxPoint x="430.4499999999997" y="7610" as="targetPoint" />
          </mxGeometry>
        </mxCell>
        <mxCell id="v0H0A3k1D_jODbU12yOE-334" value="&lt;font style=&quot;font-size: 17px&quot;&gt;rowindex = i;&lt;br&gt;colindex = j;&lt;br&gt;&amp;nbsp;break;&lt;br&gt;&lt;/font&gt;" style="rounded=0;whiteSpace=wrap;html=1;fontColor=default;strokeColor=default;fillColor=default;" parent="WIyWlLk6GJQsqaUBKTNV-1" vertex="1">
          <mxGeometry x="370.94999999999993" y="7640" width="120" height="60" as="geometry" />
        </mxCell>
        <mxCell id="v0H0A3k1D_jODbU12yOE-335" value="" style="line;strokeWidth=2;html=1;fontSize=15;fontColor=default;fillColor=default;strokeColor=default;labelBackgroundColor=default;" parent="WIyWlLk6GJQsqaUBKTNV-1" vertex="1">
          <mxGeometry x="514.3100000000001" y="7570" width="19.57" height="10" as="geometry" />
        </mxCell>
        <mxCell id="v0H0A3k1D_jODbU12yOE-336" value="" style="endArrow=none;html=1;rounded=0;labelBackgroundColor=default;fontSize=15;fontColor=default;endSize=6;strokeColor=default;strokeWidth=2;fillColor=default;entryX=0.514;entryY=0.625;entryDx=0;entryDy=0;entryPerimeter=0;" parent="WIyWlLk6GJQsqaUBKTNV-1" edge="1">
          <mxGeometry width="50" height="50" relative="1" as="geometry">
            <mxPoint x="533.88" y="7720" as="sourcePoint" />
            <mxPoint x="534.3100000000003" y="7575" as="targetPoint" />
          </mxGeometry>
        </mxCell>
        <mxCell id="v0H0A3k1D_jODbU12yOE-337" value="" style="endArrow=none;html=1;rounded=0;labelBackgroundColor=default;fontSize=15;fontColor=default;endSize=6;strokeColor=default;strokeWidth=2;fillColor=default;" parent="WIyWlLk6GJQsqaUBKTNV-1" edge="1">
          <mxGeometry width="50" height="50" relative="1" as="geometry">
            <mxPoint x="273.88" y="7720" as="sourcePoint" />
            <mxPoint x="532.63" y="7720" as="targetPoint" />
          </mxGeometry>
        </mxCell>
        <mxCell id="v0H0A3k1D_jODbU12yOE-338" value="" style="endArrow=none;html=1;rounded=0;labelBackgroundColor=default;fontSize=15;fontColor=default;endSize=6;strokeColor=default;strokeWidth=2;fillColor=default;" parent="WIyWlLk6GJQsqaUBKTNV-1" edge="1">
          <mxGeometry width="50" height="50" relative="1" as="geometry">
            <mxPoint x="430.88" y="7720" as="sourcePoint" />
            <mxPoint x="430.4499999999997" y="7700" as="targetPoint" />
          </mxGeometry>
        </mxCell>
        <mxCell id="v0H0A3k1D_jODbU12yOE-339" value="" style="endArrow=none;html=1;rounded=0;labelBackgroundColor=default;fontSize=15;fontColor=default;endSize=6;strokeColor=default;strokeWidth=2;fillColor=default;entryX=0.475;entryY=0.4;entryDx=0;entryDy=0;entryPerimeter=0;" parent="WIyWlLk6GJQsqaUBKTNV-1" edge="1">
          <mxGeometry width="50" height="50" relative="1" as="geometry">
            <mxPoint x="273.88" y="7720" as="sourcePoint" />
            <mxPoint x="273.88" y="7505" as="targetPoint" />
          </mxGeometry>
        </mxCell>
        <mxCell id="v0H0A3k1D_jODbU12yOE-340" value="" style="endArrow=classic;html=1;rounded=0;labelBackgroundColor=default;fontSize=15;fontColor=default;endSize=6;strokeColor=default;strokeWidth=2;fillColor=default;startArrow=none;" parent="WIyWlLk6GJQsqaUBKTNV-1" edge="1">
          <mxGeometry width="50" height="50" relative="1" as="geometry">
            <mxPoint x="273.88" y="7505" as="sourcePoint" />
            <mxPoint x="333.88" y="7504.5" as="targetPoint" />
          </mxGeometry>
        </mxCell>
        <mxCell id="v0H0A3k1D_jODbU12yOE-341" value="" style="endArrow=none;html=1;rounded=0;labelBackgroundColor=default;fontSize=15;fontColor=default;endSize=6;strokeColor=default;strokeWidth=2;fillColor=default;" parent="WIyWlLk6GJQsqaUBKTNV-1" edge="1">
          <mxGeometry width="50" height="50" relative="1" as="geometry">
            <mxPoint x="273.88" y="7505" as="sourcePoint" />
            <mxPoint x="273.88" y="7505" as="targetPoint" />
          </mxGeometry>
        </mxCell>
        <mxCell id="v0H0A3k1D_jODbU12yOE-342" value="" style="line;strokeWidth=2;html=1;labelBackgroundColor=default;fontSize=15;fontColor=default;fillColor=default;strokeColor=default;" parent="WIyWlLk6GJQsqaUBKTNV-1" vertex="1">
          <mxGeometry x="532.63" y="7500" width="21.25" height="10" as="geometry" />
        </mxCell>
        <mxCell id="v0H0A3k1D_jODbU12yOE-343" value="" style="endArrow=none;html=1;rounded=0;labelBackgroundColor=default;fontSize=15;fontColor=default;endSize=6;strokeColor=default;strokeWidth=2;fillColor=default;entryX=0.542;entryY=0.45;entryDx=0;entryDy=0;entryPerimeter=0;" parent="WIyWlLk6GJQsqaUBKTNV-1" edge="1">
          <mxGeometry width="50" height="50" relative="1" as="geometry">
            <mxPoint x="551.88" y="7740" as="sourcePoint" />
            <mxPoint x="552.1999999999997" y="7505" as="targetPoint" />
          </mxGeometry>
        </mxCell>
        <mxCell id="v0H0A3k1D_jODbU12yOE-344" value="" style="endArrow=none;html=1;rounded=0;labelBackgroundColor=default;fontSize=15;fontColor=default;endSize=6;strokeColor=default;strokeWidth=2;fillColor=default;" parent="WIyWlLk6GJQsqaUBKTNV-1" edge="1">
          <mxGeometry width="50" height="50" relative="1" as="geometry">
            <mxPoint x="253.88" y="7740" as="sourcePoint" />
            <mxPoint x="552.2000000000002" y="7740" as="targetPoint" />
          </mxGeometry>
        </mxCell>
        <mxCell id="v0H0A3k1D_jODbU12yOE-345" value="" style="endArrow=none;html=1;rounded=0;labelBackgroundColor=default;fontSize=15;fontColor=default;endSize=6;strokeColor=default;strokeWidth=2;fillColor=default;entryX=0.5;entryY=0.375;entryDx=0;entryDy=0;entryPerimeter=0;" parent="WIyWlLk6GJQsqaUBKTNV-1" edge="1">
          <mxGeometry width="50" height="50" relative="1" as="geometry">
            <mxPoint x="253.88" y="7740" as="sourcePoint" />
            <mxPoint x="253.88" y="7455" as="targetPoint" />
          </mxGeometry>
        </mxCell>
        <mxCell id="v0H0A3k1D_jODbU12yOE-346" value="" style="endArrow=classic;html=1;rounded=0;labelBackgroundColor=default;fontSize=15;fontColor=default;endSize=6;strokeColor=default;strokeWidth=2;fillColor=default;" parent="WIyWlLk6GJQsqaUBKTNV-1" edge="1">
          <mxGeometry width="50" height="50" relative="1" as="geometry">
            <mxPoint x="253.88" y="7454.5" as="sourcePoint" />
            <mxPoint x="333.88" y="7454.5" as="targetPoint" />
          </mxGeometry>
        </mxCell>
        <mxCell id="v0H0A3k1D_jODbU12yOE-347" value="" style="line;strokeWidth=2;html=1;labelBackgroundColor=default;fontSize=15;fontColor=default;fillColor=default;strokeColor=default;" parent="WIyWlLk6GJQsqaUBKTNV-1" vertex="1">
          <mxGeometry x="532.2" y="7450" width="41.68" height="10" as="geometry" />
        </mxCell>
        <mxCell id="v0H0A3k1D_jODbU12yOE-348" value="" style="endArrow=none;html=1;rounded=0;labelBackgroundColor=default;fontSize=15;fontColor=default;endSize=6;strokeColor=default;strokeWidth=2;fillColor=default;" parent="WIyWlLk6GJQsqaUBKTNV-1" edge="1">
          <mxGeometry width="50" height="50" relative="1" as="geometry">
            <mxPoint x="573.88" y="7760" as="sourcePoint" />
            <mxPoint x="573.88" y="7455" as="targetPoint" />
          </mxGeometry>
        </mxCell>
        <mxCell id="v0H0A3k1D_jODbU12yOE-349" value="" style="endArrow=none;html=1;rounded=0;labelBackgroundColor=default;fontSize=15;fontColor=default;endSize=6;strokeColor=default;strokeWidth=2;fillColor=default;" parent="WIyWlLk6GJQsqaUBKTNV-1" edge="1">
          <mxGeometry width="50" height="50" relative="1" as="geometry">
            <mxPoint x="430.9499999999997" y="7760" as="sourcePoint" />
            <mxPoint x="573.88" y="7760" as="targetPoint" />
          </mxGeometry>
        </mxCell>
        <mxCell id="v0H0A3k1D_jODbU12yOE-350" value="" style="endArrow=none;html=1;rounded=0;labelBackgroundColor=default;fontSize=15;fontColor=default;endSize=6;strokeColor=default;strokeWidth=2;fillColor=default;startArrow=none;" parent="WIyWlLk6GJQsqaUBKTNV-1" edge="1">
          <mxGeometry width="50" height="50" relative="1" as="geometry">
            <mxPoint x="430.9499999999997" y="7760" as="sourcePoint" />
            <mxPoint x="430.9499999999997" y="7760" as="targetPoint" />
          </mxGeometry>
        </mxCell>
        <mxCell id="v0H0A3k1D_jODbU12yOE-351" value="-" style="text;html=1;align=center;verticalAlign=middle;resizable=0;points=[];autosize=1;strokeColor=none;fillColor=none;fontSize=19;" parent="WIyWlLk6GJQsqaUBKTNV-1" vertex="1">
          <mxGeometry x="512.2" y="7551" width="16" height="27" as="geometry" />
        </mxCell>
        <mxCell id="v0H0A3k1D_jODbU12yOE-352" value="+" style="text;html=1;align=center;verticalAlign=middle;resizable=0;points=[];autosize=1;strokeColor=none;fillColor=none;fontSize=19;" parent="WIyWlLk6GJQsqaUBKTNV-1" vertex="1">
          <mxGeometry x="410.38" y="7605" width="21" height="27" as="geometry" />
        </mxCell>
        <mxCell id="v0H0A3k1D_jODbU12yOE-353" value="rowindex = 0&lt;br&gt;colindex = 0" style="rounded=0;whiteSpace=wrap;html=1;fontSize=17;" parent="WIyWlLk6GJQsqaUBKTNV-1" vertex="1">
          <mxGeometry x="370.95" y="7350" width="120" height="60" as="geometry" />
        </mxCell>
        <mxCell id="v0H0A3k1D_jODbU12yOE-354" value="" style="endArrow=none;html=1;rounded=0;fontSize=17;strokeWidth=2;" parent="WIyWlLk6GJQsqaUBKTNV-1" edge="1">
          <mxGeometry width="50" height="50" relative="1" as="geometry">
            <mxPoint x="431.38" y="7350" as="sourcePoint" />
            <mxPoint x="431.51999999999987" y="7330" as="targetPoint" />
          </mxGeometry>
        </mxCell>
        <mxCell id="v0H0A3k1D_jODbU12yOE-355" value="" style="endArrow=none;html=1;rounded=0;fontSize=17;strokeWidth=2;" parent="WIyWlLk6GJQsqaUBKTNV-1" edge="1">
          <mxGeometry width="50" height="50" relative="1" as="geometry">
            <mxPoint x="431.38" y="7800" as="sourcePoint" />
            <mxPoint x="431.38" y="7760" as="targetPoint" />
          </mxGeometry>
        </mxCell>
        <mxCell id="v0H0A3k1D_jODbU12yOE-356" value="ChangeMatrix(X,rowindex, colindex)" style="shape=process;whiteSpace=wrap;html=1;backgroundOutline=1;fontSize=17;strokeWidth=2;" parent="WIyWlLk6GJQsqaUBKTNV-1" vertex="1">
          <mxGeometry x="253.45000000000005" y="7800" width="357.14" height="50" as="geometry" />
        </mxCell>
        <mxCell id="v0H0A3k1D_jODbU12yOE-357" value="&lt;font style=&quot;font-size: 18px&quot;&gt;i = 0 ; i &amp;lt; row - 1; j++&lt;/font&gt;" style="shape=hexagon;perimeter=hexagonPerimeter2;whiteSpace=wrap;html=1;fixedSize=1;fontSize=22;fontColor=default;strokeColor=default;fillColor=default;" parent="WIyWlLk6GJQsqaUBKTNV-1" vertex="1">
          <mxGeometry x="294.83" y="7880" width="256.62" height="30" as="geometry" />
        </mxCell>
        <mxCell id="v0H0A3k1D_jODbU12yOE-358" value="&lt;font style=&quot;font-size: 18px&quot;&gt;j = 0 ; j &amp;lt; col - 1 ; j++&lt;/font&gt;" style="shape=hexagon;perimeter=hexagonPerimeter2;whiteSpace=wrap;html=1;fixedSize=1;fontSize=22;fontColor=default;strokeColor=default;fillColor=default;" parent="WIyWlLk6GJQsqaUBKTNV-1" vertex="1">
          <mxGeometry x="294.83" y="7930" width="256.62" height="30" as="geometry" />
        </mxCell>
        <mxCell id="v0H0A3k1D_jODbU12yOE-359" value="" style="line;strokeWidth=2;direction=south;html=1;fontSize=20;" parent="WIyWlLk6GJQsqaUBKTNV-1" vertex="1">
          <mxGeometry x="418.13" y="7910" width="10" height="20" as="geometry" />
        </mxCell>
        <mxCell id="v0H0A3k1D_jODbU12yOE-360" value="" style="line;strokeWidth=2;direction=south;html=1;fontSize=20;" parent="WIyWlLk6GJQsqaUBKTNV-1" vertex="1">
          <mxGeometry x="418.13" y="7960" width="10" height="20" as="geometry" />
        </mxCell>
        <mxCell id="v0H0A3k1D_jODbU12yOE-361" value="" style="line;strokeWidth=2;direction=south;html=1;fontSize=20;" parent="WIyWlLk6GJQsqaUBKTNV-1" vertex="1">
          <mxGeometry x="418.13" y="8010" width="10" height="50" as="geometry" />
        </mxCell>
        <mxCell id="v0H0A3k1D_jODbU12yOE-362" value="" style="endArrow=none;html=1;rounded=0;fontSize=20;strokeWidth=2;" parent="WIyWlLk6GJQsqaUBKTNV-1" edge="1">
          <mxGeometry width="50" height="50" relative="1" as="geometry">
            <mxPoint x="267.13" y="8060" as="sourcePoint" />
            <mxPoint x="423.13" y="8060" as="targetPoint" />
          </mxGeometry>
        </mxCell>
        <mxCell id="v0H0A3k1D_jODbU12yOE-363" value="" style="endArrow=none;html=1;rounded=0;fontSize=20;strokeWidth=2;entryX=0.525;entryY=0.65;entryDx=0;entryDy=0;entryPerimeter=0;" parent="WIyWlLk6GJQsqaUBKTNV-1" edge="1">
          <mxGeometry width="50" height="50" relative="1" as="geometry">
            <mxPoint x="267.13" y="8060" as="sourcePoint" />
            <mxPoint x="268.13" y="7945" as="targetPoint" />
          </mxGeometry>
        </mxCell>
        <mxCell id="v0H0A3k1D_jODbU12yOE-364" value="" style="endArrow=classic;html=1;rounded=0;fontSize=20;strokeWidth=2;startArrow=none;" parent="WIyWlLk6GJQsqaUBKTNV-1" source="v0H0A3k1D_jODbU12yOE-366" edge="1">
          <mxGeometry width="50" height="50" relative="1" as="geometry">
            <mxPoint x="268.13" y="7945" as="sourcePoint" />
            <mxPoint x="300.13" y="7944.5" as="targetPoint" />
          </mxGeometry>
        </mxCell>
        <mxCell id="v0H0A3k1D_jODbU12yOE-365" value="" style="endArrow=none;html=1;rounded=0;fontSize=20;strokeWidth=2;" parent="WIyWlLk6GJQsqaUBKTNV-1" edge="1">
          <mxGeometry width="50" height="50" relative="1" as="geometry">
            <mxPoint x="267.13" y="7945" as="sourcePoint" />
            <mxPoint x="268.13" y="7945" as="targetPoint" />
          </mxGeometry>
        </mxCell>
        <mxCell id="v0H0A3k1D_jODbU12yOE-366" value="" style="line;strokeWidth=2;html=1;fontSize=20;" parent="WIyWlLk6GJQsqaUBKTNV-1" vertex="1">
          <mxGeometry x="267.13" y="7940" width="29" height="10" as="geometry" />
        </mxCell>
        <mxCell id="v0H0A3k1D_jODbU12yOE-367" value="" style="endArrow=none;html=1;rounded=0;fontSize=20;strokeWidth=2;startArrow=none;" parent="WIyWlLk6GJQsqaUBKTNV-1" target="v0H0A3k1D_jODbU12yOE-366" edge="1">
          <mxGeometry width="50" height="50" relative="1" as="geometry">
            <mxPoint x="268.13" y="7945" as="sourcePoint" />
            <mxPoint x="300.13" y="7944.5" as="targetPoint" />
          </mxGeometry>
        </mxCell>
        <mxCell id="v0H0A3k1D_jODbU12yOE-368" value="" style="line;strokeWidth=2;html=1;fontSize=20;" parent="WIyWlLk6GJQsqaUBKTNV-1" vertex="1">
          <mxGeometry x="551.4499999999999" y="7940" width="35.68" height="10" as="geometry" />
        </mxCell>
        <mxCell id="v0H0A3k1D_jODbU12yOE-369" value="" style="endArrow=none;html=1;rounded=0;fontSize=20;strokeWidth=2;entryX=1;entryY=0.5;entryDx=0;entryDy=0;entryPerimeter=0;" parent="WIyWlLk6GJQsqaUBKTNV-1" target="v0H0A3k1D_jODbU12yOE-368" edge="1">
          <mxGeometry width="50" height="50" relative="1" as="geometry">
            <mxPoint x="587.13" y="8080" as="sourcePoint" />
            <mxPoint x="586.13" y="7960" as="targetPoint" />
          </mxGeometry>
        </mxCell>
        <mxCell id="v0H0A3k1D_jODbU12yOE-370" value="" style="endArrow=none;html=1;rounded=0;fontSize=20;strokeWidth=2;" parent="WIyWlLk6GJQsqaUBKTNV-1" edge="1">
          <mxGeometry width="50" height="50" relative="1" as="geometry">
            <mxPoint x="247.13" y="8080" as="sourcePoint" />
            <mxPoint x="587.13" y="8080" as="targetPoint" />
          </mxGeometry>
        </mxCell>
        <mxCell id="v0H0A3k1D_jODbU12yOE-371" value="" style="endArrow=none;html=1;rounded=0;fontSize=20;strokeWidth=2;entryX=0.55;entryY=0.675;entryDx=0;entryDy=0;entryPerimeter=0;" parent="WIyWlLk6GJQsqaUBKTNV-1" edge="1">
          <mxGeometry width="50" height="50" relative="1" as="geometry">
            <mxPoint x="247.13" y="8080" as="sourcePoint" />
            <mxPoint x="247.13" y="7895" as="targetPoint" />
          </mxGeometry>
        </mxCell>
        <mxCell id="v0H0A3k1D_jODbU12yOE-372" value="" style="endArrow=classic;html=1;rounded=0;fontSize=20;strokeWidth=2;startArrow=none;" parent="WIyWlLk6GJQsqaUBKTNV-1" edge="1">
          <mxGeometry width="50" height="50" relative="1" as="geometry">
            <mxPoint x="247.13" y="7895" as="sourcePoint" />
            <mxPoint x="300.13" y="7894.5" as="targetPoint" />
          </mxGeometry>
        </mxCell>
        <mxCell id="v0H0A3k1D_jODbU12yOE-373" value="" style="endArrow=none;html=1;rounded=0;fontSize=20;strokeWidth=2;" parent="WIyWlLk6GJQsqaUBKTNV-1" edge="1">
          <mxGeometry width="50" height="50" relative="1" as="geometry">
            <mxPoint x="247.13" y="7895" as="sourcePoint" />
            <mxPoint x="247.13" y="7895" as="targetPoint" />
          </mxGeometry>
        </mxCell>
        <mxCell id="v0H0A3k1D_jODbU12yOE-374" value="" style="line;strokeWidth=2;html=1;fontSize=20;" parent="WIyWlLk6GJQsqaUBKTNV-1" vertex="1">
          <mxGeometry x="551.4499999999999" y="7890" width="55.68" height="10" as="geometry" />
        </mxCell>
        <mxCell id="v0H0A3k1D_jODbU12yOE-375" value="X[ i ][ j ]" style="shape=parallelogram;perimeter=parallelogramPerimeter;whiteSpace=wrap;html=1;fixedSize=1;fontSize=19;fontColor=default;strokeColor=default;fillColor=default;" parent="WIyWlLk6GJQsqaUBKTNV-1" vertex="1">
          <mxGeometry x="373.14" y="7980" width="100" height="30" as="geometry" />
        </mxCell>
        <mxCell id="v0H0A3k1D_jODbU12yOE-376" value="" style="endArrow=none;html=1;rounded=0;fontSize=20;strokeWidth=2;" parent="WIyWlLk6GJQsqaUBKTNV-1" edge="1">
          <mxGeometry width="50" height="50" relative="1" as="geometry">
            <mxPoint x="607.13" y="8100" as="sourcePoint" />
            <mxPoint x="606.63" y="7895" as="targetPoint" />
          </mxGeometry>
        </mxCell>
        <mxCell id="v0H0A3k1D_jODbU12yOE-377" value="" style="endArrow=none;html=1;rounded=0;fontSize=20;strokeWidth=2;exitX=0.575;exitY=0.5;exitDx=0;exitDy=0;exitPerimeter=0;" parent="WIyWlLk6GJQsqaUBKTNV-1" edge="1">
          <mxGeometry width="50" height="50" relative="1" as="geometry">
            <mxPoint x="422.13" y="8100" as="sourcePoint" />
            <mxPoint x="607.13" y="8100" as="targetPoint" />
          </mxGeometry>
        </mxCell>
        <mxCell id="v0H0A3k1D_jODbU12yOE-378" value="" style="endArrow=none;html=1;rounded=0;fontSize=20;strokeWidth=2;startArrow=none;" parent="WIyWlLk6GJQsqaUBKTNV-1" edge="1">
          <mxGeometry width="50" height="50" relative="1" as="geometry">
            <mxPoint x="422.13" y="8100" as="sourcePoint" />
            <mxPoint x="421.63" y="8100" as="targetPoint" />
          </mxGeometry>
        </mxCell>
        <mxCell id="v0H0A3k1D_jODbU12yOE-379" value="" style="endArrow=none;html=1;rounded=0;fontSize=20;strokeWidth=2;" parent="WIyWlLk6GJQsqaUBKTNV-1" edge="1">
          <mxGeometry width="50" height="50" relative="1" as="geometry">
            <mxPoint x="422.13" y="8130" as="sourcePoint" />
            <mxPoint x="422.13" y="8100" as="targetPoint" />
          </mxGeometry>
        </mxCell>
        <mxCell id="v0H0A3k1D_jODbU12yOE-380" value="&lt;font style=&quot;font-size: 19px&quot;&gt;Ավարտ&lt;/font&gt;" style="ellipse;whiteSpace=wrap;html=1;fontSize=25;fontColor=default;strokeColor=default;fillColor=default;" parent="WIyWlLk6GJQsqaUBKTNV-1" vertex="1">
          <mxGeometry x="364.64" y="8130" width="115" height="40" as="geometry" />
        </mxCell>
        <mxCell id="v0H0A3k1D_jODbU12yOE-381" value="" style="endArrow=none;html=1;rounded=0;fontSize=17;strokeWidth=2;" parent="WIyWlLk6GJQsqaUBKTNV-1" edge="1">
          <mxGeometry width="50" height="50" relative="1" as="geometry">
            <mxPoint x="429.38" y="7880" as="sourcePoint" />
            <mxPoint x="428.88" y="7850" as="targetPoint" />
          </mxGeometry>
        </mxCell>
      </root>
    </mxGraphModel>
  </diagram>
</mxfile>
